<svg width="180" height="381" viewBox="0 0 180 381" fill="none" xmlns="http://www.w3.org/2000/svg">
<rect width="180" height="380.769" rx="24.1259" fill="#111111"/>
<g filter="url(#filter0_d)">
<g clip-path="url(#clip0)">
<rect x="6.9231" y="6.92303" width="166.154" height="360" rx="19.3846" fill="white"/>
<g filter="url(#filter1_d)">
<rect x="6.9231" y="6.92303" width="166.154" height="41.5385" fill="white"/>
</g>
<g opacity="0.5" clip-path="url(#clip1)">
<path fill-rule="evenodd" clip-rule="evenodd" d="M143.539 37.8461H143.173L143.046 37.7197C143.496 37.1949 143.769 36.5146 143.769 35.7692C143.769 34.1123 142.426 32.7692 140.769 32.7692C139.112 32.7692 137.769 34.1123 137.769 35.7692C137.769 37.4261 139.112 38.7692 140.769 38.7692C141.515 38.7692 142.195 38.496 142.719 38.0464L142.847 38.1729V38.5384L145.153 40.842L145.842 40.1538L143.539 37.8461ZM140.769 37.8463C139.622 37.8463 138.692 36.9167 138.692 35.7693C138.692 34.6224 139.622 33.6924 140.769 33.6924C141.916 33.6924 142.846 34.6224 142.846 35.7693C142.846 36.9167 141.916 37.8463 140.769 37.8463Z" fill="black"/>
<g clip-path="url(#clip2)">
<path d="M162 39.6923H162.923V38.7692H162V39.6923ZM162.462 32.3077C159.914 32.3077 157.846 34.3754 157.846 36.9231C157.846 39.4708 159.914 41.5384 162.462 41.5384C165.009 41.5384 167.077 39.4708 167.077 36.9231C167.077 34.3754 165.009 32.3077 162.462 32.3077ZM162.462 40.6154C160.426 40.6154 158.769 38.9584 158.769 36.9231C158.769 34.8877 160.426 33.2308 162.462 33.2308C164.497 33.2308 166.154 34.8877 166.154 36.9231C166.154 38.9584 164.497 40.6154 162.462 40.6154ZM162.462 34.1538C161.442 34.1538 160.615 34.98 160.615 36H161.538C161.538 35.4923 161.954 35.0769 162.462 35.0769C162.969 35.0769 163.385 35.4923 163.385 36C163.385 36.9231 162 36.8077 162 38.3077H162.923C162.923 37.2692 164.308 37.1538 164.308 36C164.308 34.98 163.482 34.1538 162.462 34.1538Z" fill="black"/>
</g>
</g>
<g clip-path="url(#clip3)">
<path d="M20.8462 36.556H15.4633L17.9358 34.0835L17.3077 33.4598L13.7693 36.9983L17.3077 40.5368L17.9314 39.9131L15.4633 37.4406H20.8462V36.556Z" fill="black" fill-opacity="0.7"/>
<path d="M39.4447 38.777H37.1569L36.6782 40.1522H35.6113L37.8424 34.2459H38.7632L40.9984 40.1522H39.9275L39.4447 38.777ZM37.4449 37.9495H39.1567L38.3008 35.4994L37.4449 37.9495ZM45.4281 38.0022C45.4281 38.6837 45.2753 39.2259 44.9697 39.6289C44.6668 40.0318 44.249 40.2333 43.7162 40.2333C43.2024 40.2333 42.8022 40.048 42.5155 39.6776L42.4668 40.1522H41.5744V33.9214H42.5601V36.1849C42.8441 35.8496 43.2267 35.6819 43.7081 35.6819C44.2436 35.6819 44.6641 35.8807 44.9697 36.2782C45.2753 36.6757 45.4281 37.2315 45.4281 37.9454V38.0022ZM44.4423 37.917C44.4423 37.4411 44.3585 37.0841 44.1908 36.8461C44.0232 36.6081 43.7798 36.4891 43.4607 36.4891C43.0334 36.4891 42.7332 36.6757 42.5601 37.0489V38.8581C42.7359 39.2395 43.0388 39.4301 43.4688 39.4301C43.7771 39.4301 44.015 39.3152 44.1827 39.0853C44.3504 38.8554 44.4369 38.5079 44.4423 38.0428V37.917ZM46.073 37.917C46.073 37.487 46.1582 37.1003 46.3286 36.7569C46.499 36.4107 46.7383 36.1457 47.0466 35.9618C47.3549 35.7752 47.7092 35.6819 48.1094 35.6819C48.7016 35.6819 49.1817 35.8726 49.5494 36.2539C49.9199 36.6352 50.1201 37.1409 50.1498 37.771L50.1539 38.0022C50.1539 38.4349 50.07 38.8216 49.9024 39.1624C49.7374 39.5031 49.4994 39.7668 49.1884 39.9534C48.8801 40.14 48.5232 40.2333 48.1175 40.2333C47.4982 40.2333 47.002 40.0278 46.6288 39.6167C46.2583 39.2029 46.073 38.6526 46.073 37.9657V37.917ZM47.0588 38.0022C47.0588 38.4538 47.1521 38.8081 47.3387 39.065C47.5253 39.3192 47.7849 39.4463 48.1175 39.4463C48.4501 39.4463 48.7084 39.3165 48.8923 39.0569C49.0789 38.7973 49.1722 38.4173 49.1722 37.917C49.1722 37.4735 49.0762 37.122 48.8842 36.8623C48.6949 36.6027 48.4366 36.4729 48.1094 36.4729C47.7876 36.4729 47.532 36.6014 47.3427 36.8583C47.1534 37.1125 47.0588 37.4938 47.0588 38.0022ZM53.6465 39.7222C53.3571 40.0629 52.9461 40.2333 52.4133 40.2333C51.9374 40.2333 51.5763 40.094 51.3302 39.8155C51.0869 39.5369 50.9652 39.134 50.9652 38.6066V35.763H51.9509V38.5945C51.9509 39.1516 52.1821 39.4301 52.6446 39.4301C53.1232 39.4301 53.4464 39.2584 53.6141 38.9149V35.763H54.5998V40.1522H53.6708L53.6465 39.7222ZM56.839 34.6962V35.763H57.6138V36.4932H56.839V38.9433C56.839 39.111 56.8714 39.2327 56.9363 39.3084C57.0039 39.3814 57.1229 39.4179 57.2933 39.4179C57.4069 39.4179 57.5218 39.4044 57.6381 39.3774V40.14C57.4136 40.2022 57.1973 40.2333 56.9891 40.2333C56.2318 40.2333 55.8532 39.8155 55.8532 38.9798V36.4932H55.1312V35.763H55.8532V34.6962H56.839ZM64.2826 38.0022C64.2826 38.681 64.1285 39.2232 63.8202 39.6289C63.5119 40.0318 63.0981 40.2333 62.5789 40.2333C62.0975 40.2333 61.7122 40.0751 61.4228 39.7587V41.8397H60.4371V35.763H61.3457L61.3863 36.2093C61.6756 35.8577 62.0691 35.6819 62.5667 35.6819C63.1022 35.6819 63.5214 35.882 63.8242 36.2823C64.1298 36.6798 64.2826 37.2328 64.2826 37.9414V38.0022ZM63.301 37.917C63.301 37.4789 63.2131 37.1314 63.0373 36.8745C62.8642 36.6176 62.6154 36.4891 62.2909 36.4891C61.8879 36.4891 61.5986 36.6555 61.4228 36.9881V38.9352C61.6013 39.276 61.8933 39.4463 62.299 39.4463C62.6127 39.4463 62.8574 39.3206 63.0332 39.0691C63.2117 38.8149 63.301 38.4309 63.301 37.917ZM66.0918 36.2417C66.4136 35.8685 66.8206 35.6819 67.3128 35.6819C68.2485 35.6819 68.7231 36.216 68.7366 37.2842V40.1522H67.7509V37.3207C67.7509 37.0178 67.6847 36.8042 67.5522 36.6798C67.4223 36.5527 67.2303 36.4891 66.9761 36.4891C66.5813 36.4891 66.2865 36.6649 66.0918 37.0165V40.1522H65.1061V33.9214H66.0918V36.2417ZM69.552 37.917C69.552 37.487 69.6372 37.1003 69.8076 36.7569C69.9779 36.4107 70.2173 36.1457 70.5256 35.9618C70.8339 35.7752 71.1881 35.6819 71.5884 35.6819C72.1806 35.6819 72.6606 35.8726 73.0284 36.2539C73.3989 36.6352 73.599 37.1409 73.6288 37.771L73.6328 38.0022C73.6328 38.4349 73.549 38.8216 73.3813 39.1624C73.2164 39.5031 72.9784 39.7668 72.6674 39.9534C72.3591 40.14 72.0021 40.2333 71.5965 40.2333C70.9772 40.2333 70.4809 40.0278 70.1077 39.6167C69.7372 39.2029 69.552 38.6526 69.552 37.9657V37.917ZM70.5377 38.0022C70.5377 38.4538 70.631 38.8081 70.8176 39.065C71.0042 39.3192 71.2638 39.4463 71.5965 39.4463C71.9291 39.4463 72.1874 39.3165 72.3713 39.0569C72.5579 38.7973 72.6512 38.4173 72.6512 37.917C72.6512 37.4735 72.5552 37.122 72.3632 36.8623C72.1738 36.6027 71.9156 36.4729 71.5884 36.4729C71.2665 36.4729 71.011 36.6014 70.8217 36.8583C70.6324 37.1125 70.5377 37.4938 70.5377 38.0022ZM75.3812 35.763L75.4096 36.2701C75.7341 35.878 76.16 35.6819 76.6874 35.6819C77.6014 35.6819 78.0666 36.2052 78.0828 37.2518V40.1522H77.0971V37.3086C77.0971 37.03 77.0362 36.8245 76.9145 36.692C76.7955 36.5568 76.5995 36.4891 76.3263 36.4891C75.9288 36.4891 75.6327 36.669 75.438 37.0287V40.1522H74.4522V35.763H75.3812ZM81.0238 40.2333C80.3991 40.2333 79.892 40.0372 79.5026 39.6451C79.1159 39.2503 78.9225 38.7256 78.9225 38.0712V37.9495C78.9225 37.5114 79.0063 37.1206 79.174 36.7772C79.3444 36.431 79.5824 36.1619 79.8879 35.9699C80.1935 35.7779 80.5343 35.6819 80.9102 35.6819C81.5078 35.6819 81.9689 35.8726 82.2934 36.2539C82.6207 36.6352 82.7843 37.1747 82.7843 37.8724V38.2699H79.9163C79.9461 38.6323 80.0664 38.919 80.2774 39.1299C80.491 39.3409 80.7587 39.4463 81.0805 39.4463C81.5322 39.4463 81.9 39.2638 82.1839 38.8987L82.7153 39.4058C82.5395 39.6681 82.3043 39.8723 82.0095 40.0183C81.7174 40.1616 81.3888 40.2333 81.0238 40.2333ZM80.9061 36.4729C80.6357 36.4729 80.4166 36.5676 80.249 36.7569C80.084 36.9462 79.9785 37.2099 79.9326 37.5479H81.8107V37.4749C81.7891 37.1449 81.7012 36.8962 81.547 36.7285C81.3929 36.5581 81.1793 36.4729 80.9061 36.4729Z" fill="black" fill-opacity="0.7"/>
</g>
<path fill-rule="evenodd" clip-rule="evenodd" d="M148.615 15.0001C148.615 14.7452 148.409 14.5385 148.154 14.5385H144.462C144.207 14.5385 144 14.7452 144 15.0001V18.6924C144 18.9473 144.207 19.1539 144.462 19.1539H148.154C148.409 19.1539 148.615 18.9473 148.615 18.6924V15.0001ZM152.307 16.8462C152.307 15.5717 153.341 14.5385 154.615 14.5385C155.89 14.5385 156.923 15.5717 156.923 16.8462C156.923 18.1207 155.89 19.1539 154.615 19.1539C153.341 19.1539 152.307 18.1207 152.307 16.8462ZM162.066 18.4943C162.245 18.7931 162.678 18.7931 162.857 18.4943L164.811 15.2376C164.996 14.9299 164.774 14.5386 164.415 14.5386H160.507C160.149 14.5386 159.927 14.9299 160.112 15.2376L162.066 18.4943Z" fill="black" fill-opacity="0.5"/>
<path fill-rule="evenodd" clip-rule="evenodd" d="M30.231 16.8462C30.231 16.209 30.7476 15.6924 31.3848 15.6924H40.6156C41.2528 15.6924 41.7694 16.209 41.7694 16.8462C41.7694 17.4835 41.2528 18.0001 40.6156 18.0001H31.3848C30.7476 18.0001 30.231 17.4835 30.231 16.8462Z" fill="black" fill-opacity="0.5"/>
<g clip-path="url(#clip4)">
<path fill-rule="evenodd" clip-rule="evenodd" d="M36.4617 62.7694C36.4617 61.8772 37.1849 61.154 38.0771 61.154H90.2309C91.1231 61.154 91.8463 61.8772 91.8463 62.7694C91.8463 63.6615 91.1231 64.3848 90.2309 64.3848H38.0771C37.1849 64.3848 36.4617 63.6615 36.4617 62.7694Z" fill="black" fill-opacity="0.5"/>
<path fill-rule="evenodd" clip-rule="evenodd" d="M36.4617 71.3078C36.4617 70.6706 36.9783 70.154 37.6155 70.154H76.154C76.7912 70.154 77.3078 70.6706 77.3078 71.3078C77.3078 71.9451 76.7912 72.4617 76.154 72.4617H37.6155C36.9783 72.4617 36.4617 71.9451 36.4617 71.3078Z" fill="black" fill-opacity="0.5"/>
</g>
<g clip-path="url(#clip5)">
<path fill-rule="evenodd" clip-rule="evenodd" d="M36.4617 93.4617C36.4617 92.5695 37.1849 91.8463 38.0771 91.8463H47.3078C48.2 91.8463 48.9232 92.5695 48.9232 93.4617C48.9232 94.3539 48.2 95.0771 47.3078 95.0771H38.0771C37.1849 95.0771 36.4617 94.3539 36.4617 93.4617Z" fill="black" fill-opacity="0.5"/>
<path fill-rule="evenodd" clip-rule="evenodd" d="M36.4617 102C36.4617 101.363 36.9783 100.846 37.6155 100.846H76.154C76.7912 100.846 77.3078 101.363 77.3078 102C77.3078 102.637 76.7912 103.154 76.154 103.154H37.6155C36.9783 103.154 36.4617 102.637 36.4617 102Z" fill="black" fill-opacity="0.5"/>
</g>
<g clip-path="url(#clip6)">
<path fill-rule="evenodd" clip-rule="evenodd" d="M36.4617 124.154C36.4617 123.262 37.1849 122.539 38.0771 122.539H82.154C83.0461 122.539 83.7694 123.262 83.7694 124.154C83.7694 125.046 83.0461 125.769 82.154 125.769H38.0771C37.1849 125.769 36.4617 125.046 36.4617 124.154Z" fill="black" fill-opacity="0.5"/>
<path fill-rule="evenodd" clip-rule="evenodd" d="M36.4617 132.692C36.4617 132.055 36.9783 131.539 37.6155 131.539H41.5386C42.1758 131.539 42.6924 132.055 42.6924 132.692C42.6924 133.33 42.1758 133.846 41.5386 133.846H37.6155C36.9783 133.846 36.4617 133.33 36.4617 132.692Z" fill="black" fill-opacity="0.5"/>
</g>
<line opacity="0.2" x1="6.9231" y1="144.231" x2="173.077" y2="144.231" stroke="black" stroke-width="0.461538"/>
<g clip-path="url(#clip7)">
<path fill-rule="evenodd" clip-rule="evenodd" d="M36.4617 156C36.4617 155.108 37.1849 154.385 38.0771 154.385H65.5386C66.4307 154.385 67.154 155.108 67.154 156C67.154 156.892 66.4307 157.616 65.5386 157.616H38.0771C37.1849 157.616 36.4617 156.892 36.4617 156Z" fill="black" fill-opacity="0.5"/>
<path fill-rule="evenodd" clip-rule="evenodd" d="M36.4617 164.539C36.4617 163.901 36.9783 163.385 37.6155 163.385H105.462C106.099 163.385 106.616 163.901 106.616 164.539C106.616 165.176 106.099 165.692 105.462 165.692H37.6155C36.9783 165.692 36.4617 165.176 36.4617 164.539Z" fill="black" fill-opacity="0.5"/>
<path fill-rule="evenodd" clip-rule="evenodd" d="M36.4617 172.616C36.4617 171.978 36.9783 171.462 37.6155 171.462H71.5386C72.1758 171.462 72.6924 171.978 72.6924 172.616C72.6924 173.253 72.1758 173.769 71.5386 173.769H37.6155C36.9783 173.769 36.4617 173.253 36.4617 172.616Z" fill="black" fill-opacity="0.5"/>
</g>
<g clip-path="url(#clip8)">
<path fill-rule="evenodd" clip-rule="evenodd" d="M36.4617 194.769C36.4617 193.877 37.1849 193.154 38.0771 193.154H90.2309C91.1231 193.154 91.8463 193.877 91.8463 194.769C91.8463 195.661 91.1231 196.385 90.2309 196.385H38.0771C37.1849 196.385 36.4617 195.661 36.4617 194.769Z" fill="black" fill-opacity="0.5"/>
<path fill-rule="evenodd" clip-rule="evenodd" d="M36.4617 203.308C36.4617 202.671 36.9783 202.154 37.6155 202.154H117.692C118.33 202.154 118.846 202.671 118.846 203.308C118.846 203.945 118.33 204.462 117.692 204.462H37.6155C36.9783 204.462 36.4617 203.945 36.4617 203.308Z" fill="black" fill-opacity="0.5"/>
</g>
<g clip-path="url(#clip9)">
<path fill-rule="evenodd" clip-rule="evenodd" d="M36.4617 225.462C36.4617 224.569 37.1849 223.846 38.0771 223.846H115.616C116.508 223.846 117.231 224.569 117.231 225.462C117.231 226.354 116.508 227.077 115.616 227.077H38.0771C37.1849 227.077 36.4617 226.354 36.4617 225.462Z" fill="black" fill-opacity="0.5"/>
<path fill-rule="evenodd" clip-rule="evenodd" d="M36.4617 234C36.4617 233.363 36.9783 232.846 37.6155 232.846H76.154C76.7912 232.846 77.3078 233.363 77.3078 234C77.3078 234.637 76.7912 235.154 76.154 235.154H37.6155C36.9783 235.154 36.4617 234.637 36.4617 234Z" fill="black" fill-opacity="0.5"/>
</g>
<g clip-path="url(#clip10)">
<path fill-rule="evenodd" clip-rule="evenodd" d="M36.4617 256.154C36.4617 255.262 37.1849 254.539 38.0771 254.539H90.2309C91.1231 254.539 91.8463 255.262 91.8463 256.154C91.8463 257.046 91.1231 257.769 90.2309 257.769H38.0771C37.1849 257.769 36.4617 257.046 36.4617 256.154Z" fill="black" fill-opacity="0.5"/>
<path fill-rule="evenodd" clip-rule="evenodd" d="M36.4617 264.692C36.4617 264.055 36.9783 263.539 37.6155 263.539H76.154C76.7912 263.539 77.3078 264.055 77.3078 264.692C77.3078 265.33 76.7912 265.846 76.154 265.846H37.6155C36.9783 265.846 36.4617 265.33 36.4617 264.692Z" fill="black" fill-opacity="0.5"/>
</g>
<g clip-path="url(#clip11)">
<path fill-rule="evenodd" clip-rule="evenodd" d="M36.4617 286.846C36.4617 285.954 37.1849 285.231 38.0771 285.231H58.154C59.0461 285.231 59.7694 285.954 59.7694 286.846C59.7694 287.738 59.0461 288.462 58.154 288.462H38.0771C37.1849 288.462 36.4617 287.738 36.4617 286.846Z" fill="black" fill-opacity="0.5"/>
<path fill-rule="evenodd" clip-rule="evenodd" d="M36.4617 295.385C36.4617 294.747 36.9783 294.231 37.6155 294.231H49.8463C50.4835 294.231 51.0001 294.747 51.0001 295.385C51.0001 296.022 50.4835 296.539 49.8463 296.539H37.6155C36.9783 296.539 36.4617 296.022 36.4617 295.385Z" fill="black" fill-opacity="0.5"/>
</g>
<g clip-path="url(#clip12)">
<path fill-rule="evenodd" clip-rule="evenodd" d="M36.4617 317.539C36.4617 316.646 37.1849 315.923 38.0771 315.923H134.077C134.969 315.923 135.692 316.646 135.692 317.539C135.692 318.431 134.969 319.154 134.077 319.154H38.0771C37.1849 319.154 36.4617 318.431 36.4617 317.539Z" fill="black" fill-opacity="0.5"/>
</g>
<line opacity="0.2" x1="6.9231" y1="329.539" x2="173.077" y2="329.539" stroke="black" stroke-width="0.461538"/>
<path d="M36.5713 345.692V340.771H38.1804C38.7145 340.771 39.1156 340.881 39.3838 341.102C39.6542 341.323 39.7894 341.649 39.7894 342.082C39.7894 342.312 39.7241 342.516 39.5934 342.694C39.4627 342.87 39.2846 343.006 39.0593 343.103C39.3252 343.177 39.5348 343.319 39.688 343.529C39.8435 343.736 39.9213 343.984 39.9213 344.273C39.9213 344.714 39.7782 345.061 39.492 345.314C39.2058 345.566 38.8012 345.692 38.2784 345.692H36.5713ZM37.2203 343.39V345.162H38.2919C38.5939 345.162 38.8317 345.084 39.0052 344.928C39.181 344.771 39.2689 344.554 39.2689 344.279C39.2689 343.687 38.9466 343.39 38.3021 343.39H37.2203ZM37.2203 342.87H38.2006C38.4846 342.87 38.7111 342.799 38.8801 342.657C39.0514 342.515 39.137 342.322 39.137 342.079C39.137 341.808 39.0581 341.612 38.9004 341.491C38.7426 341.367 38.5026 341.305 38.1804 341.305H37.2203V342.87ZM43.0448 345.331C42.8014 345.617 42.4442 345.76 41.9732 345.76C41.5833 345.76 41.2858 345.647 41.0808 345.422C40.8779 345.194 40.7754 344.859 40.7731 344.415V342.035H41.3985V344.398C41.3985 344.952 41.6239 345.229 42.0746 345.229C42.5524 345.229 42.8701 345.051 43.0279 344.695V342.035H43.6532V345.692H43.0583L43.0448 345.331ZM45.286 345.692H44.6606V342.035H45.286V345.692ZM44.6099 341.065C44.6099 340.963 44.6403 340.878 44.7012 340.808C44.7643 340.738 44.8567 340.703 44.9784 340.703C45.1001 340.703 45.1925 340.738 45.2556 340.808C45.3187 340.878 45.3502 340.963 45.3502 341.065C45.3502 341.166 45.3187 341.251 45.2556 341.318C45.1925 341.386 45.1001 341.42 44.9784 341.42C44.8567 341.42 44.7643 341.386 44.7012 341.318C44.6403 341.251 44.6099 341.166 44.6099 341.065ZM46.9694 345.692H46.3441V340.5H46.9694V345.692ZM47.8213 343.833C47.8213 343.272 47.9543 342.821 48.2202 342.481C48.4861 342.138 48.8343 341.967 49.2647 341.967C49.6929 341.967 50.0321 342.114 50.2822 342.407V340.5H50.9076V345.692H50.3329L50.3025 345.3C50.0524 345.607 49.7042 345.76 49.258 345.76C48.8343 345.76 48.4884 345.586 48.2202 345.239C47.9543 344.892 47.8213 344.439 47.8213 343.88V343.833ZM48.4467 343.904C48.4467 344.319 48.5323 344.643 48.7036 344.878C48.8749 345.112 49.1115 345.229 49.4135 345.229C49.8101 345.229 50.0997 345.051 50.2822 344.695V343.015C50.0952 342.67 49.8078 342.498 49.4202 342.498C49.1137 342.498 48.8749 342.616 48.7036 342.853C48.5323 343.089 48.4467 343.44 48.4467 343.904ZM54.19 342.035L54.2103 342.495C54.4897 342.143 54.8548 341.967 55.3055 341.967C56.0785 341.967 56.4684 342.403 56.4751 343.275V345.692H55.8498V343.272C55.8475 343.008 55.7867 342.813 55.6672 342.687C55.55 342.561 55.3664 342.498 55.1162 342.498C54.9134 342.498 54.7354 342.552 54.5821 342.66C54.4289 342.768 54.3094 342.91 54.2238 343.086V345.692H53.5984V342.035H54.19ZM59.6764 345.331C59.433 345.617 59.0758 345.76 58.6048 345.76C58.2149 345.76 57.9174 345.647 57.7124 345.422C57.5095 345.194 57.407 344.859 57.4047 344.415V342.035H58.0301V344.398C58.0301 344.952 58.2555 345.229 58.7062 345.229C59.184 345.229 59.5017 345.051 59.6595 344.695V342.035H60.2849V345.692H59.6899L59.6764 345.331ZM61.8263 342.035L61.8432 342.44C62.1114 342.125 62.4731 341.967 62.9283 341.967C63.4399 341.967 63.7881 342.163 63.9729 342.555C64.0946 342.38 64.2523 342.238 64.4461 342.129C64.6422 342.021 64.8732 341.967 65.1391 341.967C65.9414 341.967 66.3493 342.392 66.3628 343.242V345.692H65.7375V343.279C65.7375 343.017 65.6777 342.822 65.5583 342.694C65.4389 342.563 65.2383 342.498 64.9566 342.498C64.7245 342.498 64.5318 342.568 64.3785 342.707C64.2253 342.845 64.1363 343.031 64.1115 343.265V345.692H63.4827V343.296C63.4827 342.764 63.2224 342.498 62.7018 342.498C62.2917 342.498 62.0111 342.673 61.8601 343.022V345.692H61.2348V342.035H61.8263ZM70.4058 343.904C70.4058 344.463 70.2773 344.913 70.0204 345.253C69.7635 345.591 69.4187 345.76 68.986 345.76C68.524 345.76 68.1668 345.597 67.9144 345.27L67.884 345.692H67.3093V340.5H67.9347V342.437C68.1871 342.124 68.5353 341.967 68.9793 341.967C69.4232 341.967 69.7714 342.135 70.0238 342.471C70.2785 342.807 70.4058 343.266 70.4058 343.85V343.904ZM69.7804 343.833C69.7804 343.407 69.6982 343.078 69.5337 342.846C69.3691 342.614 69.1325 342.498 68.8238 342.498C68.4114 342.498 68.115 342.689 67.9347 343.073V344.655C68.1263 345.038 68.4249 345.229 68.8305 345.229C69.1303 345.229 69.3635 345.113 69.5303 344.881C69.697 344.649 69.7804 344.3 69.7804 343.833ZM72.7146 345.76C72.2188 345.76 71.8154 345.598 71.5044 345.273C71.1934 344.946 71.0379 344.51 71.0379 343.965V343.85C71.0379 343.487 71.1067 343.164 71.2441 342.88C71.3839 342.594 71.5777 342.371 71.8256 342.211C72.0757 342.048 72.3462 341.967 72.6369 341.967C73.1124 341.967 73.482 342.124 73.7456 342.437C74.0093 342.75 74.1412 343.199 74.1412 343.782V344.043H71.6633C71.6723 344.403 71.7771 344.695 71.9777 344.918C72.1805 345.139 72.4374 345.25 72.7484 345.25C72.9693 345.25 73.1563 345.204 73.3096 345.114C73.4628 345.024 73.5969 344.905 73.7118 344.756L74.0938 345.053C73.7873 345.524 73.3276 345.76 72.7146 345.76ZM72.6369 342.481C72.3845 342.481 72.1726 342.573 72.0014 342.758C71.8301 342.941 71.7242 343.198 71.6836 343.529H73.5158V343.482C73.4977 343.164 73.4121 342.918 73.2589 342.745C73.1056 342.569 72.8983 342.481 72.6369 342.481ZM76.6359 342.596C76.5412 342.58 76.4387 342.572 76.3283 342.572C75.9181 342.572 75.6398 342.747 75.4933 343.096V345.692H74.8679V342.035H75.4764L75.4866 342.457C75.6916 342.131 75.9823 341.967 76.3587 341.967C76.4804 341.967 76.5728 341.983 76.6359 342.014V342.596Z" fill="black" fill-opacity="0.8"/>
<path d="M37.8867 352.292L38.9092 350.658H39.5713L38.2236 352.773L39.6035 354.923H38.9355L37.8867 353.259L36.832 354.923H36.167L37.5498 352.773L36.1992 350.658H36.8584L37.8867 352.292ZM41.6484 352.292L42.6709 350.658H43.333L41.9854 352.773L43.3652 354.923H42.6973L41.6484 353.259L40.5938 354.923H39.9287L41.3115 352.773L39.9609 350.658H40.6201L41.6484 352.292ZM46.5527 353.104C46.5527 353.739 46.4443 354.21 46.2275 354.519C46.0107 354.827 45.6719 354.982 45.2109 354.982C44.7559 354.982 44.4189 354.831 44.2002 354.531C43.9814 354.228 43.8682 353.777 43.8604 353.177V352.453C43.8604 351.826 43.9688 351.361 44.1855 351.056C44.4023 350.751 44.7422 350.599 45.2051 350.599C45.6641 350.599 46.002 350.746 46.2188 351.041C46.4355 351.334 46.5469 351.787 46.5527 352.401V353.104ZM46.0107 352.363C46.0107 351.904 45.9463 351.57 45.8174 351.361C45.6885 351.15 45.4844 351.044 45.2051 351.044C44.9277 351.044 44.7256 351.149 44.5986 351.358C44.4717 351.567 44.4062 351.888 44.4023 352.322V353.189C44.4023 353.65 44.4688 353.991 44.6016 354.211C44.7363 354.43 44.9395 354.539 45.2109 354.539C45.4785 354.539 45.6768 354.436 45.8057 354.229C45.9365 354.022 46.0049 353.696 46.0107 353.25V352.363ZM48.7793 352.292L49.8018 350.658H50.4639L49.1162 352.773L50.4961 354.923H49.8281L48.7793 353.259L47.7246 354.923H47.0596L48.4424 352.773L47.0918 350.658H47.751L48.7793 352.292ZM51.0762 354.639C51.0762 354.545 51.1035 354.467 51.1582 354.405C51.2148 354.342 51.2988 354.311 51.4102 354.311C51.5215 354.311 51.6055 354.342 51.6621 354.405C51.7207 354.467 51.75 354.545 51.75 354.639C51.75 354.729 51.7207 354.804 51.6621 354.865C51.6055 354.925 51.5215 354.955 51.4102 354.955C51.2988 354.955 51.2148 354.925 51.1582 354.865C51.1035 354.804 51.0762 354.729 51.0762 354.639ZM55.2656 353.104C55.2656 353.739 55.1572 354.21 54.9404 354.519C54.7236 354.827 54.3848 354.982 53.9238 354.982C53.4688 354.982 53.1318 354.831 52.9131 354.531C52.6943 354.228 52.5811 353.777 52.5732 353.177V352.453C52.5732 351.826 52.6816 351.361 52.8984 351.056C53.1152 350.751 53.4551 350.599 53.918 350.599C54.377 350.599 54.7148 350.746 54.9316 351.041C55.1484 351.334 55.2598 351.787 55.2656 352.401V353.104ZM54.7236 352.363C54.7236 351.904 54.6592 351.57 54.5303 351.361C54.4014 351.15 54.1973 351.044 53.918 351.044C53.6406 351.044 53.4385 351.149 53.3115 351.358C53.1846 351.567 53.1191 351.888 53.1152 352.322V353.189C53.1152 353.65 53.1816 353.991 53.3145 354.211C53.4492 354.43 53.6523 354.539 53.9238 354.539C54.1914 354.539 54.3896 354.436 54.5186 354.229C54.6494 354.022 54.7178 353.696 54.7236 353.25V352.363ZM58.6348 353.104C58.6348 353.739 58.5264 354.21 58.3096 354.519C58.0928 354.827 57.7539 354.982 57.293 354.982C56.8379 354.982 56.501 354.831 56.2822 354.531C56.0635 354.228 55.9502 353.777 55.9424 353.177V352.453C55.9424 351.826 56.0508 351.361 56.2676 351.056C56.4844 350.751 56.8242 350.599 57.2871 350.599C57.7461 350.599 58.084 350.746 58.3008 351.041C58.5176 351.334 58.6289 351.787 58.6348 352.401V353.104ZM58.0928 352.363C58.0928 351.904 58.0283 351.57 57.8994 351.361C57.7705 351.15 57.5664 351.044 57.2871 351.044C57.0098 351.044 56.8076 351.149 56.6807 351.358C56.5537 351.567 56.4883 351.888 56.4844 352.322V353.189C56.4844 353.65 56.5508 353.991 56.6836 354.211C56.8184 354.43 57.0215 354.539 57.293 354.539C57.5605 354.539 57.7588 354.436 57.8877 354.229C58.0186 354.022 58.0869 353.696 58.0928 353.25V352.363ZM62.0039 353.104C62.0039 353.739 61.8955 354.21 61.6787 354.519C61.4619 354.827 61.123 354.982 60.6621 354.982C60.207 354.982 59.8701 354.831 59.6514 354.531C59.4326 354.228 59.3193 353.777 59.3115 353.177V352.453C59.3115 351.826 59.4199 351.361 59.6367 351.056C59.8535 350.751 60.1934 350.599 60.6562 350.599C61.1152 350.599 61.4531 350.746 61.6699 351.041C61.8867 351.334 61.998 351.787 62.0039 352.401V353.104ZM61.4619 352.363C61.4619 351.904 61.3975 351.57 61.2686 351.361C61.1396 351.15 60.9355 351.044 60.6562 351.044C60.3789 351.044 60.1768 351.149 60.0498 351.358C59.9229 351.567 59.8574 351.888 59.8535 352.322V353.189C59.8535 353.65 59.9199 353.991 60.0527 354.211C60.1875 354.43 60.3906 354.539 60.6621 354.539C60.9297 354.539 61.1279 354.436 61.2568 354.229C61.3877 354.022 61.4561 353.696 61.4619 353.25V352.363ZM65.373 353.104C65.373 353.739 65.2646 354.21 65.0479 354.519C64.8311 354.827 64.4922 354.982 64.0312 354.982C63.5762 354.982 63.2393 354.831 63.0205 354.531C62.8018 354.228 62.6885 353.777 62.6807 353.177V352.453C62.6807 351.826 62.7891 351.361 63.0059 351.056C63.2227 350.751 63.5625 350.599 64.0254 350.599C64.4844 350.599 64.8223 350.746 65.0391 351.041C65.2559 351.334 65.3672 351.787 65.373 352.401V353.104ZM64.8311 352.363C64.8311 351.904 64.7666 351.57 64.6377 351.361C64.5088 351.15 64.3047 351.044 64.0254 351.044C63.748 351.044 63.5459 351.149 63.4189 351.358C63.292 351.567 63.2266 351.888 63.2227 352.322V353.189C63.2227 353.65 63.2891 353.991 63.4219 354.211C63.5566 354.43 63.7598 354.539 64.0312 354.539C64.2988 354.539 64.4971 354.436 64.626 354.229C64.7568 354.022 64.8252 353.696 64.8311 353.25V352.363ZM68.7422 353.104C68.7422 353.739 68.6338 354.21 68.417 354.519C68.2002 354.827 67.8613 354.982 67.4004 354.982C66.9453 354.982 66.6084 354.831 66.3896 354.531C66.1709 354.228 66.0576 353.777 66.0498 353.177V352.453C66.0498 351.826 66.1582 351.361 66.375 351.056C66.5918 350.751 66.9316 350.599 67.3945 350.599C67.8535 350.599 68.1914 350.746 68.4082 351.041C68.625 351.334 68.7363 351.787 68.7422 352.401V353.104ZM68.2002 352.363C68.2002 351.904 68.1357 351.57 68.0068 351.361C67.8779 351.15 67.6738 351.044 67.3945 351.044C67.1172 351.044 66.915 351.149 66.7881 351.358C66.6611 351.567 66.5957 351.888 66.5918 352.322V353.189C66.5918 353.65 66.6582 353.991 66.791 354.211C66.9258 354.43 67.1289 354.539 67.4004 354.539C67.668 354.539 67.8662 354.436 67.9951 354.229C68.126 354.022 68.1943 353.696 68.2002 353.25V352.363ZM72.1113 353.104C72.1113 353.739 72.0029 354.21 71.7861 354.519C71.5693 354.827 71.2305 354.982 70.7695 354.982C70.3145 354.982 69.9775 354.831 69.7588 354.531C69.54 354.228 69.4268 353.777 69.4189 353.177V352.453C69.4189 351.826 69.5273 351.361 69.7441 351.056C69.9609 350.751 70.3008 350.599 70.7637 350.599C71.2227 350.599 71.5605 350.746 71.7773 351.041C71.9941 351.334 72.1055 351.787 72.1113 352.401V353.104ZM71.5693 352.363C71.5693 351.904 71.5049 351.57 71.376 351.361C71.2471 351.15 71.043 351.044 70.7637 351.044C70.4863 351.044 70.2842 351.149 70.1572 351.358C70.0303 351.567 69.9648 351.888 69.9609 352.322V353.189C69.9609 353.65 70.0273 353.991 70.1602 354.211C70.2949 354.43 70.498 354.539 70.7695 354.539C71.0371 354.539 71.2354 354.436 71.3643 354.229C71.4951 354.022 71.5635 353.696 71.5693 353.25V352.363ZM72.873 354.639C72.873 354.545 72.9004 354.467 72.9551 354.405C73.0117 354.342 73.0957 354.311 73.207 354.311C73.3184 354.311 73.4023 354.342 73.459 354.405C73.5176 354.467 73.5469 354.545 73.5469 354.639C73.5469 354.729 73.5176 354.804 73.459 354.865C73.4023 354.925 73.3184 354.955 73.207 354.955C73.0957 354.955 73.0117 354.925 72.9551 354.865C72.9004 354.804 72.873 354.729 72.873 354.639ZM77.0625 353.104C77.0625 353.739 76.9541 354.21 76.7373 354.519C76.5205 354.827 76.1816 354.982 75.7207 354.982C75.2656 354.982 74.9287 354.831 74.71 354.531C74.4912 354.228 74.3779 353.777 74.3701 353.177V352.453C74.3701 351.826 74.4785 351.361 74.6953 351.056C74.9121 350.751 75.252 350.599 75.7148 350.599C76.1738 350.599 76.5117 350.746 76.7285 351.041C76.9453 351.334 77.0566 351.787 77.0625 352.401V353.104ZM76.5205 352.363C76.5205 351.904 76.4561 351.57 76.3271 351.361C76.1982 351.15 75.9941 351.044 75.7148 351.044C75.4375 351.044 75.2354 351.149 75.1084 351.358C74.9814 351.567 74.916 351.888 74.9121 352.322V353.189C74.9121 353.65 74.9785 353.991 75.1113 354.211C75.2461 354.43 75.4492 354.539 75.7207 354.539C75.9883 354.539 76.1865 354.436 76.3154 354.229C76.4463 354.022 76.5146 353.696 76.5205 353.25V352.363ZM80.4316 353.104C80.4316 353.739 80.3232 354.21 80.1064 354.519C79.8896 354.827 79.5508 354.982 79.0898 354.982C78.6348 354.982 78.2979 354.831 78.0791 354.531C77.8604 354.228 77.7471 353.777 77.7393 353.177V352.453C77.7393 351.826 77.8477 351.361 78.0645 351.056C78.2812 350.751 78.6211 350.599 79.084 350.599C79.543 350.599 79.8809 350.746 80.0977 351.041C80.3145 351.334 80.4258 351.787 80.4316 352.401V353.104ZM79.8896 352.363C79.8896 351.904 79.8252 351.57 79.6963 351.361C79.5674 351.15 79.3633 351.044 79.084 351.044C78.8066 351.044 78.6045 351.149 78.4775 351.358C78.3506 351.567 78.2852 351.888 78.2812 352.322V353.189C78.2812 353.65 78.3477 353.991 78.4805 354.211C78.6152 354.43 78.8184 354.539 79.0898 354.539C79.3574 354.539 79.5557 354.436 79.6846 354.229C79.8154 354.022 79.8838 353.696 79.8896 353.25V352.363ZM83.8008 353.104C83.8008 353.739 83.6924 354.21 83.4756 354.519C83.2588 354.827 82.9199 354.982 82.459 354.982C82.0039 354.982 81.667 354.831 81.4482 354.531C81.2295 354.228 81.1162 353.777 81.1084 353.177V352.453C81.1084 351.826 81.2168 351.361 81.4336 351.056C81.6504 350.751 81.9902 350.599 82.4531 350.599C82.9121 350.599 83.25 350.746 83.4668 351.041C83.6836 351.334 83.7949 351.787 83.8008 352.401V353.104ZM83.2588 352.363C83.2588 351.904 83.1943 351.57 83.0654 351.361C82.9365 351.15 82.7324 351.044 82.4531 351.044C82.1758 351.044 81.9736 351.149 81.8467 351.358C81.7197 351.567 81.6543 351.888 81.6504 352.322V353.189C81.6504 353.65 81.7168 353.991 81.8496 354.211C81.9844 354.43 82.1875 354.539 82.459 354.539C82.7266 354.539 82.9248 354.436 83.0537 354.229C83.1846 354.022 83.2529 353.696 83.2588 353.25V352.363Z" fill="black" fill-opacity="0.8"/>
<circle cx="56.5" cy="347.192" r="10.5" fill="#FF00E5" fill-opacity="0.5"/>
<path fill-rule="evenodd" clip-rule="evenodd" d="M73.6155 363C73.6155 362.618 73.9254 362.308 74.3078 362.308H103.846C104.229 362.308 104.539 362.618 104.539 363C104.539 363.382 104.229 363.692 103.846 363.692H74.3078C73.9254 363.692 73.6155 363.382 73.6155 363Z" fill="black" fill-opacity="0.5"/>
</g>
</g>
<defs>
<filter id="filter0_d" x="1.38463" y="1.84611" width="177.231" height="371.077" filterUnits="userSpaceOnUse" color-interpolation-filters="sRGB">
<feFlood flood-opacity="0" result="BackgroundImageFix"/>
<feColorMatrix in="SourceAlpha" type="matrix" values="0 0 0 0 0 0 0 0 0 0 0 0 0 0 0 0 0 0 127 0"/>
<feOffset dy="0.461538"/>
<feGaussianBlur stdDeviation="2.76923"/>
<feColorMatrix type="matrix" values="0 0 0 0 0 0 0 0 0 0 0 0 0 0 0 0 0 0 0.15 0"/>
<feBlend mode="normal" in2="BackgroundImageFix" result="effect1_dropShadow"/>
<feBlend mode="normal" in="SourceGraphic" in2="effect1_dropShadow" result="shape"/>
</filter>
<filter id="filter1_d" x="5.07694" y="5.99996" width="169.846" height="45.2308" filterUnits="userSpaceOnUse" color-interpolation-filters="sRGB">
<feFlood flood-opacity="0" result="BackgroundImageFix"/>
<feColorMatrix in="SourceAlpha" type="matrix" values="0 0 0 0 0 0 0 0 0 0 0 0 0 0 0 0 0 0 127 0"/>
<feOffset dy="0.923077"/>
<feGaussianBlur stdDeviation="0.923077"/>
<feColorMatrix type="matrix" values="0 0 0 0 0 0 0 0 0 0 0 0 0 0 0 0 0 0 0.1 0"/>
<feBlend mode="normal" in2="BackgroundImageFix" result="effect1_dropShadow"/>
<feBlend mode="normal" in="SourceGraphic" in2="effect1_dropShadow" result="shape"/>
</filter>
<clipPath id="clip0">
<rect x="6.9231" y="6.92303" width="166.154" height="360" rx="19.3846" fill="white"/>
</clipPath>
<clipPath id="clip1">
<rect width="31.6154" height="11.0769" fill="white" transform="translate(136.385 31.3847)"/>
</clipPath>
<clipPath id="clip2">
<rect width="11.0769" height="11.0769" fill="white" transform="translate(156.923 31.3847)"/>
</clipPath>
<clipPath id="clip3">
<rect width="71.0769" height="10.6154" fill="white" transform="translate(11.9998 31.6907)"/>
</clipPath>
<clipPath id="clip4">
<rect width="55.3846" height="11.3077" fill="white" transform="translate(36.4617 61.154)"/>
</clipPath>
<clipPath id="clip5">
<rect width="40.8462" height="11.3077" fill="white" transform="translate(36.4617 91.8463)"/>
</clipPath>
<clipPath id="clip6">
<rect width="47.3077" height="11.3077" fill="white" transform="translate(36.4617 122.539)"/>
</clipPath>
<clipPath id="clip7">
<rect width="70.1538" height="19.3846" fill="white" transform="translate(36.4617 154.385)"/>
</clipPath>
<clipPath id="clip8">
<rect width="82.3846" height="11.3077" fill="white" transform="translate(36.4617 193.154)"/>
</clipPath>
<clipPath id="clip9">
<rect width="80.7692" height="11.3077" fill="white" transform="translate(36.4617 223.846)"/>
</clipPath>
<clipPath id="clip10">
<rect width="55.3846" height="11.3077" fill="white" transform="translate(36.4617 254.539)"/>
</clipPath>
<clipPath id="clip11">
<rect width="23.3077" height="11.3077" fill="white" transform="translate(36.4617 285.231)"/>
</clipPath>
<clipPath id="clip12">
<rect width="99.2308" height="3.23077" fill="white" transform="translate(36.4617 315.923)"/>
</clipPath>
</defs>
</svg>
