<svg width="180" height="381" viewBox="0 0 180 381" fill="none" xmlns="http://www.w3.org/2000/svg">
<rect width="180" height="380.769" rx="24.1259" fill="#111111"/>
<g filter="url(#filter0_d)">
<g clip-path="url(#clip0)">
<rect x="6.92285" y="6.92303" width="166.154" height="360" rx="19.3846" fill="white"/>
<g filter="url(#filter1_d)">
<rect x="6.92285" y="6.92303" width="166.154" height="41.5385" fill="white"/>
</g>
<g opacity="0.5" clip-path="url(#clip1)">
<path fill-rule="evenodd" clip-rule="evenodd" d="M164.078 37.8461H163.711L163.584 37.7196C164.034 37.1948 164.308 36.5145 164.308 35.7692C164.308 34.1122 162.965 32.7692 161.308 32.7692C159.651 32.7692 158.308 34.1122 158.308 35.7692C158.308 37.4261 159.651 38.7692 161.308 38.7692C162.053 38.7692 162.733 38.4959 163.258 38.0464L163.385 38.1728V38.5384L165.692 40.8419L166.38 40.1538L164.078 37.8461V37.8461ZM161.308 37.8462C160.16 37.8462 159.231 36.9166 159.231 35.7693C159.231 34.6223 160.16 33.6923 161.308 33.6923C162.455 33.6923 163.385 34.6223 163.385 35.7693C163.385 36.9166 162.455 37.8462 161.308 37.8462V37.8462Z" fill="black"/>
</g>
<g clip-path="url(#clip2)">
<path d="M20.846 36.5559H15.4631L17.9356 34.0834L17.3075 33.4598L13.769 36.9982L17.3075 40.5367L17.9312 39.913L15.4631 37.4405H20.846V36.5559Z" fill="black" fill-opacity="0.7"/>
<path d="M36.1389 40.152V34.2458H37.8832C38.4052 34.2458 38.8676 34.3621 39.2705 34.5946C39.6762 34.8272 39.9899 35.1571 40.2117 35.5844C40.4334 36.0117 40.5443 36.5012 40.5443 37.0529V37.349C40.5443 37.9088 40.4321 38.401 40.2076 38.8256C39.9858 39.2501 39.6681 39.5774 39.2543 39.8072C38.8433 40.0371 38.3714 40.152 37.8386 40.152H36.1389ZM37.1652 35.0733V39.3326H37.8345C38.3727 39.3326 38.7851 39.165 39.0718 38.8296C39.3611 38.4916 39.5085 38.0075 39.5139 37.3774V37.0488C39.5139 36.4079 39.3747 35.9184 39.0961 35.5804C38.8176 35.2423 38.4133 35.0733 37.8832 35.0733H37.1652ZM43.4041 40.2332C42.7794 40.2332 42.2723 40.0371 41.8829 39.645C41.4962 39.2501 41.3028 38.7255 41.3028 38.0711V37.9494C41.3028 37.5113 41.3867 37.1205 41.5543 36.777C41.7247 36.4309 41.9627 36.1618 42.2683 35.9698C42.5739 35.7778 42.9146 35.6818 43.2905 35.6818C43.8882 35.6818 44.3493 35.8724 44.6738 36.2538C45.001 36.6351 45.1646 37.1746 45.1646 37.8723V38.2698H42.2967C42.3264 38.6322 42.4468 38.9189 42.6577 39.1298C42.8714 39.3407 43.1391 39.4462 43.4609 39.4462C43.9125 39.4462 44.2803 39.2637 44.5643 38.8986L45.0957 39.4056C44.9199 39.668 44.6846 39.8721 44.3898 40.0182C44.0978 40.1615 43.7692 40.2332 43.4041 40.2332ZM43.2865 36.4728C43.016 36.4728 42.797 36.5675 42.6293 36.7568C42.4644 36.9461 42.3589 37.2097 42.3129 37.5478H44.1911V37.4748C44.1694 37.1448 44.0815 36.896 43.9274 36.7284C43.7732 36.558 43.5596 36.4728 43.2865 36.4728ZM47.4241 38.9026L48.353 35.7629H49.3712L47.85 40.152H46.9941L45.4607 35.7629H46.483L47.4241 38.9026ZM51.8659 40.2332C51.2412 40.2332 50.7342 40.0371 50.3448 39.645C49.958 39.2501 49.7647 38.7255 49.7647 38.0711V37.9494C49.7647 37.5113 49.8485 37.1205 50.0162 36.777C50.1866 36.4309 50.4245 36.1618 50.7301 35.9698C51.0357 35.7778 51.3765 35.6818 51.7524 35.6818C52.35 35.6818 52.8111 35.8724 53.1356 36.2538C53.4629 36.6351 53.6265 37.1746 53.6265 37.8723V38.2698H50.7585C50.7883 38.6322 50.9086 38.9189 51.1196 39.1298C51.3332 39.3407 51.6009 39.4462 51.9227 39.4462C52.3744 39.4462 52.7421 39.2637 53.0261 38.8986L53.5575 39.4056C53.3817 39.668 53.1464 39.8721 52.8517 40.0182C52.5596 40.1615 52.231 40.2332 51.8659 40.2332ZM51.7483 36.4728C51.4779 36.4728 51.2588 36.5675 51.0912 36.7568C50.9262 36.9461 50.8207 37.2097 50.7748 37.5478H52.6529V37.4748C52.6313 37.1448 52.5434 36.896 52.3892 36.7284C52.2351 36.558 52.0214 36.4728 51.7483 36.4728ZM55.4438 40.152H54.458V33.9213H55.4438V40.152ZM56.3362 37.9169C56.3362 37.4869 56.4214 37.1002 56.5918 36.7568C56.7621 36.4106 57.0015 36.1456 57.3098 35.9617C57.618 35.7751 57.9723 35.6818 58.3726 35.6818C58.9648 35.6818 59.4448 35.8724 59.8126 36.2538C60.1831 36.6351 60.3832 37.1408 60.413 37.7709L60.417 38.0021C60.417 38.4348 60.3332 38.8215 60.1655 39.1623C60.0006 39.503 59.7626 39.7667 59.4516 39.9533C59.1433 40.1399 58.7863 40.2332 58.3807 40.2332C57.7614 40.2332 57.2651 40.0276 56.8919 39.6166C56.5214 39.2028 56.3362 38.6525 56.3362 37.9656V37.9169ZM57.3219 38.0021C57.3219 38.4537 57.4152 38.808 57.6018 39.0649C57.7884 39.3191 58.048 39.4462 58.3807 39.4462C58.7133 39.4462 58.9716 39.3164 59.1555 39.0568C59.3421 38.7972 59.4354 38.4172 59.4354 37.9169C59.4354 37.4734 59.3394 37.1218 59.1473 36.8622C58.958 36.6026 58.6998 36.4728 58.3726 36.4728C58.0507 36.4728 57.7952 36.6013 57.6059 36.8582C57.4166 37.1124 57.3219 37.4937 57.3219 38.0021ZM65.0942 38.0021C65.0942 38.6809 64.94 39.2231 64.6317 39.6288C64.3234 40.0317 63.9097 40.2332 63.3904 40.2332C62.9091 40.2332 62.5237 40.075 62.2343 39.7586V41.8395H61.2486V35.7629H62.1573L62.1978 36.2091C62.4872 35.8576 62.8807 35.6818 63.3783 35.6818C63.9137 35.6818 64.3329 35.8819 64.6358 36.2821C64.9414 36.6797 65.0942 37.2327 65.0942 37.9413V38.0021ZM64.1125 37.9169C64.1125 37.4788 64.0246 37.1313 63.8488 36.8744C63.6757 36.6175 63.4269 36.489 63.1024 36.489C62.6995 36.489 62.4101 36.6553 62.2343 36.988V38.9351C62.4128 39.2758 62.7049 39.4462 63.1105 39.4462C63.4242 39.4462 63.669 39.3205 63.8448 39.069C64.0232 38.8147 64.1125 38.4307 64.1125 37.9169ZM67.8647 40.2332C67.24 40.2332 66.733 40.0371 66.3436 39.645C65.9568 39.2501 65.7635 38.7255 65.7635 38.0711V37.9494C65.7635 37.5113 65.8473 37.1205 66.015 36.777C66.1854 36.4309 66.4233 36.1618 66.7289 35.9698C67.0345 35.7778 67.3753 35.6818 67.7512 35.6818C68.3488 35.6818 68.8099 35.8724 69.1344 36.2538C69.4616 36.6351 69.6253 37.1746 69.6253 37.8723V38.2698H66.7573C66.7871 38.6322 66.9074 38.9189 67.1183 39.1298C67.332 39.3407 67.5997 39.4462 67.9215 39.4462C68.3732 39.4462 68.7409 39.2637 69.0249 38.8986L69.5563 39.4056C69.3805 39.668 69.1452 39.8721 68.8505 40.0182C68.5584 40.1615 68.2298 40.2332 67.8647 40.2332ZM67.7471 36.4728C67.4767 36.4728 67.2576 36.5675 67.09 36.7568C66.925 36.9461 66.8195 37.2097 66.7735 37.5478H68.6517V37.4748C68.6301 37.1448 68.5422 36.896 68.388 36.7284C68.2339 36.558 68.0202 36.4728 67.7471 36.4728ZM72.692 36.6635C72.5622 36.6418 72.4283 36.631 72.2904 36.631C71.8388 36.631 71.5345 36.8041 71.3777 37.1502V40.152H70.3919V35.7629H71.333L71.3574 36.2538C71.5954 35.8724 71.9253 35.6818 72.3472 35.6818C72.4878 35.6818 72.6041 35.7007 72.696 35.7386L72.692 36.6635ZM75.1989 37.9169C75.1989 37.4869 75.2841 37.1002 75.4544 36.7568C75.6248 36.4106 75.8641 36.1456 76.1724 35.9617C76.4807 35.7751 76.835 35.6818 77.2352 35.6818C77.8275 35.6818 78.3075 35.8724 78.6753 36.2538C79.0458 36.6351 79.2459 37.1408 79.2756 37.7709L79.2797 38.0021C79.2797 38.4348 79.1959 38.8215 79.0282 39.1623C78.8632 39.503 78.6253 39.7667 78.3143 39.9533C78.006 40.1399 77.649 40.2332 77.2433 40.2332C76.6241 40.2332 76.1278 40.0276 75.7546 39.6166C75.3841 39.2028 75.1989 38.6525 75.1989 37.9656V37.9169ZM76.1846 38.0021C76.1846 38.4537 76.2779 38.808 76.4645 39.0649C76.6511 39.3191 76.9107 39.4462 77.2433 39.4462C77.576 39.4462 77.8342 39.3164 78.0181 39.0568C78.2047 38.7972 78.298 38.4172 78.298 37.9169C78.298 37.4734 78.202 37.1218 78.01 36.8622C77.8207 36.6026 77.5625 36.4728 77.2352 36.4728C76.9134 36.4728 76.6579 36.6013 76.4686 36.8582C76.2793 37.1124 76.1846 37.4937 76.1846 38.0021ZM83.9568 38.0021C83.9568 38.6809 83.8027 39.2231 83.4944 39.6288C83.1861 40.0317 82.7723 40.2332 82.2531 40.2332C81.7717 40.2332 81.3864 40.075 81.097 39.7586V41.8395H80.1113V35.7629H81.0199L81.0605 36.2091C81.3499 35.8576 81.7433 35.6818 82.2409 35.6818C82.7764 35.6818 83.1956 35.8819 83.4985 36.2821C83.804 36.6797 83.9568 37.2327 83.9568 37.9413V38.0021ZM82.9752 37.9169C82.9752 37.4788 82.8873 37.1313 82.7115 36.8744C82.5384 36.6175 82.2896 36.489 81.9651 36.489C81.5622 36.489 81.2728 36.6553 81.097 36.988V38.9351C81.2755 39.2758 81.5676 39.4462 81.9732 39.4462C82.2869 39.4462 82.5317 39.3205 82.7074 39.069C82.8859 38.8147 82.9752 38.4307 82.9752 37.9169ZM86.0297 34.6961V35.7629H86.8045V36.4931H86.0297V38.9432C86.0297 39.1109 86.0622 39.2326 86.1271 39.3083C86.1947 39.3813 86.3137 39.4178 86.484 39.4178C86.5976 39.4178 86.7125 39.4043 86.8288 39.3772V40.1399C86.6044 40.2021 86.388 40.2332 86.1798 40.2332C85.4226 40.2332 85.044 39.8153 85.044 38.9797V36.4931H84.3219V35.7629H85.044V34.6961H86.0297ZM88.6096 40.152H87.6239V35.7629H88.6096V40.152ZM87.5631 34.623C87.5631 34.4716 87.6104 34.3458 87.705 34.2458C87.8024 34.1457 87.9403 34.0957 88.1188 34.0957C88.2973 34.0957 88.4352 34.1457 88.5326 34.2458C88.6299 34.3458 88.6786 34.4716 88.6786 34.623C88.6786 34.7718 88.6299 34.8962 88.5326 34.9962C88.4352 35.0936 88.2973 35.1423 88.1188 35.1423C87.9403 35.1423 87.8024 35.0936 87.705 34.9962C87.6104 34.8962 87.5631 34.7718 87.5631 34.623ZM89.5021 37.9169C89.5021 37.4869 89.5872 37.1002 89.7576 36.7568C89.928 36.4106 90.1673 36.1456 90.4756 35.9617C90.7839 35.7751 91.1382 35.6818 91.5384 35.6818C92.1307 35.6818 92.6107 35.8724 92.9785 36.2538C93.349 36.6351 93.5491 37.1408 93.5788 37.7709L93.5829 38.0021C93.5829 38.4348 93.4991 38.8215 93.3314 39.1623C93.1664 39.503 92.9284 39.7667 92.6174 39.9533C92.3092 40.1399 91.9522 40.2332 91.5465 40.2332C90.9272 40.2332 90.431 40.0276 90.0578 39.6166C89.6873 39.2028 89.5021 38.6525 89.5021 37.9656V37.9169ZM90.4878 38.0021C90.4878 38.4537 90.5811 38.808 90.7677 39.0649C90.9543 39.3191 91.2139 39.4462 91.5465 39.4462C91.8792 39.4462 92.1374 39.3164 92.3213 39.0568C92.5079 38.7972 92.6012 38.4172 92.6012 37.9169C92.6012 37.4734 92.5052 37.1218 92.3132 36.8622C92.1239 36.6026 91.8656 36.4728 91.5384 36.4728C91.2166 36.4728 90.961 36.6013 90.7717 36.8582C90.5824 37.1124 90.4878 37.4937 90.4878 38.0021ZM95.3312 35.7629L95.3596 36.27C95.6842 35.8779 96.1101 35.6818 96.6374 35.6818C97.5515 35.6818 98.0166 36.2051 98.0329 37.2516V40.152H97.0471V37.3084C97.0471 37.0299 96.9863 36.8244 96.8646 36.6919C96.7456 36.5566 96.5495 36.489 96.2764 36.489C95.8789 36.489 95.5827 36.6689 95.388 37.0285V40.152H94.4023V35.7629H95.3312ZM101.501 38.9594C101.501 38.7836 101.428 38.6498 101.282 38.5578C101.139 38.4659 100.899 38.3848 100.564 38.3144C100.229 38.2441 99.9489 38.1549 99.7244 38.0467C99.2322 37.8087 98.9861 37.4639 98.9861 37.0123C98.9861 36.6337 99.1457 36.3173 99.4648 36.0631C99.7839 35.8089 100.19 35.6818 100.682 35.6818C101.206 35.6818 101.63 35.8116 101.951 36.0712C102.276 36.3308 102.438 36.6675 102.438 37.0813H101.452C101.452 36.892 101.382 36.7351 101.242 36.6107C101.101 36.4836 100.914 36.4201 100.682 36.4201C100.465 36.4201 100.288 36.4701 100.15 36.5702C100.015 36.6702 99.9475 36.8041 99.9475 36.9718C99.9475 37.1232 100.011 37.2408 100.138 37.3247C100.265 37.4085 100.522 37.4937 100.909 37.5802C101.296 37.6641 101.599 37.7655 101.818 37.8845C102.039 38.0007 102.203 38.1414 102.308 38.3063C102.417 38.4713 102.471 38.6714 102.471 38.9067C102.471 39.3015 102.307 39.622 101.98 39.8681C101.653 40.1115 101.224 40.2332 100.694 40.2332C100.334 40.2332 100.014 40.1683 99.7325 40.0385C99.4513 39.9086 99.2322 39.7302 99.0754 39.503C98.9185 39.2758 98.8401 39.0311 98.8401 38.7688H99.7974C99.811 39.0013 99.8988 39.1812 100.061 39.3083C100.223 39.4327 100.438 39.4949 100.706 39.4949C100.966 39.4949 101.163 39.4462 101.298 39.3489C101.434 39.2488 101.501 39.119 101.501 38.9594Z" fill="black" fill-opacity="0.7"/>
</g>
<path fill-rule="evenodd" clip-rule="evenodd" d="M148.615 14.9999C148.615 14.745 148.409 14.5384 148.154 14.5384H144.462C144.207 14.5384 144 14.745 144 14.9999V18.6922C144 18.9471 144.207 19.1538 144.462 19.1538H148.154C148.409 19.1538 148.615 18.9471 148.615 18.6922V14.9999ZM152.308 16.8461C152.308 15.5716 153.341 14.5384 154.615 14.5384C155.89 14.5384 156.923 15.5716 156.923 16.8461C156.923 18.1206 155.89 19.1538 154.615 19.1538C153.341 19.1538 152.308 18.1206 152.308 16.8461ZM162.066 18.4942C162.245 18.793 162.678 18.793 162.857 18.4942L164.811 15.2375C164.996 14.9298 164.774 14.5385 164.416 14.5385H160.508C160.149 14.5385 159.927 14.9298 160.112 15.2375L162.066 18.4942Z" fill="black" fill-opacity="0.5"/>
<path fill-rule="evenodd" clip-rule="evenodd" d="M30.2305 16.8462C30.2305 16.2089 30.7471 15.6923 31.3843 15.6923H40.6151C41.2523 15.6923 41.7689 16.2089 41.7689 16.8462V16.8462C41.7689 17.4834 41.2523 18 40.6151 18H31.3843C30.7471 18 30.2305 17.4834 30.2305 16.8462V16.8462Z" fill="black" fill-opacity="0.5"/>
<rect width="166.154" height="22.6089" transform="translate(6.92285 48.4615)" fill="#2AA8DE"/>
<g clip-path="url(#clip3)">
<path fill-rule="evenodd" clip-rule="evenodd" d="M36.2305 59.766C36.2305 58.8738 36.9537 58.1506 37.8459 58.1506H48.4612C49.3534 58.1506 50.0766 58.8738 50.0766 59.766V59.766C50.0766 60.6581 49.3534 61.3813 48.4612 61.3813H37.8459C36.9537 61.3813 36.2305 60.6581 36.2305 59.766V59.766Z" fill="white"/>
<rect x="154.154" y="56.7684" width="12.913" height="5.99531" rx="2.99766" fill="#DEDEDE"/>
<circle cx="162.916" cy="59.766" r="4.1506" fill="white"/>
</g>
<g clip-path="url(#clip4)">
<path fill-rule="evenodd" clip-rule="evenodd" d="M36.4619 83.7627C36.4619 82.8706 37.1851 82.1473 38.0773 82.1473H90.2311C91.1233 82.1473 91.8465 82.8706 91.8465 83.7627V83.7627C91.8465 84.6549 91.1233 85.3781 90.2311 85.3781H38.0773C37.1851 85.3781 36.4619 84.6549 36.4619 83.7627V83.7627Z" fill="black" fill-opacity="0.5"/>
<path fill-rule="evenodd" clip-rule="evenodd" d="M36.4619 92.3012C36.4619 91.664 36.9785 91.1474 37.6158 91.1474H110.77C111.407 91.1474 111.923 91.664 111.923 92.3012V92.3012C111.923 92.9385 111.407 93.4551 110.77 93.4551H37.6158C36.9785 93.4551 36.4619 92.9385 36.4619 92.3012V92.3012Z" fill="black" fill-opacity="0.5"/>
<rect x="154.385" y="84.8036" width="12.913" height="5.99531" rx="2.99766" fill="#DEDEDE"/>
<circle cx="163.148" cy="87.8012" r="4.1506" fill="#9F9F9F"/>
</g>
<g clip-path="url(#clip5)">
<path fill-rule="evenodd" clip-rule="evenodd" d="M36.4619 114.455C36.4619 113.563 37.1851 112.84 38.0773 112.84H68.0773C68.9694 112.84 69.6927 113.563 69.6927 114.455V114.455C69.6927 115.347 68.9694 116.07 68.0773 116.07H38.0773C37.1851 116.07 36.4619 115.347 36.4619 114.455V114.455Z" fill="black" fill-opacity="0.5"/>
<path fill-rule="evenodd" clip-rule="evenodd" d="M36.4619 122.994C36.4619 122.356 36.9785 121.84 37.6158 121.84H124.616C125.253 121.84 125.77 122.356 125.77 122.994V122.994C125.77 123.631 125.253 124.147 124.616 124.147H37.6158C36.9785 124.147 36.4619 123.631 36.4619 122.994V122.994Z" fill="black" fill-opacity="0.5"/>
</g>
<g clip-path="url(#clip6)">
<path fill-rule="evenodd" clip-rule="evenodd" d="M36.4619 145.147C36.4619 144.255 37.1851 143.532 38.0773 143.532H82.1542C83.0464 143.532 83.7696 144.255 83.7696 145.147V145.147C83.7696 146.04 83.0464 146.763 82.1542 146.763H38.0773C37.1851 146.763 36.4619 146.04 36.4619 145.147V145.147Z" fill="black" fill-opacity="0.5"/>
<path fill-rule="evenodd" clip-rule="evenodd" d="M36.4619 153.686C36.4619 153.049 36.9785 152.532 37.6158 152.532H99.2311C99.8684 152.532 100.385 153.049 100.385 153.686V153.686C100.385 154.323 99.8684 154.84 99.2311 154.84H37.6158C36.9785 154.84 36.4619 154.323 36.4619 153.686V153.686Z" fill="black" fill-opacity="0.5"/>
</g>
<g clip-path="url(#clip7)">
<path fill-rule="evenodd" clip-rule="evenodd" d="M36.4619 175.84C36.4619 174.948 37.1851 174.224 38.0773 174.224H90.2311C91.1233 174.224 91.8465 174.948 91.8465 175.84V175.84C91.8465 176.732 91.1233 177.455 90.2311 177.455H38.0773C37.1851 177.455 36.4619 176.732 36.4619 175.84V175.84Z" fill="black" fill-opacity="0.5"/>
<path fill-rule="evenodd" clip-rule="evenodd" d="M36.4619 184.378C36.4619 183.741 36.9785 183.224 37.6158 183.224H110.77C111.407 183.224 111.923 183.741 111.923 184.378V184.378C111.923 185.015 111.407 185.532 110.77 185.532H37.6158C36.9785 185.532 36.4619 185.015 36.4619 184.378V184.378Z" fill="black" fill-opacity="0.5"/>
<rect x="154.385" y="176.881" width="12.913" height="5.99531" rx="2.99766" fill="#DEDEDE"/>
<circle cx="163.148" cy="179.878" r="4.1506" fill="#9F9F9F"/>
</g>
<g clip-path="url(#clip8)">
<path fill-rule="evenodd" clip-rule="evenodd" d="M36.4619 206.532C36.4619 205.64 37.1851 204.917 38.0773 204.917H82.1542C83.0464 204.917 83.7696 205.64 83.7696 206.532V206.532C83.7696 207.424 83.0464 208.147 82.1542 208.147H38.0773C37.1851 208.147 36.4619 207.424 36.4619 206.532V206.532Z" fill="black" fill-opacity="0.5"/>
<path fill-rule="evenodd" clip-rule="evenodd" d="M36.4619 215.071C36.4619 214.433 36.9785 213.917 37.6158 213.917H110.77C111.407 213.917 111.923 214.433 111.923 215.071V215.071C111.923 215.708 111.407 216.224 110.77 216.224H37.6158C36.9785 216.224 36.4619 215.708 36.4619 215.071V215.071Z" fill="black" fill-opacity="0.5"/>
</g>
<g clip-path="url(#clip9)">
<path fill-rule="evenodd" clip-rule="evenodd" d="M36.4619 237.224C36.4619 236.332 37.1851 235.609 38.0773 235.609H82.1542C83.0464 235.609 83.7696 236.332 83.7696 237.224V237.224C83.7696 238.116 83.0464 238.84 82.1542 238.84H38.0773C37.1851 238.84 36.4619 238.116 36.4619 237.224V237.224Z" fill="black" fill-opacity="0.5"/>
</g>
<g clip-path="url(#clip10)">
<path fill-rule="evenodd" clip-rule="evenodd" d="M36.4619 259.84C36.4619 258.948 37.1851 258.224 38.0773 258.224H82.1542C83.0464 258.224 83.7696 258.948 83.7696 259.84V259.84C83.7696 260.732 83.0464 261.455 82.1542 261.455H38.0773C37.1851 261.455 36.4619 260.732 36.4619 259.84V259.84Z" fill="black" fill-opacity="0.5"/>
</g>
<line opacity="0.2" x1="6.92285" y1="274.147" x2="173.077" y2="274.147" stroke="black" stroke-width="0.461538"/>
<path fill-rule="evenodd" clip-rule="evenodd" d="M18 288.455C18 287.818 18.5166 287.301 19.1538 287.301H55.3846C56.0219 287.301 56.5385 287.818 56.5385 288.455V288.455C56.5385 289.092 56.0219 289.609 55.3846 289.609H19.1538C18.5166 289.609 18 289.092 18 288.455V288.455Z" fill="black" fill-opacity="0.5"/>
<rect x="154.385" y="305.188" width="12.913" height="5.99531" rx="2.99766" fill="#DEDEDE"/>
<circle cx="163.147" cy="308.186" r="4.1506" fill="#9F9F9F"/>
<path d="M39.3443 301.302V304.649C39.3421 305.113 39.1956 305.493 38.9049 305.788C38.6164 306.084 38.2243 306.249 37.7285 306.285L37.5561 306.292C37.0175 306.292 36.5882 306.147 36.2681 305.856C35.9481 305.565 35.7859 305.165 35.7814 304.656V301.302H36.4236V304.636C36.4236 304.992 36.5217 305.269 36.7177 305.467C36.9138 305.663 37.1932 305.761 37.5561 305.761C37.9234 305.761 38.204 305.663 38.3978 305.467C38.5939 305.271 38.6919 304.995 38.6919 304.639V301.302H39.3443ZM41.8188 304.03C41.2621 303.87 40.8565 303.674 40.6018 303.442C40.3494 303.208 40.2232 302.919 40.2232 302.577C40.2232 302.189 40.3776 301.869 40.6863 301.617C40.9973 301.362 41.4007 301.235 41.8965 301.235C42.2346 301.235 42.5354 301.3 42.7991 301.431C43.065 301.562 43.2701 301.742 43.4143 301.972C43.5608 302.202 43.6341 302.453 43.6341 302.726H42.9816C42.9816 302.428 42.887 302.195 42.6977 302.026C42.5084 301.855 42.2413 301.769 41.8965 301.769C41.5765 301.769 41.3264 301.84 41.1461 301.982C40.968 302.122 40.879 302.317 40.879 302.567C40.879 302.767 40.9635 302.937 41.1325 303.077C41.3038 303.215 41.5934 303.341 42.0013 303.456C42.4115 303.571 42.7315 303.698 42.9614 303.838C43.1935 303.975 43.3647 304.136 43.4752 304.321C43.5879 304.506 43.6442 304.723 43.6442 304.974C43.6442 305.373 43.4887 305.693 43.1777 305.934C42.8667 306.173 42.4509 306.292 41.9303 306.292C41.5923 306.292 41.2768 306.228 40.9838 306.099C40.6908 305.969 40.4644 305.791 40.3043 305.565C40.1466 305.34 40.0677 305.084 40.0677 304.798H40.7201C40.7201 305.095 40.8294 305.331 41.048 305.504C41.2689 305.676 41.563 305.761 41.9303 305.761C42.2729 305.761 42.5354 305.691 42.718 305.552C42.9005 305.412 42.9918 305.222 42.9918 304.98C42.9918 304.739 42.9073 304.553 42.7382 304.423C42.5692 304.29 42.2627 304.159 41.8188 304.03ZM44.4792 306.224V301.302H46.0882C46.6223 301.302 47.0235 301.413 47.2917 301.634C47.5621 301.855 47.6973 302.181 47.6973 302.614C47.6973 302.844 47.6319 303.048 47.5012 303.226C47.3705 303.402 47.1925 303.538 46.9671 303.635C47.2331 303.709 47.4426 303.851 47.5959 304.061C47.7514 304.268 47.8291 304.516 47.8291 304.805C47.8291 305.246 47.686 305.593 47.3998 305.846C47.1136 306.098 46.7091 306.224 46.1863 306.224H44.4792ZM45.1282 303.922V305.694H46.1998C46.5018 305.694 46.7395 305.616 46.913 305.46C47.0888 305.303 47.1767 305.086 47.1767 304.811C47.1767 304.219 46.8545 303.922 46.2099 303.922H45.1282ZM45.1282 303.402H46.1085C46.3925 303.402 46.619 303.331 46.788 303.189C46.9592 303.047 47.0449 302.854 47.0449 302.611C47.0449 302.34 46.966 302.144 46.8083 302.023C46.6505 301.899 46.4105 301.837 46.0882 301.837H45.1282V303.402ZM50.2597 304.365C50.2597 303.804 50.3926 303.353 50.6585 303.013C50.9245 302.67 51.2726 302.499 51.7031 302.499C52.1313 302.499 52.4704 302.646 52.7206 302.939V301.032H53.346V306.224H52.7713L52.7409 305.832C52.4907 306.139 52.1425 306.292 51.6963 306.292C51.2726 306.292 50.9267 306.118 50.6585 305.771C50.3926 305.424 50.2597 304.971 50.2597 304.412V304.365ZM50.885 304.436C50.885 304.851 50.9707 305.175 51.1419 305.41C51.3132 305.644 51.5498 305.761 51.8518 305.761C52.2485 305.761 52.538 305.583 52.7206 305.227V303.547C52.5335 303.202 52.2462 303.03 51.8586 303.03C51.5521 303.03 51.3132 303.148 51.1419 303.385C50.9707 303.621 50.885 303.972 50.885 304.436ZM55.8373 306.292C55.3415 306.292 54.9381 306.13 54.6271 305.805C54.3161 305.478 54.1606 305.042 54.1606 304.497V304.382C54.1606 304.019 54.2294 303.696 54.3668 303.412C54.5066 303.126 54.7004 302.903 54.9483 302.743C55.1984 302.58 55.4689 302.499 55.7596 302.499C56.2351 302.499 56.6047 302.656 56.8684 302.969C57.132 303.282 57.2639 303.731 57.2639 304.314V304.575H54.786C54.795 304.935 54.8998 305.227 55.1004 305.45C55.3032 305.671 55.5601 305.782 55.8711 305.782C56.092 305.782 56.279 305.736 56.4323 305.646C56.5855 305.556 56.7196 305.437 56.8345 305.288L57.2165 305.585C56.91 306.056 56.4503 306.292 55.8373 306.292ZM55.7596 303.013C55.5072 303.013 55.2953 303.105 55.1241 303.29C54.9528 303.473 54.8469 303.73 54.8063 304.061H56.6385V304.014C56.6205 303.696 56.5348 303.45 56.3816 303.277C56.2283 303.101 56.021 303.013 55.7596 303.013ZM61.0871 304.436C61.0871 304.995 60.9586 305.445 60.7017 305.785C60.4448 306.123 60.1 306.292 59.6673 306.292C59.2053 306.292 58.8481 306.129 58.5957 305.802L58.5653 306.224H57.9906V301.032H58.616V302.969C58.8684 302.656 59.2166 302.499 59.6606 302.499C60.1045 302.499 60.4527 302.667 60.7051 303.003C60.9598 303.339 61.0871 303.798 61.0871 304.382V304.436ZM60.4617 304.365C60.4617 303.939 60.3795 303.61 60.215 303.378C60.0504 303.146 59.8138 303.03 59.5051 303.03C59.0927 303.03 58.7963 303.221 58.616 303.605V305.187C58.8076 305.57 59.1062 305.761 59.5118 305.761C59.8116 305.761 60.0448 305.645 60.2116 305.413C60.3783 305.181 60.4617 304.832 60.4617 304.365ZM64.1362 305.863C63.8928 306.149 63.5356 306.292 63.0646 306.292C62.6748 306.292 62.3773 306.179 62.1722 305.954C61.9694 305.726 61.8668 305.391 61.8646 304.947V302.567H62.49V304.93C62.49 305.484 62.7153 305.761 63.1661 305.761C63.6438 305.761 63.9616 305.583 64.1193 305.227V302.567H64.7447V306.224H64.1498L64.1362 305.863ZM65.5492 304.365C65.5492 303.795 65.6811 303.342 65.9447 303.006C66.2084 302.668 66.5577 302.499 66.9927 302.499C67.4389 302.499 67.7871 302.657 68.0372 302.972L68.0676 302.567H68.6389V306.136C68.6389 306.61 68.4981 306.983 68.2164 307.255C67.9369 307.528 67.5606 307.664 67.0873 307.664C66.8237 307.664 66.5656 307.608 66.3132 307.495C66.0608 307.383 65.8681 307.228 65.7352 307.032L66.0597 306.657C66.3279 306.988 66.6558 307.154 67.0434 307.154C67.3476 307.154 67.5842 307.068 67.7533 306.897C67.9245 306.726 68.0102 306.485 68.0102 306.174V305.859C67.76 306.148 67.4186 306.292 66.9859 306.292C66.5577 306.292 66.2107 306.12 65.9447 305.775C65.6811 305.43 65.5492 304.96 65.5492 304.365ZM66.178 304.436C66.178 304.849 66.2625 305.173 66.4315 305.41C66.6005 305.644 66.8372 305.761 67.1414 305.761C67.5358 305.761 67.8254 305.582 68.0102 305.224V303.554C67.8186 303.205 67.5313 303.03 67.1482 303.03C66.8439 303.03 66.6062 303.148 66.4349 303.385C66.2636 303.621 66.178 303.972 66.178 304.436ZM69.4367 304.365C69.4367 303.795 69.5685 303.342 69.8322 303.006C70.0959 302.668 70.4452 302.499 70.8801 302.499C71.3264 302.499 71.6745 302.657 71.9247 302.972L71.9551 302.567H72.5264V306.136C72.5264 306.61 72.3856 306.983 72.1039 307.255C71.8244 307.528 71.4481 307.664 70.9748 307.664C70.7111 307.664 70.4531 307.608 70.2007 307.495C69.9483 307.383 69.7556 307.228 69.6226 307.032L69.9472 306.657C70.2153 306.988 70.5432 307.154 70.9309 307.154C71.2351 307.154 71.4717 307.068 71.6407 306.897C71.812 306.726 71.8976 306.485 71.8976 306.174V305.859C71.6475 306.148 71.3061 306.292 70.8734 306.292C70.4452 306.292 70.0981 306.12 69.8322 305.775C69.5685 305.43 69.4367 304.96 69.4367 304.365ZM70.0655 304.436C70.0655 304.849 70.15 305.173 70.319 305.41C70.488 305.644 70.7246 305.761 71.0289 305.761C71.4233 305.761 71.7129 305.582 71.8976 305.224V303.554C71.7061 303.205 71.4188 303.03 71.0356 303.03C70.7314 303.03 70.4937 303.148 70.3224 303.385C70.1511 303.621 70.0655 303.972 70.0655 304.436ZM74.1524 306.224H73.527V302.567H74.1524V306.224ZM73.4763 301.597C73.4763 301.495 73.5067 301.41 73.5676 301.34C73.6307 301.27 73.7231 301.235 73.8448 301.235C73.9665 301.235 74.0589 301.27 74.122 301.34C74.1851 301.41 74.2166 301.495 74.2166 301.597C74.2166 301.698 74.1851 301.783 74.122 301.85C74.0589 301.918 73.9665 301.952 73.8448 301.952C73.7231 301.952 73.6307 301.918 73.5676 301.85C73.5067 301.783 73.4763 301.698 73.4763 301.597ZM75.7479 302.567L75.7682 303.026C76.0477 302.675 76.4127 302.499 76.8635 302.499C77.6365 302.499 78.0263 302.935 78.0331 303.807V306.224H77.4077V303.804C77.4055 303.54 77.3446 303.345 77.2252 303.219C77.108 303.093 76.9243 303.03 76.6742 303.03C76.4713 303.03 76.2933 303.084 76.1401 303.192C75.9868 303.3 75.8674 303.442 75.7817 303.618V306.224H75.1564V302.567H75.7479ZM78.8275 304.365C78.8275 303.795 78.9593 303.342 79.223 303.006C79.4867 302.668 79.836 302.499 80.2709 302.499C80.7171 302.499 81.0653 302.657 81.3155 302.972L81.3459 302.567H81.9172V306.136C81.9172 306.61 81.7763 306.983 81.4946 307.255C81.2152 307.528 80.8388 307.664 80.3656 307.664C80.1019 307.664 79.8439 307.608 79.5915 307.495C79.3391 307.383 79.1464 307.228 79.0134 307.032L79.3379 306.657C79.6061 306.988 79.934 307.154 80.3216 307.154C80.6259 307.154 80.8625 307.068 81.0315 306.897C81.2028 306.726 81.2884 306.485 81.2884 306.174V305.859C81.0383 306.148 80.6968 306.292 80.2642 306.292C79.836 306.292 79.4889 306.12 79.223 305.775C78.9593 305.43 78.8275 304.96 78.8275 304.365ZM79.4562 304.436C79.4562 304.849 79.5407 305.173 79.7098 305.41C79.8788 305.644 80.1154 305.761 80.4197 305.761C80.814 305.761 81.1036 305.582 81.2884 305.224V303.554C81.0969 303.205 80.8095 303.03 80.4264 303.03C80.1222 303.03 79.8844 303.148 79.7132 303.385C79.5419 303.621 79.4562 303.972 79.4562 304.436Z" fill="black" fill-opacity="0.8"/>
<path d="M38.1587 314.342H36.3716L35.9702 315.455H35.3901L37.019 311.19H37.5112L39.1431 315.455H38.5659L38.1587 314.342ZM36.5415 313.879H37.9917L37.2651 311.884L36.5415 313.879ZM40.2212 315.455H39.6792V310.955H40.2212V315.455ZM41.6802 315.455H41.1382V310.955H41.6802V315.455ZM42.4067 313.841C42.4067 313.53 42.4673 313.251 42.5884 313.003C42.7114 312.755 42.8813 312.564 43.0981 312.429C43.3169 312.294 43.5659 312.227 43.8452 312.227C44.2769 312.227 44.6255 312.376 44.8911 312.675C45.1587 312.974 45.2925 313.371 45.2925 313.867V313.905C45.2925 314.214 45.2329 314.491 45.1138 314.737C44.9966 314.982 44.8276 315.172 44.6069 315.309C44.3882 315.445 44.1362 315.514 43.8511 315.514C43.4214 315.514 43.0728 315.364 42.8052 315.065C42.5396 314.767 42.4067 314.371 42.4067 313.879V313.841ZM42.9517 313.905C42.9517 314.257 43.0327 314.539 43.1948 314.752C43.3589 314.965 43.5776 315.071 43.8511 315.071C44.1265 315.071 44.3452 314.964 44.5073 314.749C44.6694 314.532 44.7505 314.23 44.7505 313.841C44.7505 313.493 44.6675 313.212 44.5015 312.997C44.3374 312.78 44.1187 312.672 43.8452 312.672C43.5776 312.672 43.3618 312.778 43.1978 312.991C43.0337 313.204 42.9517 313.509 42.9517 313.905ZM48.7788 314.708L49.3882 312.285H49.9302L49.0073 315.455H48.5679L47.7974 313.053L47.0474 315.455H46.6079L45.688 312.285H46.227L46.8511 314.658L47.5894 312.285H48.0259L48.7788 314.708ZM52.7075 311.518V312.285H53.2993V312.704H52.7075V314.67C52.7075 314.797 52.7339 314.893 52.7866 314.957C52.8394 315.02 52.9292 315.051 53.0562 315.051C53.1187 315.051 53.2046 315.039 53.314 315.016V315.455C53.1714 315.494 53.0327 315.514 52.8979 315.514C52.6558 315.514 52.4731 315.44 52.3501 315.294C52.227 315.148 52.1655 314.94 52.1655 314.67V312.704H51.5884V312.285H52.1655V311.518H52.7075ZM54.477 312.669C54.7173 312.374 55.0298 312.227 55.4145 312.227C56.0845 312.227 56.4224 312.605 56.4282 313.36V315.455H55.8862V313.357C55.8843 313.129 55.8315 312.96 55.728 312.851C55.6265 312.741 55.4673 312.687 55.2505 312.687C55.0747 312.687 54.9204 312.733 54.7876 312.827C54.6548 312.921 54.5513 313.044 54.477 313.196V315.455H53.9351V310.955H54.477V312.669ZM58.5552 315.514C58.1255 315.514 57.7759 315.373 57.5063 315.092C57.2368 314.809 57.102 314.431 57.102 313.958V313.858C57.102 313.544 57.1616 313.264 57.2808 313.018C57.4019 312.77 57.5698 312.576 57.7847 312.438C58.0015 312.297 58.2358 312.227 58.4878 312.227C58.8999 312.227 59.2202 312.362 59.4487 312.634C59.6772 312.905 59.7915 313.294 59.7915 313.8V314.025H57.644C57.6519 314.338 57.7427 314.591 57.9165 314.784C58.0923 314.976 58.3149 315.071 58.5845 315.071C58.7759 315.071 58.938 315.032 59.0708 314.954C59.2036 314.876 59.3198 314.773 59.4194 314.644L59.7505 314.901C59.4849 315.31 59.0864 315.514 58.5552 315.514ZM58.4878 312.672C58.269 312.672 58.0854 312.752 57.937 312.912C57.7886 313.07 57.6968 313.293 57.6616 313.58H59.2495V313.539C59.2339 313.264 59.1597 313.051 59.0269 312.9C58.894 312.748 58.7144 312.672 58.4878 312.672ZM64.5933 313.905C64.5933 314.39 64.4819 314.779 64.2593 315.074C64.0366 315.367 63.7378 315.514 63.3628 315.514C62.9624 315.514 62.6528 315.372 62.4341 315.089L62.4077 315.455H61.9097V310.955H62.4517V312.634C62.6704 312.362 62.9722 312.227 63.3569 312.227C63.7417 312.227 64.0435 312.372 64.2622 312.663C64.4829 312.954 64.5933 313.353 64.5933 313.858V313.905ZM64.0513 313.844C64.0513 313.475 63.98 313.19 63.8374 312.988C63.6948 312.787 63.4897 312.687 63.2222 312.687C62.8647 312.687 62.6079 312.853 62.4517 313.185V314.556C62.6177 314.888 62.8765 315.054 63.228 315.054C63.4878 315.054 63.6899 314.953 63.8345 314.752C63.979 314.551 64.0513 314.248 64.0513 313.844ZM65.1353 313.841C65.1353 313.53 65.1958 313.251 65.3169 313.003C65.4399 312.755 65.6099 312.564 65.8267 312.429C66.0454 312.294 66.2944 312.227 66.5737 312.227C67.0054 312.227 67.354 312.376 67.6196 312.675C67.8872 312.974 68.021 313.371 68.021 313.867V313.905C68.021 314.214 67.9614 314.491 67.8423 314.737C67.7251 314.982 67.5562 315.172 67.3354 315.309C67.1167 315.445 66.8647 315.514 66.5796 315.514C66.1499 315.514 65.8013 315.364 65.5337 315.065C65.2681 314.767 65.1353 314.371 65.1353 313.879V313.841ZM65.6802 313.905C65.6802 314.257 65.7612 314.539 65.9233 314.752C66.0874 314.965 66.3062 315.071 66.5796 315.071C66.855 315.071 67.0737 314.964 67.2358 314.749C67.3979 314.532 67.479 314.23 67.479 313.841C67.479 313.493 67.396 313.212 67.23 312.997C67.0659 312.78 66.8472 312.672 66.5737 312.672C66.3062 312.672 66.0903 312.778 65.9263 312.991C65.7622 313.204 65.6802 313.509 65.6802 313.905ZM68.5571 313.841C68.5571 313.53 68.6177 313.251 68.7388 313.003C68.8618 312.755 69.0317 312.564 69.2485 312.429C69.4673 312.294 69.7163 312.227 69.9956 312.227C70.4272 312.227 70.7759 312.376 71.0415 312.675C71.3091 312.974 71.4429 313.371 71.4429 313.867V313.905C71.4429 314.214 71.3833 314.491 71.2642 314.737C71.147 314.982 70.978 315.172 70.7573 315.309C70.5386 315.445 70.2866 315.514 70.0015 315.514C69.5718 315.514 69.2231 315.364 68.9556 315.065C68.6899 314.767 68.5571 314.371 68.5571 313.879V313.841ZM69.102 313.905C69.102 314.257 69.1831 314.539 69.3452 314.752C69.5093 314.965 69.728 315.071 70.0015 315.071C70.2769 315.071 70.4956 314.964 70.6577 314.749C70.8198 314.532 70.9009 314.23 70.9009 313.841C70.9009 313.493 70.8179 313.212 70.6519 312.997C70.4878 312.78 70.269 312.672 69.9956 312.672C69.728 312.672 69.5122 312.778 69.3481 312.991C69.1841 313.204 69.102 313.509 69.102 313.905ZM72.8579 311.518V312.285H73.4497V312.704H72.8579V314.67C72.8579 314.797 72.8843 314.893 72.937 314.957C72.9897 315.02 73.0796 315.051 73.2065 315.051C73.269 315.051 73.355 315.039 73.4644 315.016V315.455C73.3218 315.494 73.1831 315.514 73.0483 315.514C72.8061 315.514 72.6235 315.44 72.5005 315.294C72.3774 315.148 72.3159 314.94 72.3159 314.67V312.704H71.7388V312.285H72.3159V311.518H72.8579ZM74.6743 315.455H74.1323V310.955H74.6743V315.455ZM75.4009 313.841C75.4009 313.53 75.4614 313.251 75.5825 313.003C75.7056 312.755 75.8755 312.564 76.0923 312.429C76.311 312.294 76.5601 312.227 76.8394 312.227C77.271 312.227 77.6196 312.376 77.8852 312.675C78.1528 312.974 78.2866 313.371 78.2866 313.867V313.905C78.2866 314.214 78.227 314.491 78.1079 314.737C77.9907 314.982 77.8218 315.172 77.6011 315.309C77.3823 315.445 77.1304 315.514 76.8452 315.514C76.4155 315.514 76.0669 315.364 75.7993 315.065C75.5337 314.767 75.4009 314.371 75.4009 313.879V313.841ZM75.9458 313.905C75.9458 314.257 76.0269 314.539 76.189 314.752C76.353 314.965 76.5718 315.071 76.8452 315.071C77.1206 315.071 77.3394 314.964 77.5015 314.749C77.6636 314.532 77.7446 314.23 77.7446 313.841C77.7446 313.493 77.6616 313.212 77.4956 312.997C77.3315 312.78 77.1128 312.672 76.8394 312.672C76.5718 312.672 76.356 312.778 76.1919 312.991C76.0278 313.204 75.9458 313.509 75.9458 313.905ZM80.9233 315.455C80.8921 315.393 80.8667 315.281 80.8472 315.121C80.5952 315.383 80.2944 315.514 79.9448 315.514C79.6323 315.514 79.3755 315.426 79.1743 315.25C78.9751 315.072 78.8755 314.848 78.8755 314.576C78.8755 314.246 79.0005 313.99 79.2505 313.809C79.5024 313.625 79.856 313.533 80.311 313.533H80.8384V313.284C80.8384 313.095 80.7817 312.944 80.6685 312.833C80.5552 312.72 80.3882 312.663 80.1675 312.663C79.9741 312.663 79.812 312.712 79.6811 312.81C79.5503 312.907 79.4849 313.025 79.4849 313.164H78.9399C78.9399 313.006 78.9956 312.854 79.1069 312.707C79.2202 312.559 79.3726 312.441 79.564 312.356C79.7573 312.27 79.9692 312.227 80.1997 312.227C80.5649 312.227 80.8511 312.318 81.0581 312.502C81.2651 312.684 81.3726 312.935 81.3804 313.255V314.714C81.3804 315.005 81.4175 315.236 81.4917 315.408V315.455H80.9233ZM80.0239 315.042C80.1938 315.042 80.355 314.998 80.5073 314.91C80.6597 314.822 80.77 314.708 80.8384 314.567V313.917H80.4136C79.7495 313.917 79.4175 314.111 79.4175 314.5C79.4175 314.67 79.4741 314.803 79.5874 314.898C79.7007 314.994 79.8462 315.042 80.0239 315.042ZM82.0981 313.844C82.0981 313.357 82.2134 312.967 82.4438 312.672C82.6743 312.375 82.9761 312.227 83.3491 312.227C83.7202 312.227 84.0142 312.354 84.231 312.607V310.955H84.7729V315.455H84.2749L84.2485 315.115C84.0317 315.381 83.73 315.514 83.3433 315.514C82.9761 315.514 82.6763 315.363 82.4438 315.063C82.2134 314.762 82.0981 314.369 82.0981 313.885V313.844ZM82.6401 313.905C82.6401 314.265 82.7144 314.546 82.8628 314.749C83.0112 314.952 83.2163 315.054 83.478 315.054C83.8218 315.054 84.0727 314.899 84.231 314.591V313.135C84.0688 312.836 83.8198 312.687 83.4839 312.687C83.2183 312.687 83.0112 312.789 82.8628 312.994C82.7144 313.199 82.6401 313.503 82.6401 313.905ZM86.9321 315.514C86.5024 315.514 86.1528 315.373 85.8833 315.092C85.6138 314.809 85.479 314.431 85.479 313.958V313.858C85.479 313.544 85.5386 313.264 85.6577 313.018C85.7788 312.77 85.9468 312.576 86.1616 312.438C86.3784 312.297 86.6128 312.227 86.8647 312.227C87.2769 312.227 87.5972 312.362 87.8257 312.634C88.0542 312.905 88.1685 313.294 88.1685 313.8V314.025H86.021C86.0288 314.338 86.1196 314.591 86.2935 314.784C86.4692 314.976 86.6919 315.071 86.9614 315.071C87.1528 315.071 87.3149 315.032 87.4477 314.954C87.5806 314.876 87.6968 314.773 87.7964 314.644L88.1274 314.901C87.8618 315.31 87.4634 315.514 86.9321 315.514ZM86.8647 312.672C86.646 312.672 86.4624 312.752 86.314 312.912C86.1655 313.07 86.0737 313.293 86.0386 313.58H87.6265V313.539C87.6108 313.264 87.5366 313.051 87.4038 312.9C87.271 312.748 87.0913 312.672 86.8647 312.672ZM90.3306 312.772C90.2485 312.758 90.1597 312.751 90.064 312.751C89.7085 312.751 89.4673 312.902 89.3403 313.205V315.455H88.7983V312.285H89.3257L89.3345 312.651C89.5122 312.368 89.7642 312.227 90.0903 312.227C90.1958 312.227 90.2759 312.24 90.3306 312.268V312.772ZM93.0552 311.518V312.285H93.647V312.704H93.0552V314.67C93.0552 314.797 93.0815 314.893 93.1343 314.957C93.187 315.02 93.2769 315.051 93.4038 315.051C93.4663 315.051 93.5522 315.039 93.6616 315.016V315.455C93.519 315.494 93.3804 315.514 93.2456 315.514C93.0034 315.514 92.8208 315.44 92.6978 315.294C92.5747 315.148 92.5132 314.94 92.5132 314.67V312.704H91.936V312.285H92.5132V311.518H93.0552ZM94.0806 313.841C94.0806 313.53 94.1411 313.251 94.2622 313.003C94.3853 312.755 94.5552 312.564 94.772 312.429C94.9907 312.294 95.2397 312.227 95.519 312.227C95.9507 312.227 96.2993 312.376 96.5649 312.675C96.8325 312.974 96.9663 313.371 96.9663 313.867V313.905C96.9663 314.214 96.9067 314.491 96.7876 314.737C96.6704 314.982 96.5015 315.172 96.2808 315.309C96.062 315.445 95.8101 315.514 95.5249 315.514C95.0952 315.514 94.7466 315.364 94.479 315.065C94.2134 314.767 94.0806 314.371 94.0806 313.879V313.841ZM94.6255 313.905C94.6255 314.257 94.7065 314.539 94.8686 314.752C95.0327 314.965 95.2515 315.071 95.5249 315.071C95.8003 315.071 96.019 314.964 96.1811 314.749C96.3433 314.532 96.4243 314.23 96.4243 313.841C96.4243 313.493 96.3413 313.212 96.1753 312.997C96.0112 312.78 95.7925 312.672 95.519 312.672C95.2515 312.672 95.0356 312.778 94.8716 312.991C94.7075 313.204 94.6255 313.509 94.6255 313.905ZM101.818 313.905C101.818 314.39 101.707 314.779 101.484 315.074C101.261 315.367 100.962 315.514 100.587 315.514C100.187 315.514 99.8774 315.372 99.6587 315.089L99.6323 315.455H99.1343V310.955H99.6763V312.634C99.895 312.362 100.197 312.227 100.582 312.227C100.966 312.227 101.268 312.372 101.487 312.663C101.708 312.954 101.818 313.353 101.818 313.858V313.905ZM101.276 313.844C101.276 313.475 101.205 313.19 101.062 312.988C100.919 312.787 100.714 312.687 100.447 312.687C100.089 312.687 99.8325 312.853 99.6763 313.185V314.556C99.8423 314.888 100.101 315.054 100.453 315.054C100.712 315.054 100.915 314.953 101.059 314.752C101.204 314.551 101.276 314.248 101.276 313.844ZM103.819 315.514C103.389 315.514 103.04 315.373 102.77 315.092C102.5 314.809 102.366 314.431 102.366 313.958V313.858C102.366 313.544 102.425 313.264 102.544 313.018C102.666 312.77 102.833 312.576 103.048 312.438C103.265 312.297 103.5 312.227 103.751 312.227C104.164 312.227 104.484 312.362 104.712 312.634C104.941 312.905 105.055 313.294 105.055 313.8V314.025H102.908C102.916 314.338 103.006 314.591 103.18 314.784C103.356 314.976 103.579 315.071 103.848 315.071C104.04 315.071 104.202 315.032 104.334 314.954C104.467 314.876 104.583 314.773 104.683 314.644L105.014 314.901C104.749 315.31 104.35 315.514 103.819 315.514ZM103.751 312.672C103.533 312.672 103.349 312.752 103.201 312.912C103.052 313.07 102.96 313.293 102.925 313.58H104.513V313.539C104.498 313.264 104.423 313.051 104.291 312.9C104.158 312.748 103.978 312.672 103.751 312.672ZM109.13 315.142C108.919 315.39 108.61 315.514 108.202 315.514C107.864 315.514 107.606 315.416 107.428 315.221C107.252 315.023 107.164 314.732 107.162 314.348V312.285H107.704V314.333C107.704 314.814 107.899 315.054 108.29 315.054C108.704 315.054 108.979 314.899 109.116 314.591V312.285H109.658V315.455H109.142L109.13 315.142ZM110.997 312.285L111.014 312.684C111.256 312.379 111.573 312.227 111.963 312.227C112.633 312.227 112.971 312.605 112.977 313.36V315.455H112.435V313.357C112.433 313.129 112.38 312.96 112.277 312.851C112.175 312.741 112.016 312.687 111.799 312.687C111.624 312.687 111.469 312.733 111.336 312.827C111.204 312.921 111.1 313.044 111.026 313.196V315.455H110.484V312.285H110.997ZM114.383 315.455H113.841V310.955H114.383V315.455ZM115.11 313.841C115.11 313.53 115.17 313.251 115.291 313.003C115.415 312.755 115.584 312.564 115.801 312.429C116.02 312.294 116.269 312.227 116.548 312.227C116.98 312.227 117.329 312.376 117.594 312.675C117.862 312.974 117.996 313.371 117.996 313.867V313.905C117.996 314.214 117.936 314.491 117.817 314.737C117.7 314.982 117.531 315.172 117.31 315.309C117.091 315.445 116.839 315.514 116.554 315.514C116.125 315.514 115.776 315.364 115.508 315.065C115.243 314.767 115.11 314.371 115.11 313.879V313.841ZM115.655 313.905C115.655 314.257 115.736 314.539 115.898 314.752C116.062 314.965 116.281 315.071 116.554 315.071C116.83 315.071 117.048 314.964 117.21 314.749C117.373 314.532 117.454 314.23 117.454 313.841C117.454 313.493 117.371 313.212 117.205 312.997C117.041 312.78 116.822 312.672 116.548 312.672C116.281 312.672 116.065 312.778 115.901 312.991C115.737 313.204 115.655 313.509 115.655 313.905ZM119.947 315.071C120.14 315.071 120.309 315.013 120.454 314.896C120.598 314.778 120.678 314.632 120.694 314.456H121.207C121.197 314.638 121.134 314.811 121.019 314.975C120.904 315.139 120.75 315.27 120.556 315.367C120.365 315.465 120.162 315.514 119.947 315.514C119.515 315.514 119.171 315.37 118.916 315.083C118.662 314.794 118.535 314.399 118.535 313.899V313.809C118.535 313.5 118.591 313.226 118.705 312.985C118.818 312.745 118.98 312.559 119.191 312.426C119.404 312.293 119.655 312.227 119.944 312.227C120.299 312.227 120.594 312.333 120.829 312.546C121.065 312.759 121.191 313.035 121.207 313.375H120.694C120.678 313.17 120.6 313.002 120.459 312.871C120.321 312.738 120.149 312.672 119.944 312.672C119.668 312.672 119.455 312.772 119.302 312.971C119.152 313.168 119.077 313.454 119.077 313.829V313.932C119.077 314.297 119.152 314.578 119.302 314.775C119.453 314.973 119.667 315.071 119.947 315.071ZM122.701 313.987L122.361 314.342V315.455H121.819V310.955H122.361V313.677L122.651 313.328L123.638 312.285H124.297L123.064 313.609L124.441 315.455H123.805L122.701 313.987ZM126.114 315.514C125.684 315.514 125.334 315.373 125.065 315.092C124.795 314.809 124.661 314.431 124.661 313.958V313.858C124.661 313.544 124.72 313.264 124.839 313.018C124.96 312.77 125.128 312.576 125.343 312.438C125.56 312.297 125.794 312.227 126.046 312.227C126.458 312.227 126.779 312.362 127.007 312.634C127.236 312.905 127.35 313.294 127.35 313.8V314.025H125.203C125.21 314.338 125.301 314.591 125.475 314.784C125.651 314.976 125.874 315.071 126.143 315.071C126.334 315.071 126.497 315.032 126.629 314.954C126.762 314.876 126.878 314.773 126.978 314.644L127.309 314.901C127.043 315.31 126.645 315.514 126.114 315.514ZM126.046 312.672C125.828 312.672 125.644 312.752 125.496 312.912C125.347 313.07 125.255 313.293 125.22 313.58H126.808V313.539C126.792 313.264 126.718 313.051 126.585 312.9C126.453 312.748 126.273 312.672 126.046 312.672ZM127.848 313.844C127.848 313.357 127.963 312.967 128.194 312.672C128.424 312.375 128.726 312.227 129.099 312.227C129.47 312.227 129.764 312.354 129.981 312.607V310.955H130.523V315.455H130.025L129.999 315.115C129.782 315.381 129.48 315.514 129.093 315.514C128.726 315.514 128.426 315.363 128.194 315.063C127.963 314.762 127.848 314.369 127.848 313.885V313.844ZM128.39 313.905C128.39 314.265 128.464 314.546 128.613 314.749C128.761 314.952 128.966 315.054 129.228 315.054C129.572 315.054 129.823 314.899 129.981 314.591V313.135C129.819 312.836 129.57 312.687 129.234 312.687C128.968 312.687 128.761 312.789 128.613 312.994C128.464 313.199 128.39 313.503 128.39 313.905Z" fill="black" fill-opacity="0.8"/>
<g clip-path="url(#clip11)">
<path fill-rule="evenodd" clip-rule="evenodd" d="M36.4614 334.84C36.4614 333.948 37.1847 333.224 38.0768 333.224H82.1537C83.0459 333.224 83.7691 333.948 83.7691 334.84V334.84C83.7691 335.732 83.0459 336.455 82.1537 336.455H38.0768C37.1847 336.455 36.4614 335.732 36.4614 334.84V334.84Z" fill="black" fill-opacity="0.5"/>
</g>
<g clip-path="url(#clip12)">
<path fill-rule="evenodd" clip-rule="evenodd" d="M36.4614 357.456C36.4614 356.563 37.1847 355.84 38.0768 355.84H120.231C121.123 355.84 121.846 356.563 121.846 357.456V357.456C121.846 358.348 121.123 359.071 120.231 359.071H38.0768C37.1847 359.071 36.4614 358.348 36.4614 357.456V357.456Z" fill="black" fill-opacity="0.5"/>
<path fill-rule="evenodd" clip-rule="evenodd" d="M36.4614 365.994C36.4614 365.357 36.978 364.84 37.6153 364.84H117.692C118.329 364.84 118.846 365.357 118.846 365.994V365.994C118.846 366.631 118.329 367.148 117.692 367.148H37.6153C36.978 367.148 36.4614 366.631 36.4614 365.994V365.994Z" fill="black" fill-opacity="0.5"/>
<rect x="154.615" y="358.496" width="12.913" height="5.99531" rx="2.99766" fill="#9F9F9F"/>
<circle cx="158.766" cy="361.494" r="4.1506" fill="#DEDEDE"/>
</g>
<circle cx="160.5" cy="308.192" r="10.5" fill="#FF00E5" fill-opacity="0.5"/>
</g>
</g>
<defs>
<filter id="filter0_d" x="1.38439" y="1.84611" width="177.231" height="371.077" filterUnits="userSpaceOnUse" color-interpolation-filters="sRGB">
<feFlood flood-opacity="0" result="BackgroundImageFix"/>
<feColorMatrix in="SourceAlpha" type="matrix" values="0 0 0 0 0 0 0 0 0 0 0 0 0 0 0 0 0 0 127 0"/>
<feOffset dy="0.461538"/>
<feGaussianBlur stdDeviation="2.76923"/>
<feColorMatrix type="matrix" values="0 0 0 0 0 0 0 0 0 0 0 0 0 0 0 0 0 0 0.15 0"/>
<feBlend mode="normal" in2="BackgroundImageFix" result="effect1_dropShadow"/>
<feBlend mode="normal" in="SourceGraphic" in2="effect1_dropShadow" result="shape"/>
</filter>
<filter id="filter1_d" x="5.0767" y="5.99996" width="169.846" height="45.2308" filterUnits="userSpaceOnUse" color-interpolation-filters="sRGB">
<feFlood flood-opacity="0" result="BackgroundImageFix"/>
<feColorMatrix in="SourceAlpha" type="matrix" values="0 0 0 0 0 0 0 0 0 0 0 0 0 0 0 0 0 0 127 0"/>
<feOffset dy="0.923077"/>
<feGaussianBlur stdDeviation="0.923077"/>
<feColorMatrix type="matrix" values="0 0 0 0 0 0 0 0 0 0 0 0 0 0 0 0 0 0 0.1 0"/>
<feBlend mode="normal" in2="BackgroundImageFix" result="effect1_dropShadow"/>
<feBlend mode="normal" in="SourceGraphic" in2="effect1_dropShadow" result="shape"/>
</filter>
<clipPath id="clip0">
<rect x="6.92285" y="6.92303" width="166.154" height="360" rx="19.3846" fill="white"/>
</clipPath>
<clipPath id="clip1">
<rect width="11.0769" height="11.0769" fill="white" transform="translate(156.923 31.3845)"/>
</clipPath>
<clipPath id="clip2">
<rect width="90.9231" height="10.6154" fill="white" transform="translate(12 31.6905)"/>
</clipPath>
<clipPath id="clip3">
<rect width="154.605" height="11.532" fill="white" transform="translate(12.4614 53.9999)"/>
</clipPath>
<clipPath id="clip4">
<rect width="130.836" height="11.3077" fill="white" transform="translate(36.4619 82.1473)"/>
</clipPath>
<clipPath id="clip5">
<rect width="89.3077" height="11.3077" fill="white" transform="translate(36.4619 112.84)"/>
</clipPath>
<clipPath id="clip6">
<rect width="63.9231" height="11.3077" fill="white" transform="translate(36.4619 143.532)"/>
</clipPath>
<clipPath id="clip7">
<rect width="130.836" height="11.3077" fill="white" transform="translate(36.4619 174.224)"/>
</clipPath>
<clipPath id="clip8">
<rect width="75.4615" height="11.3077" fill="white" transform="translate(36.4619 204.917)"/>
</clipPath>
<clipPath id="clip9">
<rect width="47.3077" height="3.23077" fill="white" transform="translate(36.4619 235.609)"/>
</clipPath>
<clipPath id="clip10">
<rect width="47.3077" height="3.23077" fill="white" transform="translate(36.4619 258.224)"/>
</clipPath>
<clipPath id="clip11">
<rect width="47.3077" height="3.23077" fill="white" transform="translate(36.4614 333.224)"/>
</clipPath>
<clipPath id="clip12">
<rect width="136.615" height="11.3077" fill="white" transform="translate(36.4614 355.846)"/>
</clipPath>
</defs>
</svg>
