<svg width="180" height="381" viewBox="0 0 180 381" fill="none" xmlns="http://www.w3.org/2000/svg">
<rect width="180" height="380.769" rx="24.1259" fill="#111111"/>
<g filter="url(#filter0_d)">
<g clip-path="url(#clip0)">
<rect x="6.9231" y="6.92316" width="166.154" height="360" rx="19.3846" fill="white"/>
<g filter="url(#filter1_d)">
<rect x="6.9231" y="6.92316" width="166.154" height="41.5385" fill="white"/>
</g>
<g opacity="0.5" clip-path="url(#clip1)">
<path fill-rule="evenodd" clip-rule="evenodd" d="M164.078 37.8463H163.711L163.584 37.7198C164.034 37.195 164.308 36.5147 164.308 35.7693C164.308 34.1124 162.965 32.7693 161.308 32.7693C159.651 32.7693 158.308 34.1124 158.308 35.7693C158.308 37.4263 159.651 38.7693 161.308 38.7693C162.053 38.7693 162.733 38.4961 163.258 38.0466L163.385 38.173V38.5386L165.692 40.8421L166.38 40.1539L164.078 37.8463V37.8463ZM161.308 37.8463C160.16 37.8463 159.231 36.9168 159.231 35.7694C159.231 34.6225 160.16 33.6925 161.308 33.6925C162.454 33.6925 163.384 34.6225 163.384 35.7694C163.384 36.9168 162.454 37.8463 161.308 37.8463V37.8463Z" fill="black"/>
</g>
<g clip-path="url(#clip2)">
<path d="M20.8462 36.556H15.4633L17.9358 34.0835L17.3077 33.4598L13.7693 36.9983L17.3077 40.5368L17.9314 39.9131L15.4633 37.4406H20.8462V36.556Z" fill="black" fill-opacity="0.7"/>
<path d="M36.1389 40.1522V34.2459H37.8832C38.4052 34.2459 38.8676 34.3622 39.2705 34.5948C39.6762 34.8273 39.9899 35.1573 40.2117 35.5846C40.4334 36.0118 40.5443 36.5013 40.5443 37.053V37.3491C40.5443 37.9089 40.4321 38.4011 40.2076 38.8257C39.9858 39.2503 39.6681 39.5775 39.2543 39.8074C38.8433 40.0372 38.3714 40.1522 37.8386 40.1522H36.1389ZM37.1652 35.0734V39.3327H37.8345C38.3727 39.3327 38.7851 39.1651 39.0718 38.8297C39.3611 38.4917 39.5085 38.0076 39.5139 37.3775V37.0489C39.5139 36.408 39.3747 35.9185 39.0961 35.5805C38.8176 35.2425 38.4133 35.0734 37.8832 35.0734H37.1652ZM43.4041 40.2333C42.7794 40.2333 42.2723 40.0372 41.8829 39.6451C41.4962 39.2503 41.3028 38.7256 41.3028 38.0712V37.9495C41.3028 37.5114 41.3867 37.1206 41.5543 36.7772C41.7247 36.431 41.9627 36.1619 42.2683 35.9699C42.5739 35.7779 42.9146 35.6819 43.2905 35.6819C43.8882 35.6819 44.3493 35.8726 44.6738 36.2539C45.001 36.6352 45.1646 37.1747 45.1646 37.8724V38.2699H42.2967C42.3264 38.6323 42.4468 38.919 42.6577 39.1299C42.8714 39.3409 43.1391 39.4463 43.4609 39.4463C43.9125 39.4463 44.2803 39.2638 44.5643 38.8987L45.0957 39.4058C44.9199 39.6681 44.6846 39.8723 44.3898 40.0183C44.0978 40.1616 43.7692 40.2333 43.4041 40.2333ZM43.2865 36.4729C43.016 36.4729 42.797 36.5676 42.6293 36.7569C42.4644 36.9462 42.3589 37.2099 42.3129 37.5479H44.1911V37.4749C44.1694 37.1449 44.0815 36.8962 43.9274 36.7285C43.7732 36.5581 43.5596 36.4729 43.2865 36.4729ZM47.4241 38.9028L48.353 35.763H49.3712L47.85 40.1522H46.9941L45.4607 35.763H46.483L47.4241 38.9028ZM51.8659 40.2333C51.2412 40.2333 50.7342 40.0372 50.3448 39.6451C49.958 39.2503 49.7647 38.7256 49.7647 38.0712V37.9495C49.7647 37.5114 49.8485 37.1206 50.0162 36.7772C50.1866 36.431 50.4245 36.1619 50.7301 35.9699C51.0357 35.7779 51.3765 35.6819 51.7524 35.6819C52.35 35.6819 52.8111 35.8726 53.1356 36.2539C53.4629 36.6352 53.6265 37.1747 53.6265 37.8724V38.2699H50.7585C50.7883 38.6323 50.9086 38.919 51.1196 39.1299C51.3332 39.3409 51.6009 39.4463 51.9227 39.4463C52.3744 39.4463 52.7421 39.2638 53.0261 38.8987L53.5575 39.4058C53.3817 39.6681 53.1464 39.8723 52.8517 40.0183C52.5596 40.1616 52.231 40.2333 51.8659 40.2333ZM51.7483 36.4729C51.4779 36.4729 51.2588 36.5676 51.0912 36.7569C50.9262 36.9462 50.8207 37.2099 50.7748 37.5479H52.6529V37.4749C52.6313 37.1449 52.5434 36.8962 52.3892 36.7285C52.2351 36.5581 52.0214 36.4729 51.7483 36.4729ZM55.4438 40.1522H54.458V33.9214H55.4438V40.1522ZM56.3362 37.917C56.3362 37.487 56.4214 37.1003 56.5918 36.7569C56.7621 36.4107 57.0015 36.1457 57.3098 35.9618C57.618 35.7752 57.9723 35.6819 58.3726 35.6819C58.9648 35.6819 59.4448 35.8726 59.8126 36.2539C60.1831 36.6352 60.3832 37.1409 60.413 37.771L60.417 38.0022C60.417 38.4349 60.3332 38.8216 60.1655 39.1624C60.0006 39.5031 59.7626 39.7668 59.4516 39.9534C59.1433 40.14 58.7863 40.2333 58.3807 40.2333C57.7614 40.2333 57.2651 40.0278 56.8919 39.6167C56.5214 39.2029 56.3362 38.6526 56.3362 37.9657V37.917ZM57.3219 38.0022C57.3219 38.4538 57.4152 38.8081 57.6018 39.065C57.7884 39.3192 58.048 39.4463 58.3807 39.4463C58.7133 39.4463 58.9716 39.3165 59.1555 39.0569C59.3421 38.7973 59.4354 38.4173 59.4354 37.917C59.4354 37.4735 59.3394 37.122 59.1473 36.8623C58.958 36.6027 58.6998 36.4729 58.3726 36.4729C58.0507 36.4729 57.7952 36.6014 57.6059 36.8583C57.4166 37.1125 57.3219 37.4938 57.3219 38.0022ZM65.0942 38.0022C65.0942 38.681 64.94 39.2232 64.6317 39.6289C64.3234 40.0318 63.9097 40.2333 63.3904 40.2333C62.9091 40.2333 62.5237 40.0751 62.2343 39.7587V41.8397H61.2486V35.763H62.1573L62.1978 36.2093C62.4872 35.8577 62.8807 35.6819 63.3783 35.6819C63.9137 35.6819 64.3329 35.882 64.6358 36.2823C64.9414 36.6798 65.0942 37.2328 65.0942 37.9414V38.0022ZM64.1125 37.917C64.1125 37.4789 64.0246 37.1314 63.8488 36.8745C63.6757 36.6176 63.4269 36.4892 63.1024 36.4892C62.6995 36.4892 62.4101 36.6555 62.2343 36.9881V38.9352C62.4128 39.276 62.7049 39.4463 63.1105 39.4463C63.4242 39.4463 63.669 39.3206 63.8448 39.0691C64.0232 38.8149 64.1125 38.4309 64.1125 37.917ZM67.8647 40.2333C67.24 40.2333 66.733 40.0372 66.3436 39.6451C65.9568 39.2503 65.7635 38.7256 65.7635 38.0712V37.9495C65.7635 37.5114 65.8473 37.1206 66.015 36.7772C66.1854 36.431 66.4233 36.1619 66.7289 35.9699C67.0345 35.7779 67.3753 35.6819 67.7512 35.6819C68.3488 35.6819 68.8099 35.8726 69.1344 36.2539C69.4616 36.6352 69.6253 37.1747 69.6253 37.8724V38.2699H66.7573C66.7871 38.6323 66.9074 38.919 67.1183 39.1299C67.332 39.3409 67.5997 39.4463 67.9215 39.4463C68.3732 39.4463 68.7409 39.2638 69.0249 38.8987L69.5563 39.4058C69.3805 39.6681 69.1452 39.8723 68.8505 40.0183C68.5584 40.1616 68.2298 40.2333 67.8647 40.2333ZM67.7471 36.4729C67.4767 36.4729 67.2576 36.5676 67.09 36.7569C66.925 36.9462 66.8195 37.2099 66.7735 37.5479H68.6517V37.4749C68.6301 37.1449 68.5422 36.8962 68.388 36.7285C68.2339 36.5581 68.0202 36.4729 67.7471 36.4729ZM72.692 36.6636C72.5622 36.6419 72.4283 36.6311 72.2904 36.6311C71.8388 36.6311 71.5345 36.8042 71.3777 37.1504V40.1522H70.3919V35.763H71.333L71.3574 36.2539C71.5954 35.8726 71.9253 35.6819 72.3472 35.6819C72.4878 35.6819 72.6041 35.7008 72.696 35.7387L72.692 36.6636ZM75.1989 37.917C75.1989 37.487 75.2841 37.1003 75.4544 36.7569C75.6248 36.4107 75.8641 36.1457 76.1724 35.9618C76.4807 35.7752 76.835 35.6819 77.2352 35.6819C77.8275 35.6819 78.3075 35.8726 78.6753 36.2539C79.0458 36.6352 79.2459 37.1409 79.2756 37.771L79.2797 38.0022C79.2797 38.4349 79.1959 38.8216 79.0282 39.1624C78.8632 39.5031 78.6253 39.7668 78.3143 39.9534C78.006 40.14 77.649 40.2333 77.2433 40.2333C76.6241 40.2333 76.1278 40.0278 75.7546 39.6167C75.3841 39.2029 75.1989 38.6526 75.1989 37.9657V37.917ZM76.1846 38.0022C76.1846 38.4538 76.2779 38.8081 76.4645 39.065C76.6511 39.3192 76.9107 39.4463 77.2433 39.4463C77.576 39.4463 77.8342 39.3165 78.0181 39.0569C78.2047 38.7973 78.298 38.4173 78.298 37.917C78.298 37.4735 78.202 37.122 78.01 36.8623C77.8207 36.6027 77.5625 36.4729 77.2352 36.4729C76.9134 36.4729 76.6579 36.6014 76.4686 36.8583C76.2793 37.1125 76.1846 37.4938 76.1846 38.0022ZM83.9568 38.0022C83.9568 38.681 83.8027 39.2232 83.4944 39.6289C83.1861 40.0318 82.7723 40.2333 82.2531 40.2333C81.7717 40.2333 81.3864 40.0751 81.097 39.7587V41.8397H80.1113V35.763H81.0199L81.0605 36.2093C81.3499 35.8577 81.7433 35.6819 82.2409 35.6819C82.7764 35.6819 83.1956 35.882 83.4985 36.2823C83.804 36.6798 83.9568 37.2328 83.9568 37.9414V38.0022ZM82.9752 37.917C82.9752 37.4789 82.8873 37.1314 82.7115 36.8745C82.5384 36.6176 82.2896 36.4892 81.9651 36.4892C81.5622 36.4892 81.2728 36.6555 81.097 36.9881V38.9352C81.2755 39.276 81.5676 39.4463 81.9732 39.4463C82.2869 39.4463 82.5317 39.3206 82.7074 39.0691C82.8859 38.8149 82.9752 38.4309 82.9752 37.917ZM86.0297 34.6962V35.763H86.8045V36.4932H86.0297V38.9433C86.0297 39.111 86.0622 39.2327 86.1271 39.3084C86.1947 39.3814 86.3137 39.4179 86.484 39.4179C86.5976 39.4179 86.7125 39.4044 86.8288 39.3774V40.14C86.6044 40.2022 86.388 40.2333 86.1798 40.2333C85.4226 40.2333 85.044 39.8155 85.044 38.9798V36.4932H84.3219V35.763H85.044V34.6962H86.0297ZM88.6096 40.1522H87.6239V35.763H88.6096V40.1522ZM87.5631 34.6232C87.5631 34.4717 87.6104 34.346 87.705 34.2459C87.8024 34.1459 87.9403 34.0958 88.1188 34.0958C88.2973 34.0958 88.4352 34.1459 88.5326 34.2459C88.6299 34.346 88.6786 34.4717 88.6786 34.6232C88.6786 34.7719 88.6299 34.8963 88.5326 34.9964C88.4352 35.0937 88.2973 35.1424 88.1188 35.1424C87.9403 35.1424 87.8024 35.0937 87.705 34.9964C87.6104 34.8963 87.5631 34.7719 87.5631 34.6232ZM89.5021 37.917C89.5021 37.487 89.5872 37.1003 89.7576 36.7569C89.928 36.4107 90.1673 36.1457 90.4756 35.9618C90.7839 35.7752 91.1382 35.6819 91.5384 35.6819C92.1307 35.6819 92.6107 35.8726 92.9785 36.2539C93.349 36.6352 93.5491 37.1409 93.5788 37.771L93.5829 38.0022C93.5829 38.4349 93.4991 38.8216 93.3314 39.1624C93.1664 39.5031 92.9284 39.7668 92.6174 39.9534C92.3092 40.14 91.9522 40.2333 91.5465 40.2333C90.9272 40.2333 90.431 40.0278 90.0578 39.6167C89.6873 39.2029 89.5021 38.6526 89.5021 37.9657V37.917ZM90.4878 38.0022C90.4878 38.4538 90.5811 38.8081 90.7677 39.065C90.9543 39.3192 91.2139 39.4463 91.5465 39.4463C91.8792 39.4463 92.1374 39.3165 92.3213 39.0569C92.5079 38.7973 92.6012 38.4173 92.6012 37.917C92.6012 37.4735 92.5052 37.122 92.3132 36.8623C92.1239 36.6027 91.8656 36.4729 91.5384 36.4729C91.2166 36.4729 90.961 36.6014 90.7717 36.8583C90.5824 37.1125 90.4878 37.4938 90.4878 38.0022ZM95.3312 35.763L95.3596 36.2701C95.6842 35.878 96.1101 35.6819 96.6374 35.6819C97.5515 35.6819 98.0166 36.2052 98.0329 37.2518V40.1522H97.0471V37.3086C97.0471 37.03 96.9863 36.8245 96.8646 36.692C96.7456 36.5568 96.5495 36.4892 96.2764 36.4892C95.8789 36.4892 95.5827 36.669 95.388 37.0287V40.1522H94.4023V35.763H95.3312ZM101.501 38.9596C101.501 38.7838 101.428 38.6499 101.282 38.558C101.139 38.466 100.899 38.3849 100.564 38.3146C100.229 38.2443 99.9489 38.155 99.7244 38.0468C99.2322 37.8089 98.9861 37.4641 98.9861 37.0124C98.9861 36.6338 99.1457 36.3174 99.4648 36.0632C99.7839 35.809 100.19 35.6819 100.682 35.6819C101.206 35.6819 101.63 35.8117 101.951 36.0713C102.276 36.3309 102.438 36.6676 102.438 37.0814H101.452C101.452 36.8921 101.382 36.7352 101.242 36.6108C101.101 36.4837 100.914 36.4202 100.682 36.4202C100.465 36.4202 100.288 36.4702 100.15 36.5703C100.015 36.6703 99.9475 36.8042 99.9475 36.9719C99.9475 37.1233 100.011 37.241 100.138 37.3248C100.265 37.4086 100.522 37.4938 100.909 37.5803C101.296 37.6642 101.599 37.7656 101.818 37.8846C102.039 38.0009 102.203 38.1415 102.308 38.3065C102.417 38.4714 102.471 38.6715 102.471 38.9068C102.471 39.3016 102.307 39.6221 101.98 39.8682C101.653 40.1116 101.224 40.2333 100.694 40.2333C100.334 40.2333 100.014 40.1684 99.7325 40.0386C99.4513 39.9088 99.2322 39.7303 99.0754 39.5031C98.9185 39.276 98.8401 39.0312 98.8401 38.7689H99.7974C99.811 39.0015 99.8988 39.1813 100.061 39.3084C100.223 39.4328 100.438 39.495 100.706 39.495C100.966 39.495 101.163 39.4463 101.298 39.349C101.434 39.2489 101.501 39.1191 101.501 38.9596Z" fill="black" fill-opacity="0.7"/>
</g>
<path fill-rule="evenodd" clip-rule="evenodd" d="M162.066 18.4942C162.245 18.793 162.678 18.793 162.857 18.4942L164.811 15.2375C164.996 14.9298 164.774 14.5385 164.416 14.5385H160.507C160.149 14.5385 159.927 14.9298 160.112 15.2375L162.066 18.4942ZM152.308 16.8461C152.308 15.5716 153.341 14.5385 154.615 14.5385C155.89 14.5385 156.923 15.5716 156.923 16.8461C156.923 18.1206 155.89 19.1538 154.615 19.1538C153.341 19.1538 152.308 18.1206 152.308 16.8461ZM148.615 15C148.615 14.7451 148.409 14.5385 148.154 14.5385H144.462C144.207 14.5385 144 14.7451 144 15V18.6923C144 18.9472 144.207 19.1539 144.462 19.1539H148.154C148.409 19.1539 148.615 18.9472 148.615 18.6923V15Z" fill="black" fill-opacity="0.5"/>
<path fill-rule="evenodd" clip-rule="evenodd" d="M30.2307 16.8462C30.2307 16.2089 30.7473 15.6923 31.3846 15.6923H40.6153C41.2526 15.6923 41.7692 16.2089 41.7692 16.8462V16.8462C41.7692 17.4834 41.2526 18 40.6153 18H31.3846C30.7473 18 30.2307 17.4834 30.2307 16.8462V16.8462Z" fill="black" fill-opacity="0.5"/>
<rect width="166.154" height="22.6089" transform="translate(6.9231 48.4617)" fill="#2AA8DE"/>
<g clip-path="url(#clip3)">
<path fill-rule="evenodd" clip-rule="evenodd" d="M36.2307 59.7661C36.2307 58.8739 36.9539 58.1507 37.8461 58.1507H48.4615C49.3536 58.1507 50.0769 58.8739 50.0769 59.7661V59.7661C50.0769 60.6582 49.3536 61.3815 48.4615 61.3815H37.8461C36.9539 61.3815 36.2307 60.6582 36.2307 59.7661V59.7661Z" fill="white"/>
<rect x="154.154" y="56.7684" width="12.913" height="5.99531" rx="2.99766" fill="#DEDEDE"/>
<circle cx="162.916" cy="59.7661" r="4.1506" fill="white"/>
</g>
<rect x="154.385" y="84.8034" width="12.913" height="5.99531" rx="2.99766" fill="#DEDEDE"/>
<circle cx="163.147" cy="87.8011" r="4.1506" fill="#9F9F9F"/>
<path d="M39.6655 83.5375C39.6655 84.0198 39.5843 84.4412 39.4221 84.8018C39.2598 85.1601 39.0299 85.434 38.7325 85.6233C38.435 85.8126 38.0879 85.9072 37.6913 85.9072C37.3037 85.9072 36.96 85.8126 36.6603 85.6233C36.3605 85.4317 36.1273 85.1601 35.9605 84.8086C35.796 84.4548 35.7115 84.0457 35.707 83.5815V83.2265C35.707 82.7533 35.7893 82.3352 35.9538 81.9724C36.1183 81.6096 36.3504 81.3324 36.6501 81.1408C36.9521 80.947 37.2969 80.8501 37.6845 80.8501C38.0789 80.8501 38.426 80.9459 38.7257 81.1375C39.0277 81.3268 39.2598 81.6028 39.4221 81.9657C39.5843 82.3262 39.6655 82.7465 39.6655 83.2265V83.5375ZM39.0198 83.2198C39.0198 82.6361 38.9026 82.1888 38.6682 81.8778C38.4339 81.5645 38.106 81.4079 37.6845 81.4079C37.2744 81.4079 36.951 81.5645 36.7144 81.8778C36.48 82.1888 36.3594 82.6215 36.3527 83.1758V83.5375C36.3527 84.1032 36.471 84.5483 36.7076 84.8728C36.9465 85.1951 37.2744 85.3562 37.6913 85.3562C38.1105 85.3562 38.435 85.2041 38.6649 84.8998C38.8947 84.5934 39.013 84.155 39.0198 83.5849V83.2198ZM43.4211 83.5646H41.288V85.3089H43.7659V85.8396H40.639V80.9177H43.7321V81.4518H41.288V83.0339H43.4211V83.5646ZM45.4121 80.9177L47.0212 84.9337L48.6303 80.9177H49.472V85.8396H48.823V83.9229L48.8838 81.8541L47.268 85.8396H46.7711L45.1586 81.8642L45.2228 83.9229V85.8396H44.5738V80.9177H45.4121ZM54.4953 85.4779C54.2519 85.7641 53.8947 85.9072 53.4237 85.9072C53.0338 85.9072 52.7364 85.7945 52.5313 85.5692C52.3285 85.3416 52.2259 85.0058 52.2237 84.5618V82.182H52.849V84.5449C52.849 85.0993 53.0744 85.3765 53.5251 85.3765C54.0029 85.3765 54.3207 85.1984 54.4784 84.8424V82.182H55.1038V85.8396H54.5088L54.4953 85.4779ZM56.6486 82.182L56.6689 82.6417C56.9484 82.2902 57.3134 82.1144 57.7642 82.1144C58.5371 82.1144 58.927 82.5505 58.9338 83.4226V85.8396H58.3084V83.4192C58.3062 83.1556 58.2453 82.9606 58.1259 82.8344C58.0087 82.7082 57.825 82.6451 57.5749 82.6451C57.372 82.6451 57.194 82.6992 57.0408 82.8074C56.8875 82.9155 56.7681 83.0575 56.6824 83.2333V85.8396H56.0571V82.182H56.6486ZM60.5564 85.8396H59.931V80.6473H60.5564V85.8396ZM61.3947 83.977C61.3947 83.6187 61.4646 83.2964 61.6043 83.0102C61.7463 82.724 61.9423 82.5031 62.1925 82.3476C62.4449 82.1921 62.7322 82.1144 63.0545 82.1144C63.5525 82.1144 63.9548 82.2868 64.2613 82.6316C64.5701 82.9764 64.7244 83.435 64.7244 84.0074V84.0514C64.7244 84.4074 64.6557 84.7274 64.5182 85.0114C64.383 85.2931 64.1881 85.5128 63.9334 85.6706C63.681 85.8283 63.3903 85.9072 63.0613 85.9072C62.5655 85.9072 62.1632 85.7348 61.8545 85.39C61.548 85.0452 61.3947 84.5888 61.3947 84.0209V83.977ZM62.0235 84.0514C62.0235 84.457 62.117 84.7827 62.3041 85.0283C62.4934 85.2739 62.7458 85.3968 63.0613 85.3968C63.379 85.3968 63.6314 85.2728 63.8185 85.0249C64.0055 84.7748 64.099 84.4255 64.099 83.977C64.099 83.5759 64.0033 83.2513 63.8117 83.0034C63.6224 82.7533 63.37 82.6282 63.0545 82.6282C62.7458 82.6282 62.4967 82.751 62.3074 82.9967C62.1181 83.2423 62.0235 83.5939 62.0235 84.0514ZM66.9758 85.3968C67.1989 85.3968 67.3938 85.3292 67.5606 85.1939C67.7274 85.0587 67.8197 84.8897 67.8378 84.6869H68.4293C68.4181 84.8965 68.346 85.0959 68.213 85.2852C68.08 85.4745 67.902 85.6255 67.6789 85.7382C67.458 85.8509 67.2237 85.9072 66.9758 85.9072C66.4777 85.9072 66.0811 85.7416 65.7859 85.4103C65.4929 85.0768 65.3464 84.6215 65.3464 84.0446V83.9398C65.3464 83.5837 65.4118 83.2671 65.5425 82.9899C65.6732 82.7127 65.8602 82.4975 66.1036 82.3443C66.3493 82.191 66.6389 82.1144 66.9724 82.1144C67.3825 82.1144 67.7228 82.2372 67.9933 82.4829C68.266 82.7285 68.4113 83.0474 68.4293 83.4395H67.8378C67.8197 83.2029 67.7296 83.0091 67.5673 82.8581C67.4073 82.7048 67.209 82.6282 66.9724 82.6282C66.6546 82.6282 66.4079 82.7431 66.2321 82.973C66.0586 83.2006 65.9718 83.5308 65.9718 83.9635V84.0818C65.9718 84.5032 66.0586 84.8277 66.2321 85.0553C66.4056 85.283 66.6535 85.3968 66.9758 85.3968ZM70.1534 84.146L69.7612 84.555V85.8396H69.1359V80.6473H69.7612V83.7877L70.0959 83.3854L71.2351 82.182H71.9957L70.5725 83.7099L72.1613 85.8396H71.4278L70.1534 84.146ZM73.3208 85.8396H72.6954V82.182H73.3208V85.8396ZM72.6447 81.2118C72.6447 81.1104 72.6751 81.0248 72.736 80.9549C72.7991 80.885 72.8915 80.8501 73.0132 80.8501C73.1349 80.8501 73.2273 80.885 73.2904 80.9549C73.3535 81.0248 73.385 81.1104 73.385 81.2118C73.385 81.3132 73.3535 81.3977 73.2904 81.4654C73.2273 81.533 73.1349 81.5668 73.0132 81.5668C72.8915 81.5668 72.7991 81.533 72.736 81.4654C72.6751 81.3977 72.6447 81.3132 72.6447 81.2118ZM74.9164 82.182L74.9366 82.6417C75.2161 82.2902 75.5812 82.1144 76.0319 82.1144C76.8049 82.1144 77.1947 82.5505 77.2015 83.4226V85.8396H76.5761V83.4192C76.5739 83.1556 76.513 82.9606 76.3936 82.8344C76.2764 82.7082 76.0927 82.6451 75.8426 82.6451C75.6398 82.6451 75.4617 82.6992 75.3085 82.8074C75.1552 82.9155 75.0358 83.0575 74.9502 83.2333V85.8396H74.3248V82.182H74.9164ZM77.9959 83.9804C77.9959 83.4102 78.1277 82.9572 78.3914 82.6215C78.6551 82.2834 79.0044 82.1144 79.4393 82.1144C79.8856 82.1144 80.2337 82.2721 80.4839 82.5876L80.5143 82.182H81.0856V85.7517C81.0856 86.225 80.9447 86.5979 80.663 86.8706C80.3836 87.1433 80.0072 87.2797 79.534 87.2797C79.2703 87.2797 79.0123 87.2233 78.7599 87.1106C78.5075 86.998 78.3148 86.8436 78.1818 86.6475L78.5063 86.2723C78.7745 86.6036 79.1024 86.7692 79.49 86.7692C79.7943 86.7692 80.0309 86.6836 80.1999 86.5123C80.3712 86.341 80.4568 86.0999 80.4568 85.7889V85.4745C80.2067 85.763 79.8653 85.9072 79.4326 85.9072C79.0044 85.9072 78.6573 85.7348 78.3914 85.39C78.1277 85.0452 77.9959 84.5753 77.9959 83.9804ZM78.6247 84.0514C78.6247 84.4638 78.7092 84.7883 78.8782 85.0249C79.0472 85.2593 79.2838 85.3765 79.5881 85.3765C79.9825 85.3765 80.272 85.1973 80.4568 84.839V83.1691C80.2653 82.8198 79.978 82.6451 79.5948 82.6451C79.2906 82.6451 79.0528 82.7634 78.8816 83.0001C78.7103 83.2367 78.6247 83.5871 78.6247 84.0514Z" fill="black" fill-opacity="0.8"/>
<path d="M38.1587 93.9571H36.3716L35.9702 95.0704H35.3901L37.019 90.8047H37.5112L39.1431 95.0704H38.5659L38.1587 93.9571ZM36.5415 93.4942H37.9917L37.2651 91.4991L36.5415 93.4942ZM40.2212 95.0704H39.6792V90.5704H40.2212V95.0704ZM41.6802 95.0704H41.1382V90.5704H41.6802V95.0704ZM42.4067 93.4561C42.4067 93.1456 42.4673 92.8663 42.5884 92.6182C42.7114 92.3702 42.8813 92.1788 43.0981 92.044C43.3169 91.9092 43.5659 91.8419 43.8452 91.8419C44.2769 91.8419 44.6255 91.9913 44.8911 92.2901C45.1587 92.5889 45.2925 92.9864 45.2925 93.4825V93.5206C45.2925 93.8292 45.2329 94.1065 45.1138 94.3526C44.9966 94.5967 44.8276 94.7872 44.6069 94.9239C44.3882 95.0606 44.1362 95.129 43.8511 95.129C43.4214 95.129 43.0728 94.9796 42.8052 94.6807C42.5396 94.3819 42.4067 93.9864 42.4067 93.4942V93.4561ZM42.9517 93.5206C42.9517 93.8721 43.0327 94.1544 43.1948 94.3672C43.3589 94.5801 43.5776 94.6866 43.8511 94.6866C44.1265 94.6866 44.3452 94.5792 44.5073 94.3643C44.6694 94.1475 44.7505 93.8448 44.7505 93.4561C44.7505 93.1085 44.6675 92.8272 44.5015 92.6124C44.3374 92.3956 44.1187 92.2872 43.8452 92.2872C43.5776 92.2872 43.3618 92.3936 43.1978 92.6065C43.0337 92.8194 42.9517 93.1241 42.9517 93.5206ZM48.7788 94.3233L49.3882 91.9005H49.9302L49.0073 95.0704H48.5679L47.7974 92.668L47.0474 95.0704H46.6079L45.688 91.9005H46.2271L46.8511 94.2735L47.5894 91.9005H48.0259L48.7788 94.3233ZM52.7075 91.1329V91.9005H53.2993V92.3194H52.7075V94.2852C52.7075 94.4122 52.7339 94.5079 52.7866 94.5723C52.8394 94.6348 52.9292 94.6661 53.0562 94.6661C53.1187 94.6661 53.2046 94.6544 53.314 94.6309V95.0704C53.1714 95.1094 53.0327 95.129 52.8979 95.129C52.6558 95.129 52.4731 95.0557 52.3501 94.9092C52.2271 94.7628 52.1655 94.5547 52.1655 94.2852V92.3194H51.5884V91.9005H52.1655V91.1329H52.7075ZM54.4771 92.2842C54.7173 91.9893 55.0298 91.8419 55.4146 91.8419C56.0845 91.8419 56.4224 92.2198 56.4282 92.9756V95.0704H55.8862V92.9727C55.8843 92.7442 55.8315 92.5753 55.728 92.4659C55.6265 92.3565 55.4673 92.3018 55.2505 92.3018C55.0747 92.3018 54.9204 92.3487 54.7876 92.4424C54.6548 92.5362 54.5513 92.6592 54.4771 92.8116V95.0704H53.9351V90.5704H54.4771V92.2842ZM58.5552 95.129C58.1255 95.129 57.7759 94.9883 57.5063 94.7071C57.2368 94.4239 57.1021 94.046 57.1021 93.5733V93.4737C57.1021 93.1592 57.1616 92.879 57.2808 92.6329C57.4019 92.3848 57.5698 92.1915 57.7847 92.0528C58.0015 91.9122 58.2358 91.8419 58.4878 91.8419C58.8999 91.8419 59.2202 91.9776 59.4487 92.2491C59.6772 92.5206 59.7915 92.9092 59.7915 93.4151V93.6407H57.644C57.6519 93.9532 57.7427 94.2061 57.9165 94.3995C58.0923 94.5909 58.3149 94.6866 58.5845 94.6866C58.7759 94.6866 58.938 94.6475 59.0708 94.5694C59.2036 94.4913 59.3198 94.3878 59.4194 94.2589L59.7505 94.5167C59.4849 94.9249 59.0864 95.129 58.5552 95.129ZM58.4878 92.2872C58.269 92.2872 58.0854 92.3672 57.937 92.5274C57.7886 92.6856 57.6968 92.9083 57.6616 93.1954H59.2495V93.1544C59.2339 92.879 59.1597 92.6661 59.0269 92.5157C58.894 92.3633 58.7144 92.2872 58.4878 92.2872ZM64.5933 93.5206C64.5933 94.0049 64.4819 94.3946 64.2593 94.6895C64.0366 94.9825 63.7378 95.129 63.3628 95.129C62.9624 95.129 62.6528 94.9874 62.4341 94.7042L62.4077 95.0704H61.9097V90.5704H62.4517V92.2491C62.6704 91.9776 62.9722 91.8419 63.3569 91.8419C63.7417 91.8419 64.0435 91.9874 64.2622 92.2784C64.4829 92.5694 64.5933 92.9678 64.5933 93.4737V93.5206ZM64.0513 93.459C64.0513 93.0899 63.98 92.8047 63.8374 92.6036C63.6948 92.4024 63.4897 92.3018 63.2222 92.3018C62.8647 92.3018 62.6079 92.4678 62.4517 92.7999V94.171C62.6177 94.503 62.8765 94.669 63.228 94.669C63.4878 94.669 63.6899 94.5684 63.8345 94.3672C63.979 94.1661 64.0513 93.8633 64.0513 93.459ZM65.1353 93.4561C65.1353 93.1456 65.1958 92.8663 65.3169 92.6182C65.4399 92.3702 65.6099 92.1788 65.8267 92.044C66.0454 91.9092 66.2944 91.8419 66.5737 91.8419C67.0054 91.8419 67.354 91.9913 67.6196 92.2901C67.8872 92.5889 68.021 92.9864 68.021 93.4825V93.5206C68.021 93.8292 67.9614 94.1065 67.8423 94.3526C67.7251 94.5967 67.5562 94.7872 67.3354 94.9239C67.1167 95.0606 66.8647 95.129 66.5796 95.129C66.1499 95.129 65.8013 94.9796 65.5337 94.6807C65.2681 94.3819 65.1353 93.9864 65.1353 93.4942V93.4561ZM65.6802 93.5206C65.6802 93.8721 65.7612 94.1544 65.9233 94.3672C66.0874 94.5801 66.3062 94.6866 66.5796 94.6866C66.855 94.6866 67.0737 94.5792 67.2358 94.3643C67.3979 94.1475 67.479 93.8448 67.479 93.4561C67.479 93.1085 67.396 92.8272 67.23 92.6124C67.0659 92.3956 66.8472 92.2872 66.5737 92.2872C66.3062 92.2872 66.0903 92.3936 65.9263 92.6065C65.7622 92.8194 65.6802 93.1241 65.6802 93.5206ZM68.5571 93.4561C68.5571 93.1456 68.6177 92.8663 68.7388 92.6182C68.8618 92.3702 69.0317 92.1788 69.2485 92.044C69.4673 91.9092 69.7163 91.8419 69.9956 91.8419C70.4272 91.8419 70.7759 91.9913 71.0415 92.2901C71.3091 92.5889 71.4429 92.9864 71.4429 93.4825V93.5206C71.4429 93.8292 71.3833 94.1065 71.2642 94.3526C71.147 94.5967 70.978 94.7872 70.7573 94.9239C70.5386 95.0606 70.2866 95.129 70.0015 95.129C69.5718 95.129 69.2231 94.9796 68.9556 94.6807C68.6899 94.3819 68.5571 93.9864 68.5571 93.4942V93.4561ZM69.1021 93.5206C69.1021 93.8721 69.1831 94.1544 69.3452 94.3672C69.5093 94.5801 69.728 94.6866 70.0015 94.6866C70.2769 94.6866 70.4956 94.5792 70.6577 94.3643C70.8198 94.1475 70.9009 93.8448 70.9009 93.4561C70.9009 93.1085 70.8179 92.8272 70.6519 92.6124C70.4878 92.3956 70.269 92.2872 69.9956 92.2872C69.728 92.2872 69.5122 92.3936 69.3481 92.6065C69.1841 92.8194 69.1021 93.1241 69.1021 93.5206ZM72.8579 91.1329V91.9005H73.4497V92.3194H72.8579V94.2852C72.8579 94.4122 72.8843 94.5079 72.937 94.5723C72.9897 94.6348 73.0796 94.6661 73.2065 94.6661C73.269 94.6661 73.355 94.6544 73.4644 94.6309V95.0704C73.3218 95.1094 73.1831 95.129 73.0483 95.129C72.8062 95.129 72.6235 95.0557 72.5005 94.9092C72.3774 94.7628 72.3159 94.5547 72.3159 94.2852V92.3194H71.7388V91.9005H72.3159V91.1329H72.8579ZM74.6743 95.0704H74.1323V90.5704H74.6743V95.0704ZM75.4009 93.4561C75.4009 93.1456 75.4614 92.8663 75.5825 92.6182C75.7056 92.3702 75.8755 92.1788 76.0923 92.044C76.311 91.9092 76.5601 91.8419 76.8394 91.8419C77.271 91.8419 77.6196 91.9913 77.8853 92.2901C78.1528 92.5889 78.2866 92.9864 78.2866 93.4825V93.5206C78.2866 93.8292 78.2271 94.1065 78.1079 94.3526C77.9907 94.5967 77.8218 94.7872 77.6011 94.9239C77.3823 95.0606 77.1304 95.129 76.8452 95.129C76.4155 95.129 76.0669 94.9796 75.7993 94.6807C75.5337 94.3819 75.4009 93.9864 75.4009 93.4942V93.4561ZM75.9458 93.5206C75.9458 93.8721 76.0269 94.1544 76.189 94.3672C76.353 94.5801 76.5718 94.6866 76.8452 94.6866C77.1206 94.6866 77.3394 94.5792 77.5015 94.3643C77.6636 94.1475 77.7446 93.8448 77.7446 93.4561C77.7446 93.1085 77.6616 92.8272 77.4956 92.6124C77.3315 92.3956 77.1128 92.2872 76.8394 92.2872C76.5718 92.2872 76.356 92.3936 76.1919 92.6065C76.0278 92.8194 75.9458 93.1241 75.9458 93.5206ZM80.9233 95.0704C80.8921 95.0079 80.8667 94.8965 80.8472 94.7364C80.5952 94.9981 80.2944 95.129 79.9448 95.129C79.6323 95.129 79.3755 95.0411 79.1743 94.8653C78.9751 94.6876 78.8755 94.463 78.8755 94.1915C78.8755 93.8614 79.0005 93.6055 79.2505 93.4239C79.5024 93.2403 79.856 93.1485 80.311 93.1485H80.8384V92.8995C80.8384 92.71 80.7817 92.5596 80.6685 92.4483C80.5552 92.335 80.3882 92.2784 80.1675 92.2784C79.9741 92.2784 79.812 92.3272 79.6812 92.4249C79.5503 92.5225 79.4849 92.6407 79.4849 92.7794H78.9399C78.9399 92.6212 78.9956 92.4688 79.1069 92.3223C79.2202 92.1739 79.3726 92.0567 79.564 91.9708C79.7573 91.8848 79.9692 91.8419 80.1997 91.8419C80.5649 91.8419 80.8511 91.9337 81.0581 92.1172C81.2651 92.2989 81.3726 92.5499 81.3804 92.8702V94.3292C81.3804 94.6202 81.4175 94.8516 81.4917 95.0235V95.0704H80.9233ZM80.0239 94.6573C80.1938 94.6573 80.355 94.6133 80.5073 94.5255C80.6597 94.4376 80.77 94.3233 80.8384 94.1827V93.5323H80.4136C79.7495 93.5323 79.4175 93.7266 79.4175 94.1153C79.4175 94.2852 79.4741 94.418 79.5874 94.5137C79.7007 94.6094 79.8462 94.6573 80.0239 94.6573ZM82.0981 93.459C82.0981 92.9727 82.2134 92.5821 82.4438 92.2872C82.6743 91.9903 82.9761 91.8419 83.3491 91.8419C83.7202 91.8419 84.0142 91.9688 84.231 92.2227V90.5704H84.7729V95.0704H84.2749L84.2485 94.7305C84.0317 94.9962 83.73 95.129 83.3433 95.129C82.9761 95.129 82.6763 94.9786 82.4438 94.6778C82.2134 94.377 82.0981 93.9844 82.0981 93.5001V93.459ZM82.6401 93.5206C82.6401 93.8799 82.7144 94.1612 82.8628 94.3643C83.0112 94.5674 83.2163 94.669 83.478 94.669C83.8218 94.669 84.0728 94.5147 84.231 94.2061V92.7501C84.0688 92.4512 83.8198 92.3018 83.4839 92.3018C83.2183 92.3018 83.0112 92.4044 82.8628 92.6094C82.7144 92.8145 82.6401 93.1182 82.6401 93.5206ZM86.9321 95.129C86.5024 95.129 86.1528 94.9883 85.8833 94.7071C85.6138 94.4239 85.479 94.046 85.479 93.5733V93.4737C85.479 93.1592 85.5386 92.879 85.6577 92.6329C85.7788 92.3848 85.9468 92.1915 86.1616 92.0528C86.3784 91.9122 86.6128 91.8419 86.8647 91.8419C87.2769 91.8419 87.5972 91.9776 87.8257 92.2491C88.0542 92.5206 88.1685 92.9092 88.1685 93.4151V93.6407H86.021C86.0288 93.9532 86.1196 94.2061 86.2935 94.3995C86.4692 94.5909 86.6919 94.6866 86.9614 94.6866C87.1528 94.6866 87.3149 94.6475 87.4478 94.5694C87.5806 94.4913 87.6968 94.3878 87.7964 94.2589L88.1274 94.5167C87.8618 94.9249 87.4634 95.129 86.9321 95.129ZM86.8647 92.2872C86.646 92.2872 86.4624 92.3672 86.314 92.5274C86.1655 92.6856 86.0737 92.9083 86.0386 93.1954H87.6265V93.1544C87.6108 92.879 87.5366 92.6661 87.4038 92.5157C87.271 92.3633 87.0913 92.2872 86.8647 92.2872ZM90.3306 92.3868C90.2485 92.3731 90.1597 92.3663 90.064 92.3663C89.7085 92.3663 89.4673 92.5176 89.3403 92.8204V95.0704H88.7983V91.9005H89.3257L89.3345 92.2667C89.5122 91.9835 89.7642 91.8419 90.0903 91.8419C90.1958 91.8419 90.2759 91.8555 90.3306 91.8829V92.3868ZM93.0552 91.1329V91.9005H93.647V92.3194H93.0552V94.2852C93.0552 94.4122 93.0815 94.5079 93.1343 94.5723C93.187 94.6348 93.2769 94.6661 93.4038 94.6661C93.4663 94.6661 93.5522 94.6544 93.6616 94.6309V95.0704C93.519 95.1094 93.3804 95.129 93.2456 95.129C93.0034 95.129 92.8208 95.0557 92.6978 94.9092C92.5747 94.7628 92.5132 94.5547 92.5132 94.2852V92.3194H91.936V91.9005H92.5132V91.1329H93.0552ZM94.0806 93.4561C94.0806 93.1456 94.1411 92.8663 94.2622 92.6182C94.3853 92.3702 94.5552 92.1788 94.772 92.044C94.9907 91.9092 95.2397 91.8419 95.519 91.8419C95.9507 91.8419 96.2993 91.9913 96.5649 92.2901C96.8325 92.5889 96.9663 92.9864 96.9663 93.4825V93.5206C96.9663 93.8292 96.9067 94.1065 96.7876 94.3526C96.6704 94.5967 96.5015 94.7872 96.2808 94.9239C96.062 95.0606 95.8101 95.129 95.5249 95.129C95.0952 95.129 94.7466 94.9796 94.479 94.6807C94.2134 94.3819 94.0806 93.9864 94.0806 93.4942V93.4561ZM94.6255 93.5206C94.6255 93.8721 94.7065 94.1544 94.8687 94.3672C95.0327 94.5801 95.2515 94.6866 95.5249 94.6866C95.8003 94.6866 96.019 94.5792 96.1812 94.3643C96.3433 94.1475 96.4243 93.8448 96.4243 93.4561C96.4243 93.1085 96.3413 92.8272 96.1753 92.6124C96.0112 92.3956 95.7925 92.2872 95.519 92.2872C95.2515 92.2872 95.0356 92.3936 94.8716 92.6065C94.7075 92.8194 94.6255 93.1241 94.6255 93.5206ZM101.818 93.5206C101.818 94.0049 101.707 94.3946 101.484 94.6895C101.261 94.9825 100.962 95.129 100.587 95.129C100.187 95.129 99.8774 94.9874 99.6587 94.7042L99.6323 95.0704H99.1343V90.5704H99.6763V92.2491C99.895 91.9776 100.197 91.8419 100.582 91.8419C100.966 91.8419 101.268 91.9874 101.487 92.2784C101.708 92.5694 101.818 92.9678 101.818 93.4737V93.5206ZM101.276 93.459C101.276 93.0899 101.205 92.8047 101.062 92.6036C100.919 92.4024 100.714 92.3018 100.447 92.3018C100.089 92.3018 99.8325 92.4678 99.6763 92.7999V94.171C99.8423 94.503 100.101 94.669 100.453 94.669C100.712 94.669 100.915 94.5684 101.059 94.3672C101.204 94.1661 101.276 93.8633 101.276 93.459ZM103.819 95.129C103.389 95.129 103.04 94.9883 102.77 94.7071C102.5 94.4239 102.366 94.046 102.366 93.5733V93.4737C102.366 93.1592 102.425 92.879 102.544 92.6329C102.666 92.3848 102.833 92.1915 103.048 92.0528C103.265 91.9122 103.5 91.8419 103.751 91.8419C104.164 91.8419 104.484 91.9776 104.712 92.2491C104.941 92.5206 105.055 92.9092 105.055 93.4151V93.6407H102.908C102.916 93.9532 103.006 94.2061 103.18 94.3995C103.356 94.5909 103.579 94.6866 103.848 94.6866C104.04 94.6866 104.202 94.6475 104.334 94.5694C104.467 94.4913 104.583 94.3878 104.683 94.2589L105.014 94.5167C104.749 94.9249 104.35 95.129 103.819 95.129ZM103.751 92.2872C103.533 92.2872 103.349 92.3672 103.201 92.5274C103.052 92.6856 102.96 92.9083 102.925 93.1954H104.513V93.1544C104.498 92.879 104.423 92.6661 104.291 92.5157C104.158 92.3633 103.978 92.2872 103.751 92.2872ZM109.13 94.7569C108.919 95.0049 108.61 95.129 108.202 95.129C107.864 95.129 107.606 95.0313 107.428 94.836C107.252 94.6387 107.164 94.3477 107.162 93.963V91.9005H107.704V93.9483C107.704 94.4288 107.899 94.669 108.29 94.669C108.704 94.669 108.979 94.5147 109.116 94.2061V91.9005H109.658V95.0704H109.142L109.13 94.7569ZM110.997 91.9005L111.014 92.2989C111.256 91.9942 111.573 91.8419 111.963 91.8419C112.633 91.8419 112.971 92.2198 112.977 92.9756V95.0704H112.435V92.9727C112.433 92.7442 112.38 92.5753 112.277 92.4659C112.175 92.3565 112.016 92.3018 111.799 92.3018C111.624 92.3018 111.469 92.3487 111.336 92.4424C111.204 92.5362 111.1 92.6592 111.026 92.8116V95.0704H110.484V91.9005H110.997ZM114.383 95.0704H113.841V90.5704H114.383V95.0704ZM115.11 93.4561C115.11 93.1456 115.17 92.8663 115.292 92.6182C115.415 92.3702 115.584 92.1788 115.801 92.044C116.02 91.9092 116.269 91.8419 116.548 91.8419C116.98 91.8419 117.329 91.9913 117.594 92.2901C117.862 92.5889 117.996 92.9864 117.996 93.4825V93.5206C117.996 93.8292 117.936 94.1065 117.817 94.3526C117.7 94.5967 117.531 94.7872 117.31 94.9239C117.091 95.0606 116.839 95.129 116.554 95.129C116.125 95.129 115.776 94.9796 115.508 94.6807C115.243 94.3819 115.11 93.9864 115.11 93.4942V93.4561ZM115.655 93.5206C115.655 93.8721 115.736 94.1544 115.898 94.3672C116.062 94.5801 116.281 94.6866 116.554 94.6866C116.83 94.6866 117.048 94.5792 117.21 94.3643C117.373 94.1475 117.454 93.8448 117.454 93.4561C117.454 93.1085 117.371 92.8272 117.205 92.6124C117.041 92.3956 116.822 92.2872 116.548 92.2872C116.281 92.2872 116.065 92.3936 115.901 92.6065C115.737 92.8194 115.655 93.1241 115.655 93.5206ZM119.947 94.6866C120.14 94.6866 120.309 94.628 120.454 94.5108C120.598 94.3936 120.678 94.2471 120.694 94.0714H121.207C121.197 94.253 121.134 94.4258 121.019 94.5899C120.904 94.754 120.75 94.8848 120.556 94.9825C120.365 95.0801 120.162 95.129 119.947 95.129C119.515 95.129 119.171 94.9854 118.916 94.6983C118.662 94.4092 118.535 94.0147 118.535 93.5147V93.4239C118.535 93.1153 118.591 92.8409 118.705 92.6006C118.818 92.3604 118.98 92.1739 119.191 92.0411C119.404 91.9083 119.655 91.8419 119.944 91.8419C120.299 91.8419 120.594 91.9483 120.829 92.1612C121.065 92.3741 121.191 92.6505 121.207 92.9903H120.694C120.678 92.7852 120.6 92.6172 120.459 92.4864C120.321 92.3536 120.149 92.2872 119.944 92.2872C119.668 92.2872 119.455 92.3868 119.302 92.586C119.152 92.7833 119.077 93.0694 119.077 93.4444V93.5469C119.077 93.9122 119.152 94.1934 119.302 94.3907C119.453 94.588 119.667 94.6866 119.947 94.6866ZM122.701 93.6026L122.361 93.9571V95.0704H121.819V90.5704H122.361V93.2921L122.651 92.9434L123.638 91.9005H124.297L123.064 93.2247L124.441 95.0704H123.805L122.701 93.6026ZM126.114 95.129C125.684 95.129 125.334 94.9883 125.065 94.7071C124.795 94.4239 124.661 94.046 124.661 93.5733V93.4737C124.661 93.1592 124.72 92.879 124.839 92.6329C124.96 92.3848 125.128 92.1915 125.343 92.0528C125.56 91.9122 125.794 91.8419 126.046 91.8419C126.458 91.8419 126.779 91.9776 127.007 92.2491C127.236 92.5206 127.35 92.9092 127.35 93.4151V93.6407H125.203C125.21 93.9532 125.301 94.2061 125.475 94.3995C125.651 94.5909 125.874 94.6866 126.143 94.6866C126.334 94.6866 126.497 94.6475 126.629 94.5694C126.762 94.4913 126.878 94.3878 126.978 94.2589L127.309 94.5167C127.043 94.9249 126.645 95.129 126.114 95.129ZM126.046 92.2872C125.828 92.2872 125.644 92.3672 125.496 92.5274C125.347 92.6856 125.255 92.9083 125.22 93.1954H126.808V93.1544C126.792 92.879 126.718 92.6661 126.585 92.5157C126.453 92.3633 126.273 92.2872 126.046 92.2872ZM127.848 93.459C127.848 92.9727 127.963 92.5821 128.194 92.2872C128.424 91.9903 128.726 91.8419 129.099 91.8419C129.47 91.8419 129.764 91.9688 129.981 92.2227V90.5704H130.523V95.0704H130.025L129.999 94.7305C129.782 94.9962 129.48 95.129 129.093 95.129C128.726 95.129 128.426 94.9786 128.194 94.6778C127.963 94.377 127.848 93.9844 127.848 93.5001V93.459ZM128.39 93.5206C128.39 93.8799 128.464 94.1612 128.613 94.3643C128.761 94.5674 128.966 94.669 129.228 94.669C129.572 94.669 129.823 94.5147 129.981 94.2061V92.7501C129.819 92.4512 129.57 92.3018 129.234 92.3018C128.968 92.3018 128.761 92.4044 128.613 92.6094C128.464 92.8145 128.39 93.1182 128.39 93.5206Z" fill="black" fill-opacity="0.8"/>
<g clip-path="url(#clip4)">
<path fill-rule="evenodd" clip-rule="evenodd" d="M36.4622 114.455C36.4622 113.563 37.1854 112.84 38.0775 112.84H68.0775C68.9697 112.84 69.6929 113.563 69.6929 114.455V114.455C69.6929 115.347 68.9697 116.07 68.0775 116.07H38.0775C37.1854 116.07 36.4622 115.347 36.4622 114.455V114.455Z" fill="black" fill-opacity="0.5"/>
<path fill-rule="evenodd" clip-rule="evenodd" d="M36.4622 122.994C36.4622 122.356 36.9788 121.84 37.616 121.84H124.616C125.253 121.84 125.77 122.356 125.77 122.994V122.994C125.77 123.631 125.253 124.147 124.616 124.147H37.616C36.9788 124.147 36.4622 123.631 36.4622 122.994V122.994Z" fill="black" fill-opacity="0.5"/>
</g>
<g clip-path="url(#clip5)">
<path fill-rule="evenodd" clip-rule="evenodd" d="M36.4622 145.147C36.4622 144.255 37.1854 143.532 38.0775 143.532H82.1545C83.0466 143.532 83.7698 144.255 83.7698 145.147V145.147C83.7698 146.04 83.0466 146.763 82.1545 146.763H38.0775C37.1854 146.763 36.4622 146.04 36.4622 145.147V145.147Z" fill="black" fill-opacity="0.5"/>
<path fill-rule="evenodd" clip-rule="evenodd" d="M36.4622 153.686C36.4622 153.049 36.9788 152.532 37.616 152.532H99.2314C99.8686 152.532 100.385 153.049 100.385 153.686V153.686C100.385 154.323 99.8686 154.84 99.2314 154.84H37.616C36.9788 154.84 36.4622 154.323 36.4622 153.686V153.686Z" fill="black" fill-opacity="0.5"/>
</g>
<g clip-path="url(#clip6)">
<path fill-rule="evenodd" clip-rule="evenodd" d="M36.4622 175.84C36.4622 174.948 37.1854 174.224 38.0775 174.224H90.2314C91.1235 174.224 91.8468 174.948 91.8468 175.84V175.84C91.8468 176.732 91.1235 177.455 90.2314 177.455H38.0775C37.1854 177.455 36.4622 176.732 36.4622 175.84V175.84Z" fill="black" fill-opacity="0.5"/>
<path fill-rule="evenodd" clip-rule="evenodd" d="M36.4622 184.378C36.4622 183.741 36.9788 183.224 37.616 183.224H110.77C111.407 183.224 111.924 183.741 111.924 184.378V184.378C111.924 185.015 111.407 185.532 110.77 185.532H37.616C36.9788 185.532 36.4622 185.015 36.4622 184.378V184.378Z" fill="black" fill-opacity="0.5"/>
<rect x="154.385" y="176.88" width="12.913" height="5.99531" rx="2.99766" fill="#DEDEDE"/>
<circle cx="163.147" cy="179.878" r="4.1506" fill="#9F9F9F"/>
</g>
<g clip-path="url(#clip7)">
<path fill-rule="evenodd" clip-rule="evenodd" d="M36.4622 206.532C36.4622 205.64 37.1854 204.917 38.0775 204.917H82.1545C83.0466 204.917 83.7698 205.64 83.7698 206.532V206.532C83.7698 207.424 83.0466 208.147 82.1545 208.147H38.0775C37.1854 208.147 36.4622 207.424 36.4622 206.532V206.532Z" fill="black" fill-opacity="0.5"/>
<path fill-rule="evenodd" clip-rule="evenodd" d="M36.4622 215.07C36.4622 214.433 36.9788 213.917 37.616 213.917H110.77C111.407 213.917 111.924 214.433 111.924 215.07V215.07C111.924 215.708 111.407 216.224 110.77 216.224H37.616C36.9788 216.224 36.4622 215.708 36.4622 215.07V215.07Z" fill="black" fill-opacity="0.5"/>
</g>
<g clip-path="url(#clip8)">
<path fill-rule="evenodd" clip-rule="evenodd" d="M36.4622 237.224C36.4622 236.332 37.1854 235.609 38.0775 235.609H82.1545C83.0466 235.609 83.7698 236.332 83.7698 237.224V237.224C83.7698 238.117 83.0466 238.84 82.1545 238.84H38.0775C37.1854 238.84 36.4622 238.117 36.4622 237.224V237.224Z" fill="black" fill-opacity="0.5"/>
</g>
<g clip-path="url(#clip9)">
<path fill-rule="evenodd" clip-rule="evenodd" d="M36.4622 259.84C36.4622 258.948 37.1854 258.224 38.0775 258.224H82.1545C83.0466 258.224 83.7698 258.948 83.7698 259.84V259.84C83.7698 260.732 83.0466 261.455 82.1545 261.455H38.0775C37.1854 261.455 36.4622 260.732 36.4622 259.84V259.84Z" fill="black" fill-opacity="0.5"/>
</g>
<line opacity="0.2" x1="6.9231" y1="274.147" x2="173.077" y2="274.147" stroke="black" stroke-width="0.461538"/>
<path fill-rule="evenodd" clip-rule="evenodd" d="M18 288.455C18 287.818 18.5166 287.301 19.1538 287.301H55.3846C56.0219 287.301 56.5385 287.818 56.5385 288.455V288.455C56.5385 289.092 56.0219 289.609 55.3846 289.609H19.1538C18.5166 289.609 18 289.092 18 288.455V288.455Z" fill="black" fill-opacity="0.5"/>
<g clip-path="url(#clip10)">
<path fill-rule="evenodd" clip-rule="evenodd" d="M36.4617 304.147C36.4617 303.255 37.1849 302.532 38.0771 302.532H106.385C107.277 302.532 108 303.255 108 304.147V304.147C108 305.04 107.277 305.763 106.385 305.763H38.0771C37.1849 305.763 36.4617 305.04 36.4617 304.147V304.147Z" fill="black" fill-opacity="0.5"/>
<path fill-rule="evenodd" clip-rule="evenodd" d="M36.4617 312.686C36.4617 312.049 36.9783 311.532 37.6155 311.532H120C120.637 311.532 121.154 312.049 121.154 312.686V312.686C121.154 313.323 120.637 313.84 120 313.84H37.6155C36.9783 313.84 36.4617 313.323 36.4617 312.686V312.686Z" fill="black" fill-opacity="0.5"/>
<rect x="154.385" y="305.188" width="12.913" height="5.99531" rx="2.99766" fill="#DEDEDE"/>
<circle cx="163.147" cy="308.186" r="4.1506" fill="#9F9F9F"/>
</g>
<g clip-path="url(#clip11)">
<path fill-rule="evenodd" clip-rule="evenodd" d="M36.4617 334.84C36.4617 333.948 37.1849 333.224 38.0771 333.224H82.154C83.0461 333.224 83.7694 333.948 83.7694 334.84V334.84C83.7694 335.732 83.0461 336.455 82.154 336.455H38.0771C37.1849 336.455 36.4617 335.732 36.4617 334.84V334.84Z" fill="black" fill-opacity="0.5"/>
</g>
<g clip-path="url(#clip12)">
<path fill-rule="evenodd" clip-rule="evenodd" d="M36.4617 357.455C36.4617 356.562 37.1849 355.839 38.0771 355.839H120.231C121.123 355.839 121.846 356.562 121.846 357.455V357.455C121.846 358.347 121.123 359.07 120.231 359.07H38.0771C37.1849 359.07 36.4617 358.347 36.4617 357.455V357.455Z" fill="black" fill-opacity="0.5"/>
<path fill-rule="evenodd" clip-rule="evenodd" d="M36.4617 365.993C36.4617 365.356 36.9783 364.839 37.6155 364.839H117.692C118.33 364.839 118.846 365.356 118.846 365.993V365.993C118.846 366.63 118.33 367.147 117.692 367.147H37.6155C36.9783 367.147 36.4617 366.63 36.4617 365.993V365.993Z" fill="black" fill-opacity="0.5"/>
<rect x="154.615" y="358.496" width="12.913" height="5.99531" rx="2.99766" fill="#9F9F9F"/>
<circle cx="158.766" cy="361.494" r="4.1506" fill="#DEDEDE"/>
</g>
<circle cx="160.5" cy="88.1924" r="10.5" fill="#FF00E5" fill-opacity="0.5"/>
</g>
</g>
<defs>
<filter id="filter0_d" x="1.38463" y="1.84623" width="177.231" height="371.077" filterUnits="userSpaceOnUse" color-interpolation-filters="sRGB">
<feFlood flood-opacity="0" result="BackgroundImageFix"/>
<feColorMatrix in="SourceAlpha" type="matrix" values="0 0 0 0 0 0 0 0 0 0 0 0 0 0 0 0 0 0 127 0"/>
<feOffset dy="0.461538"/>
<feGaussianBlur stdDeviation="2.76923"/>
<feColorMatrix type="matrix" values="0 0 0 0 0 0 0 0 0 0 0 0 0 0 0 0 0 0 0.15 0"/>
<feBlend mode="normal" in2="BackgroundImageFix" result="effect1_dropShadow"/>
<feBlend mode="normal" in="SourceGraphic" in2="effect1_dropShadow" result="shape"/>
</filter>
<filter id="filter1_d" x="5.07694" y="6.00008" width="169.846" height="45.2308" filterUnits="userSpaceOnUse" color-interpolation-filters="sRGB">
<feFlood flood-opacity="0" result="BackgroundImageFix"/>
<feColorMatrix in="SourceAlpha" type="matrix" values="0 0 0 0 0 0 0 0 0 0 0 0 0 0 0 0 0 0 127 0"/>
<feOffset dy="0.923077"/>
<feGaussianBlur stdDeviation="0.923077"/>
<feColorMatrix type="matrix" values="0 0 0 0 0 0 0 0 0 0 0 0 0 0 0 0 0 0 0.1 0"/>
<feBlend mode="normal" in2="BackgroundImageFix" result="effect1_dropShadow"/>
<feBlend mode="normal" in="SourceGraphic" in2="effect1_dropShadow" result="shape"/>
</filter>
<clipPath id="clip0">
<rect x="6.9231" y="6.92316" width="166.154" height="360" rx="19.3846" fill="white"/>
</clipPath>
<clipPath id="clip1">
<rect width="11.0769" height="11.0769" fill="white" transform="translate(156.923 31.3846)"/>
</clipPath>
<clipPath id="clip2">
<rect width="90.9231" height="10.6154" fill="white" transform="translate(12 31.6906)"/>
</clipPath>
<clipPath id="clip3">
<rect width="154.605" height="11.532" fill="white" transform="translate(12.4614 54.0001)"/>
</clipPath>
<clipPath id="clip4">
<rect width="89.3077" height="11.3077" fill="white" transform="translate(36.4622 112.84)"/>
</clipPath>
<clipPath id="clip5">
<rect width="63.9231" height="11.3077" fill="white" transform="translate(36.4622 143.532)"/>
</clipPath>
<clipPath id="clip6">
<rect width="130.836" height="11.3077" fill="white" transform="translate(36.4622 174.224)"/>
</clipPath>
<clipPath id="clip7">
<rect width="75.4615" height="11.3077" fill="white" transform="translate(36.4622 204.917)"/>
</clipPath>
<clipPath id="clip8">
<rect width="47.3077" height="3.23077" fill="white" transform="translate(36.4622 235.609)"/>
</clipPath>
<clipPath id="clip9">
<rect width="47.3077" height="3.23077" fill="white" transform="translate(36.4622 258.224)"/>
</clipPath>
<clipPath id="clip10">
<rect width="130.836" height="11.3077" fill="white" transform="translate(36.4617 302.532)"/>
</clipPath>
<clipPath id="clip11">
<rect width="47.3077" height="3.23077" fill="white" transform="translate(36.4617 333.224)"/>
</clipPath>
<clipPath id="clip12">
<rect width="136.615" height="11.3077" fill="white" transform="translate(36.4617 355.846)"/>
</clipPath>
</defs>
</svg>
