<svg width="180" height="381" viewBox="0 0 180 381" fill="none" xmlns="http://www.w3.org/2000/svg">
<rect width="180" height="380.769" rx="24.1259" fill="#111111"/>
<g filter="url(#filter0_d)">
<g clip-path="url(#clip0)">
<rect x="6.92285" y="6.9231" width="166.154" height="360" rx="19.3846" fill="white"/>
<g filter="url(#filter1_d)">
<rect x="6.92285" y="6.9231" width="166.154" height="41.5385" fill="white"/>
</g>
<g opacity="0.5" clip-path="url(#clip1)">
<path fill-rule="evenodd" clip-rule="evenodd" d="M164.078 37.8462H163.711L163.584 37.7197C164.034 37.195 164.308 36.5147 164.308 35.7693C164.308 34.1123 162.965 32.7693 161.308 32.7693C159.651 32.7693 158.308 34.1123 158.308 35.7693C158.308 37.4262 159.651 38.7693 161.308 38.7693C162.053 38.7693 162.733 38.496 163.258 38.0465L163.385 38.173V38.5385L165.692 40.842L166.38 40.1539L164.078 37.8462ZM161.308 37.8462C160.16 37.8462 159.231 36.9167 159.231 35.7693C159.231 34.6224 160.16 33.6924 161.308 33.6924C162.455 33.6924 163.385 34.6224 163.385 35.7693C163.385 36.9167 162.455 37.8462 161.308 37.8462Z" fill="black"/>
</g>
<g clip-path="url(#clip2)">
<path d="M20.8465 36.5561H15.4636L17.9361 34.0836L17.308 33.4599L13.7695 36.9984L17.308 40.5368L17.9316 39.9132L15.4636 37.4407H20.8465V36.5561Z" fill="black" fill-opacity="0.7"/>
<path d="M36.1384 40.1522V34.2459H37.8827C38.4047 34.2459 38.8671 34.3622 39.2701 34.5948C39.6757 34.8273 39.9894 35.1573 40.2112 35.5846C40.4329 36.0118 40.5438 36.5013 40.5438 37.053V37.3491C40.5438 37.9089 40.4316 38.4011 40.2071 38.8257C39.9854 39.2503 39.6676 39.5775 39.2538 39.8074C38.8428 40.0372 38.3709 40.1522 37.8381 40.1522H36.1384ZM37.1647 35.0734V39.3327H37.8341C38.3722 39.3327 38.7846 39.1651 39.0713 38.8297C39.3607 38.4917 39.508 38.0076 39.5134 37.3775V37.0489C39.5134 36.408 39.3742 35.9185 39.0956 35.5805C38.8171 35.2425 38.4128 35.0734 37.8827 35.0734H37.1647ZM43.4036 40.2333C42.7789 40.2333 42.2719 40.0372 41.8824 39.6451C41.4957 39.2503 41.3024 38.7256 41.3024 38.0712V37.9495C41.3024 37.5114 41.3862 37.1206 41.5539 36.7772C41.7242 36.431 41.9622 36.1619 42.2678 35.9699C42.5734 35.7779 42.9141 35.6819 43.29 35.6819C43.8877 35.6819 44.3488 35.8726 44.6733 36.2539C45.0005 36.6352 45.1641 37.1747 45.1641 37.8724V38.2699H42.2962C42.3259 38.6323 42.4463 38.919 42.6572 39.1299C42.8709 39.3409 43.1386 39.4463 43.4604 39.4463C43.912 39.4463 44.2798 39.2638 44.5638 38.8987L45.0952 39.4058C44.9194 39.6681 44.6841 39.8723 44.3893 40.0183C44.0973 40.1616 43.7687 40.2333 43.4036 40.2333ZM43.286 36.4729C43.0155 36.4729 42.7965 36.5676 42.6288 36.7569C42.4639 36.9462 42.3584 37.2099 42.3124 37.5479H44.1906V37.4749C44.1689 37.1449 44.0811 36.8962 43.9269 36.7285C43.7728 36.5581 43.5591 36.4729 43.286 36.4729ZM47.4236 38.9028L48.3525 35.763H49.3707L47.8495 40.1522H46.9936L45.4603 35.763H46.4825L47.4236 38.9028ZM51.8655 40.2333C51.2408 40.2333 50.7337 40.0372 50.3443 39.6451C49.9576 39.2503 49.7642 38.7256 49.7642 38.0712V37.9495C49.7642 37.5114 49.848 37.1206 50.0157 36.7772C50.1861 36.431 50.4241 36.1619 50.7296 35.9699C51.0352 35.7779 51.376 35.6819 51.7519 35.6819C52.3495 35.6819 52.8106 35.8726 53.1351 36.2539C53.4624 36.6352 53.626 37.1747 53.626 37.8724V38.2699H50.758C50.7878 38.6323 50.9081 38.919 51.1191 39.1299C51.3327 39.3409 51.6004 39.4463 51.9223 39.4463C52.3739 39.4463 52.7417 39.2638 53.0256 38.8987L53.557 39.4058C53.3812 39.6681 53.146 39.8723 52.8512 40.0183C52.5591 40.1616 52.2305 40.2333 51.8655 40.2333ZM51.7478 36.4729C51.4774 36.4729 51.2583 36.5676 51.0907 36.7569C50.9257 36.9462 50.8202 37.2099 50.7743 37.5479H52.6524V37.4749C52.6308 37.1449 52.5429 36.8962 52.3887 36.7285C52.2346 36.5581 52.021 36.4729 51.7478 36.4729ZM55.4433 40.1522H54.4576V33.9214H55.4433V40.1522ZM56.3357 37.917C56.3357 37.487 56.4209 37.1003 56.5913 36.7569C56.7616 36.4107 57.001 36.1457 57.3093 35.9618C57.6176 35.7752 57.9718 35.6819 58.3721 35.6819C58.9643 35.6819 59.4443 35.8726 59.8121 36.2539C60.1826 36.6352 60.3827 37.1409 60.4125 37.771L60.4165 38.0022C60.4165 38.4349 60.3327 38.8216 60.165 39.1624C60.0001 39.5031 59.7621 39.7668 59.4511 39.9534C59.1428 40.14 58.7858 40.2333 58.3802 40.2333C57.7609 40.2333 57.2646 40.0278 56.8915 39.6167C56.521 39.2029 56.3357 38.6526 56.3357 37.9657V37.917ZM57.3214 38.0022C57.3214 38.4538 57.4147 38.8081 57.6013 39.065C57.7879 39.3192 58.0476 39.4463 58.3802 39.4463C58.7128 39.4463 58.9711 39.3165 59.155 39.0569C59.3416 38.7973 59.4349 38.4173 59.4349 37.917C59.4349 37.4735 59.3389 37.122 59.1469 36.8623C58.9576 36.6027 58.6993 36.4729 58.3721 36.4729C58.0503 36.4729 57.7947 36.6014 57.6054 36.8583C57.4161 37.1125 57.3214 37.4938 57.3214 38.0022ZM65.0937 38.0022C65.0937 38.681 64.9395 39.2232 64.6312 39.6289C64.3229 40.0318 63.9092 40.2333 63.3899 40.2333C62.9086 40.2333 62.5232 40.0751 62.2338 39.7587V41.8397H61.2481V35.763H62.1568L62.1973 36.2093C62.4867 35.8577 62.8802 35.6819 63.3778 35.6819C63.9132 35.6819 64.3324 35.882 64.6353 36.2823C64.9409 36.6798 65.0937 37.2328 65.0937 37.9414V38.0022ZM64.112 37.917C64.112 37.4789 64.0241 37.1314 63.8483 36.8745C63.6753 36.6176 63.4265 36.4891 63.1019 36.4891C62.699 36.4891 62.4096 36.6555 62.2338 36.9881V38.9352C62.4123 39.276 62.7044 39.4463 63.1101 39.4463C63.4238 39.4463 63.6685 39.3206 63.8443 39.0691C64.0228 38.8149 64.112 38.4309 64.112 37.917ZM67.8643 40.2333C67.2396 40.2333 66.7325 40.0372 66.3431 39.6451C65.9564 39.2503 65.763 38.7256 65.763 38.0712V37.9495C65.763 37.5114 65.8468 37.1206 66.0145 36.7772C66.1849 36.431 66.4229 36.1619 66.7284 35.9699C67.034 35.7779 67.3748 35.6819 67.7507 35.6819C68.3483 35.6819 68.8094 35.8726 69.1339 36.2539C69.4612 36.6352 69.6248 37.1747 69.6248 37.8724V38.2699H66.7568C66.7866 38.6323 66.9069 38.919 67.1179 39.1299C67.3315 39.3409 67.5992 39.4463 67.921 39.4463C68.3727 39.4463 68.7405 39.2638 69.0244 38.8987L69.5558 39.4058C69.38 39.6681 69.1448 39.8723 68.85 40.0183C68.5579 40.1616 68.2293 40.2333 67.8643 40.2333ZM67.7466 36.4729C67.4762 36.4729 67.2571 36.5676 67.0895 36.7569C66.9245 36.9462 66.819 37.2099 66.7731 37.5479H68.6512V37.4749C68.6296 37.1449 68.5417 36.8962 68.3875 36.7285C68.2334 36.5581 68.0198 36.4729 67.7466 36.4729ZM72.6915 36.6636C72.5617 36.6419 72.4278 36.6311 72.2899 36.6311C71.8383 36.6311 71.534 36.8042 71.3772 37.1504V40.1522H70.3915V35.763H71.3326L71.3569 36.2539C71.5949 35.8726 71.9248 35.6819 72.3467 35.6819C72.4873 35.6819 72.6036 35.7008 72.6955 35.7387L72.6915 36.6636ZM75.1984 37.917C75.1984 37.487 75.2836 37.1003 75.454 36.7569C75.6243 36.4107 75.8637 36.1457 76.172 35.9618C76.4802 35.7752 76.8345 35.6819 77.2348 35.6819C77.827 35.6819 78.307 35.8726 78.6748 36.2539C79.0453 36.6352 79.2454 37.1409 79.2752 37.771L79.2792 38.0022C79.2792 38.4349 79.1954 38.8216 79.0277 39.1624C78.8628 39.5031 78.6248 39.7668 78.3138 39.9534C78.0055 40.14 77.6485 40.2333 77.2429 40.2333C76.6236 40.2333 76.1273 40.0278 75.7541 39.6167C75.3836 39.2029 75.1984 38.6526 75.1984 37.9657V37.917ZM76.1841 38.0022C76.1841 38.4538 76.2774 38.8081 76.464 39.065C76.6506 39.3192 76.9102 39.4463 77.2429 39.4463C77.5755 39.4463 77.8338 39.3165 78.0177 39.0569C78.2043 38.7973 78.2976 38.4173 78.2976 37.917C78.2976 37.4735 78.2015 37.122 78.0095 36.8623C77.8202 36.6027 77.562 36.4729 77.2348 36.4729C76.9129 36.4729 76.6574 36.6014 76.4681 36.8583C76.2788 37.1125 76.1841 37.4938 76.1841 38.0022ZM83.9564 38.0022C83.9564 38.681 83.8022 39.2232 83.4939 39.6289C83.1856 40.0318 82.7719 40.2333 82.2526 40.2333C81.7713 40.2333 81.3859 40.0751 81.0965 39.7587V41.8397H80.1108V35.763H81.0195L81.06 36.2093C81.3494 35.8577 81.7429 35.6819 82.2405 35.6819C82.7759 35.6819 83.1951 35.882 83.498 36.2823C83.8036 36.6798 83.9564 37.2328 83.9564 37.9414V38.0022ZM82.9747 37.917C82.9747 37.4789 82.8868 37.1314 82.711 36.8745C82.5379 36.6176 82.2891 36.4891 81.9646 36.4891C81.5617 36.4891 81.2723 36.6555 81.0965 36.9881V38.9352C81.275 39.276 81.5671 39.4463 81.9727 39.4463C82.2864 39.4463 82.5312 39.3206 82.707 39.0691C82.8854 38.8149 82.9747 38.4309 82.9747 37.917ZM86.0292 34.6962V35.763H86.804V36.4932H86.0292V38.9433C86.0292 39.111 86.0617 39.2327 86.1266 39.3084C86.1942 39.3814 86.3132 39.4179 86.4836 39.4179C86.5971 39.4179 86.7121 39.4044 86.8284 39.3774V40.14C86.6039 40.2022 86.3875 40.2333 86.1793 40.2333C85.4221 40.2333 85.0435 39.8155 85.0435 38.9798V36.4932H84.3214V35.763H85.0435V34.6962H86.0292ZM88.6092 40.1522H87.6234V35.763H88.6092V40.1522ZM87.5626 34.6232C87.5626 34.4717 87.6099 34.346 87.7046 34.2459C87.8019 34.1459 87.9398 34.0958 88.1183 34.0958C88.2968 34.0958 88.4347 34.1459 88.5321 34.2459C88.6294 34.346 88.6781 34.4717 88.6781 34.6232C88.6781 34.7719 88.6294 34.8963 88.5321 34.9964C88.4347 35.0937 88.2968 35.1424 88.1183 35.1424C87.9398 35.1424 87.8019 35.0937 87.7046 34.9964C87.6099 34.8963 87.5626 34.7719 87.5626 34.6232ZM89.5016 37.917C89.5016 37.487 89.5868 37.1003 89.7571 36.7569C89.9275 36.4107 90.1668 36.1457 90.4751 35.9618C90.7834 35.7752 91.1377 35.6819 91.5379 35.6819C92.1302 35.6819 92.6102 35.8726 92.978 36.2539C93.3485 36.6352 93.5486 37.1409 93.5784 37.771L93.5824 38.0022C93.5824 38.4349 93.4986 38.8216 93.3309 39.1624C93.1659 39.5031 92.928 39.7668 92.617 39.9534C92.3087 40.14 91.9517 40.2333 91.5461 40.2333C90.9268 40.2333 90.4305 40.0278 90.0573 39.6167C89.6868 39.2029 89.5016 38.6526 89.5016 37.9657V37.917ZM90.4873 38.0022C90.4873 38.4538 90.5806 38.8081 90.7672 39.065C90.9538 39.3192 91.2134 39.4463 91.5461 39.4463C91.8787 39.4463 92.1369 39.3165 92.3208 39.0569C92.5074 38.7973 92.6007 38.4173 92.6007 37.917C92.6007 37.4735 92.5047 37.122 92.3127 36.8623C92.1234 36.6027 91.8652 36.4729 91.5379 36.4729C91.2161 36.4729 90.9606 36.6014 90.7713 36.8583C90.582 37.1125 90.4873 37.4938 90.4873 38.0022ZM95.3308 35.763L95.3592 36.2701C95.6837 35.878 96.1096 35.6819 96.6369 35.6819C97.551 35.6819 98.0162 36.2052 98.0324 37.2518V40.1522H97.0467V37.3086C97.0467 37.03 96.9858 36.8245 96.8641 36.692C96.7451 36.5568 96.5491 36.4891 96.2759 36.4891C95.8784 36.4891 95.5823 36.669 95.3875 37.0287V40.1522H94.4018V35.763H95.3308ZM101.501 38.9596C101.501 38.7838 101.428 38.6499 101.282 38.558C101.138 38.466 100.899 38.3849 100.564 38.3146C100.228 38.2443 99.9484 38.155 99.7239 38.0468C99.2317 37.8089 98.9857 37.4641 98.9857 37.0124C98.9857 36.6338 99.1452 36.3174 99.4643 36.0632C99.7834 35.809 100.189 35.6819 100.681 35.6819C101.206 35.6819 101.629 35.8117 101.951 36.0713C102.275 36.3309 102.438 36.6676 102.438 37.0814H101.452C101.452 36.8921 101.382 36.7352 101.241 36.6108C101.1 36.4837 100.914 36.4202 100.681 36.4202C100.465 36.4202 100.288 36.4702 100.15 36.5703C100.015 36.6703 99.947 36.8042 99.947 36.9719C99.947 37.1233 100.011 37.241 100.138 37.3248C100.265 37.4086 100.522 37.4938 100.908 37.5803C101.295 37.6642 101.598 37.7656 101.817 37.8846C102.039 38.0009 102.202 38.1415 102.308 38.3065C102.416 38.4714 102.47 38.6715 102.47 38.9068C102.47 39.3016 102.307 39.6221 101.979 39.8682C101.652 40.1116 101.223 40.2333 100.693 40.2333C100.334 40.2333 100.013 40.1684 99.732 40.0386C99.4508 39.9088 99.2317 39.7303 99.0749 39.5031C98.918 39.276 98.8396 39.0312 98.8396 38.7689H99.797C99.8105 39.0015 99.8984 39.1813 100.061 39.3084C100.223 39.4328 100.438 39.495 100.706 39.495C100.965 39.495 101.163 39.4463 101.298 39.349C101.433 39.2489 101.501 39.1191 101.501 38.9596Z" fill="black" fill-opacity="0.7"/>
</g>
<path fill-rule="evenodd" clip-rule="evenodd" d="M148.615 15C148.615 14.7451 148.409 14.5385 148.154 14.5385H144.462C144.207 14.5385 144 14.7451 144 15V18.6923C144 18.9472 144.207 19.1538 144.462 19.1538H148.154C148.409 19.1538 148.615 18.9472 148.615 18.6923V15ZM152.308 16.8462C152.308 15.5717 153.341 14.5385 154.615 14.5385C155.89 14.5385 156.923 15.5717 156.923 16.8462C156.923 18.1207 155.89 19.1538 154.615 19.1538C153.341 19.1538 152.308 18.1207 152.308 16.8462ZM162.066 18.4942C162.245 18.793 162.678 18.793 162.857 18.4942L164.811 15.2375C164.996 14.9298 164.774 14.5385 164.416 14.5385H160.507C160.149 14.5385 159.927 14.9298 160.112 15.2375L162.066 18.4942Z" fill="black" fill-opacity="0.5"/>
<path fill-rule="evenodd" clip-rule="evenodd" d="M30.2305 16.8462C30.2305 16.2089 30.7471 15.6923 31.3843 15.6923H40.6151C41.2523 15.6923 41.7689 16.2089 41.7689 16.8462C41.7689 17.4834 41.2523 18 40.6151 18H31.3843C30.7471 18 30.2305 17.4834 30.2305 16.8462Z" fill="black" fill-opacity="0.5"/>
<rect width="166.154" height="22.6089" transform="translate(6.92285 48.4615)" fill="#549F25"/>
<g clip-path="url(#clip3)">
<path fill-rule="evenodd" clip-rule="evenodd" d="M36.2305 59.766C36.2305 58.8738 36.9537 58.1506 37.8459 58.1506H48.4612C49.3534 58.1506 50.0766 58.8738 50.0766 59.766C50.0766 60.6581 49.3534 61.3813 48.4612 61.3813H37.8459C36.9537 61.3813 36.2305 60.6581 36.2305 59.766Z" fill="white"/>
<rect x="154.153" y="56.7683" width="12.913" height="5.99531" rx="2.99766" fill="#DEDEDE"/>
<circle cx="162.916" cy="59.766" r="4.1506" fill="white"/>
</g>
<rect x="154.384" y="84.8035" width="12.913" height="5.99531" rx="2.99766" fill="#9F9F9F"/>
<circle cx="158.534" cy="87.8012" r="4.1506" fill="#DEDEDE"/>
<path d="M39.665 83.5376C39.665 84.0199 39.5838 84.4413 39.4216 84.8019C39.2593 85.1602 39.0294 85.434 38.732 85.6233C38.4345 85.8126 38.0874 85.9073 37.6908 85.9073C37.3032 85.9073 36.9595 85.8126 36.6598 85.6233C36.3601 85.4318 36.1268 85.1602 35.96 84.8086C35.7955 84.4548 35.711 84.0458 35.7065 83.5815V83.2266C35.7065 82.7533 35.7888 82.3353 35.9533 81.9725C36.1178 81.6096 36.3499 81.3324 36.6496 81.1409C36.9516 80.9471 37.2964 80.8502 37.684 80.8502C38.0784 80.8502 38.4255 80.946 38.7252 81.1375C39.0272 81.3268 39.2593 81.6029 39.4216 81.9657C39.5838 82.3263 39.665 82.7466 39.665 83.2266V83.5376ZM39.0193 83.2198C39.0193 82.6362 38.9021 82.1888 38.6677 81.8778C38.4334 81.5646 38.1055 81.4079 37.684 81.4079C37.2739 81.4079 36.9505 81.5646 36.7139 81.8778C36.4795 82.1888 36.3589 82.6215 36.3522 83.1759V83.5376C36.3522 84.1033 36.4705 84.5483 36.7071 84.8729C36.946 85.1951 37.2739 85.3563 37.6908 85.3563C38.11 85.3563 38.4345 85.2041 38.6644 84.8999C38.8942 84.5934 39.0125 84.1551 39.0193 83.5849V83.2198ZM43.4206 83.5646H41.2876V85.3089H43.7654V85.8397H40.6385V80.9178H43.7316V81.4519H41.2876V83.0339H43.4206V83.5646ZM45.4117 80.9178L47.0207 84.9337L48.6298 80.9178H49.4715V85.8397H48.8225V83.923L48.8833 81.8542L47.2675 85.8397H46.7706L45.1581 81.8643L45.2224 83.923V85.8397H44.5733V80.9178H45.4117ZM54.4948 85.478C54.2514 85.7642 53.8942 85.9073 53.4232 85.9073C53.0334 85.9073 52.7359 85.7946 52.5308 85.5692C52.328 85.3416 52.2254 85.0058 52.2232 84.5619V82.1821H52.8486V84.545C52.8486 85.0994 53.0739 85.3765 53.5246 85.3765C54.0024 85.3765 54.3202 85.1985 54.4779 84.8424V82.1821H55.1033V85.8397H54.5083L54.4948 85.478ZM56.6481 82.1821L56.6684 82.6418C56.9479 82.2902 57.313 82.1145 57.7637 82.1145C58.5367 82.1145 58.9265 82.5505 58.9333 83.4227V85.8397H58.3079V83.4193C58.3057 83.1556 58.2448 82.9607 58.1254 82.8345C58.0082 82.7083 57.8245 82.6452 57.5744 82.6452C57.3715 82.6452 57.1935 82.6993 57.0403 82.8074C56.887 82.9156 56.7676 83.0576 56.6819 83.2334V85.8397H56.0566V82.1821H56.6481ZM60.5559 85.8397H59.9305V80.6474H60.5559V85.8397ZM61.3942 83.9771C61.3942 83.6187 61.4641 83.2965 61.6038 83.0103C61.7458 82.7241 61.9419 82.5032 62.192 82.3477C62.4444 82.1922 62.7317 82.1145 63.054 82.1145C63.5521 82.1145 63.9543 82.2869 64.2608 82.6317C64.5696 82.9765 64.7239 83.4351 64.7239 84.0075V84.0514C64.7239 84.4075 64.6552 84.7275 64.5177 85.0115C64.3825 85.2932 64.1876 85.5129 63.9329 85.6706C63.6805 85.8284 63.3898 85.9073 63.0608 85.9073C62.565 85.9073 62.1627 85.7349 61.854 85.3901C61.5475 85.0453 61.3942 84.5889 61.3942 84.021V83.9771ZM62.023 84.0514C62.023 84.4571 62.1165 84.7827 62.3036 85.0284C62.4929 85.274 62.7453 85.3968 63.0608 85.3968C63.3785 85.3968 63.6309 85.2729 63.818 85.025C64.005 84.7748 64.0986 84.4255 64.0986 83.9771C64.0986 83.5759 64.0028 83.2514 63.8112 83.0035C63.6219 82.7533 63.3695 82.6283 63.054 82.6283C62.7453 82.6283 62.4962 82.7511 62.3069 82.9967C62.1176 83.2424 62.023 83.5939 62.023 84.0514ZM66.9753 85.3968C67.1984 85.3968 67.3933 85.3292 67.5601 85.194C67.7269 85.0588 67.8193 84.8898 67.8373 84.6869H68.4289C68.4176 84.8965 68.3455 85.096 68.2125 85.2853C68.0796 85.4746 67.9015 85.6256 67.6784 85.7382C67.4576 85.8509 67.2232 85.9073 66.9753 85.9073C66.4772 85.9073 66.0806 85.7416 65.7854 85.4103C65.4924 85.0768 65.3459 84.6216 65.3459 84.0447V83.9399C65.3459 83.5838 65.4113 83.2672 65.542 82.99C65.6727 82.7128 65.8598 82.4976 66.1031 82.3443C66.3488 82.1911 66.6384 82.1145 66.9719 82.1145C67.3821 82.1145 67.7224 82.2373 67.9928 82.4829C68.2655 82.7286 68.4108 83.0474 68.4289 83.4396H67.8373C67.8193 83.2029 67.7291 83.0091 67.5669 82.8581C67.4069 82.7049 67.2085 82.6283 66.9719 82.6283C66.6541 82.6283 66.4074 82.7432 66.2316 82.9731C66.0581 83.2007 65.9713 83.5308 65.9713 83.9635V84.0818C65.9713 84.5033 66.0581 84.8278 66.2316 85.0554C66.4051 85.283 66.653 85.3968 66.9753 85.3968ZM70.1529 84.1461L69.7607 84.5551V85.8397H69.1354V80.6474H69.7607V83.7878L70.0954 83.3855L71.2346 82.1821H71.9952L70.572 83.71L72.1608 85.8397H71.4273L70.1529 84.1461ZM73.3203 85.8397H72.6949V82.1821H73.3203V85.8397ZM72.6442 81.2119C72.6442 81.1105 72.6747 81.0248 72.7355 80.955C72.7986 80.8851 72.891 80.8502 73.0127 80.8502C73.1344 80.8502 73.2268 80.8851 73.2899 80.955C73.353 81.0248 73.3845 81.1105 73.3845 81.2119C73.3845 81.3133 73.353 81.3978 73.2899 81.4654C73.2268 81.533 73.1344 81.5668 73.0127 81.5668C72.891 81.5668 72.7986 81.533 72.7355 81.4654C72.6747 81.3978 72.6442 81.3133 72.6442 81.2119ZM74.9159 82.1821L74.9361 82.6418C75.2156 82.2902 75.5807 82.1145 76.0314 82.1145C76.8044 82.1145 77.1943 82.5505 77.201 83.4227V85.8397H76.5756V83.4193C76.5734 83.1556 76.5125 82.9607 76.3931 82.8345C76.2759 82.7083 76.0922 82.6452 75.8421 82.6452C75.6393 82.6452 75.4612 82.6993 75.308 82.8074C75.1547 82.9156 75.0353 83.0576 74.9497 83.2334V85.8397H74.3243V82.1821H74.9159ZM77.9954 83.9804C77.9954 83.4103 78.1273 82.9573 78.3909 82.6215C78.6546 82.2835 79.0039 82.1145 79.4389 82.1145C79.8851 82.1145 80.2332 82.2722 80.4834 82.5877L80.5138 82.1821H81.0851V85.7518C81.0851 86.225 80.9443 86.598 80.6626 86.8707C80.3831 87.1434 80.0068 87.2797 79.5335 87.2797C79.2698 87.2797 79.0118 87.2234 78.7594 87.1107C78.507 86.998 78.3143 86.8436 78.1813 86.6476L78.5059 86.2724C78.774 86.6036 79.1019 86.7693 79.4896 86.7693C79.7938 86.7693 80.0304 86.6836 80.1994 86.5124C80.3707 86.3411 80.4564 86.1 80.4564 85.789V85.4746C80.2062 85.763 79.8648 85.9073 79.4321 85.9073C79.0039 85.9073 78.6569 85.7349 78.3909 85.3901C78.1273 85.0453 77.9954 84.5754 77.9954 83.9804ZM78.6242 84.0514C78.6242 84.4638 78.7087 84.7884 78.8777 85.025C79.0467 85.2594 79.2834 85.3765 79.5876 85.3765C79.982 85.3765 80.2716 85.1974 80.4564 84.8391V83.1691C80.2648 82.8198 79.9775 82.6452 79.5944 82.6452C79.2901 82.6452 79.0524 82.7635 78.8811 83.0001C78.7098 83.2367 78.6242 83.5872 78.6242 84.0514Z" fill="black" fill-opacity="0.8"/>
<path d="M38.1582 93.9572H36.3711L35.9697 95.0704H35.3896L37.0186 90.8048H37.5107L39.1426 95.0704H38.5654L38.1582 93.9572ZM36.541 93.4943H37.9912L37.2646 91.4991L36.541 93.4943ZM40.2207 95.0704H39.6787V90.5704H40.2207V95.0704ZM41.6797 95.0704H41.1377V90.5704H41.6797V95.0704ZM42.4062 93.4562C42.4062 93.1456 42.4668 92.8663 42.5879 92.6183C42.7109 92.3702 42.8809 92.1788 43.0977 92.0441C43.3164 91.9093 43.5654 91.8419 43.8447 91.8419C44.2764 91.8419 44.625 91.9913 44.8906 92.2902C45.1582 92.589 45.292 92.9865 45.292 93.4825V93.5206C45.292 93.8292 45.2324 94.1066 45.1133 94.3527C44.9961 94.5968 44.8271 94.7872 44.6064 94.924C44.3877 95.0607 44.1357 95.129 43.8506 95.129C43.4209 95.129 43.0723 94.9796 42.8047 94.6808C42.5391 94.382 42.4062 93.9865 42.4062 93.4943V93.4562ZM42.9512 93.5206C42.9512 93.8722 43.0322 94.1544 43.1943 94.3673C43.3584 94.5802 43.5771 94.6866 43.8506 94.6866C44.126 94.6866 44.3447 94.5792 44.5068 94.3644C44.6689 94.1476 44.75 93.8448 44.75 93.4562C44.75 93.1085 44.667 92.8273 44.501 92.6124C44.3369 92.3956 44.1182 92.2872 43.8447 92.2872C43.5771 92.2872 43.3613 92.3937 43.1973 92.6066C43.0332 92.8195 42.9512 93.1241 42.9512 93.5206ZM48.7783 94.3234L49.3877 91.9005H49.9297L49.0068 95.0704H48.5674L47.7969 92.6681L47.0469 95.0704H46.6074L45.6875 91.9005H46.2266L46.8506 94.2736L47.5889 91.9005H48.0254L48.7783 94.3234ZM52.707 91.1329V91.9005H53.2988V92.3195H52.707V94.2853C52.707 94.4122 52.7334 94.5079 52.7861 94.5724C52.8389 94.6349 52.9287 94.6661 53.0557 94.6661C53.1182 94.6661 53.2041 94.6544 53.3135 94.631V95.0704C53.1709 95.1095 53.0322 95.129 52.8975 95.129C52.6553 95.129 52.4727 95.0558 52.3496 94.9093C52.2266 94.7628 52.165 94.5548 52.165 94.2853V92.3195H51.5879V91.9005H52.165V91.1329H52.707ZM54.4766 92.2843C54.7168 91.9894 55.0293 91.8419 55.4141 91.8419C56.084 91.8419 56.4219 92.2198 56.4277 92.9757V95.0704H55.8857V92.9728C55.8838 92.7443 55.8311 92.5753 55.7275 92.4659C55.626 92.3566 55.4668 92.3019 55.25 92.3019C55.0742 92.3019 54.9199 92.3488 54.7871 92.4425C54.6543 92.5363 54.5508 92.6593 54.4766 92.8116V95.0704H53.9346V90.5704H54.4766V92.2843ZM58.5547 95.129C58.125 95.129 57.7754 94.9884 57.5059 94.7072C57.2363 94.424 57.1016 94.046 57.1016 93.5734V93.4738C57.1016 93.1593 57.1611 92.879 57.2803 92.6329C57.4014 92.3849 57.5693 92.1915 57.7842 92.0529C58.001 91.9122 58.2354 91.8419 58.4873 91.8419C58.8994 91.8419 59.2197 91.9777 59.4482 92.2491C59.6768 92.5206 59.791 92.9093 59.791 93.4152V93.6407H57.6436C57.6514 93.9532 57.7422 94.2062 57.916 94.3995C58.0918 94.5909 58.3145 94.6866 58.584 94.6866C58.7754 94.6866 58.9375 94.6476 59.0703 94.5695C59.2031 94.4913 59.3193 94.3878 59.4189 94.2589L59.75 94.5167C59.4844 94.9249 59.0859 95.129 58.5547 95.129ZM58.4873 92.2872C58.2686 92.2872 58.085 92.3673 57.9365 92.5275C57.7881 92.6857 57.6963 92.9083 57.6611 93.1954H59.249V93.1544C59.2334 92.879 59.1592 92.6661 59.0264 92.5157C58.8936 92.3634 58.7139 92.2872 58.4873 92.2872ZM64.5928 93.5206C64.5928 94.005 64.4814 94.3947 64.2588 94.6896C64.0361 94.9825 63.7373 95.129 63.3623 95.129C62.9619 95.129 62.6523 94.9874 62.4336 94.7042L62.4072 95.0704H61.9092V90.5704H62.4512V92.2491C62.6699 91.9777 62.9717 91.8419 63.3564 91.8419C63.7412 91.8419 64.043 91.9874 64.2617 92.2784C64.4824 92.5695 64.5928 92.9679 64.5928 93.4738V93.5206ZM64.0508 93.4591C64.0508 93.09 63.9795 92.8048 63.8369 92.6036C63.6943 92.4025 63.4893 92.3019 63.2217 92.3019C62.8643 92.3019 62.6074 92.4679 62.4512 92.7999V94.171C62.6172 94.5031 62.876 94.6691 63.2275 94.6691C63.4873 94.6691 63.6895 94.5685 63.834 94.3673C63.9785 94.1661 64.0508 93.8634 64.0508 93.4591ZM65.1348 93.4562C65.1348 93.1456 65.1953 92.8663 65.3164 92.6183C65.4395 92.3702 65.6094 92.1788 65.8262 92.0441C66.0449 91.9093 66.2939 91.8419 66.5732 91.8419C67.0049 91.8419 67.3535 91.9913 67.6191 92.2902C67.8867 92.589 68.0205 92.9865 68.0205 93.4825V93.5206C68.0205 93.8292 67.9609 94.1066 67.8418 94.3527C67.7246 94.5968 67.5557 94.7872 67.335 94.924C67.1162 95.0607 66.8643 95.129 66.5791 95.129C66.1494 95.129 65.8008 94.9796 65.5332 94.6808C65.2676 94.382 65.1348 93.9865 65.1348 93.4943V93.4562ZM65.6797 93.5206C65.6797 93.8722 65.7607 94.1544 65.9229 94.3673C66.0869 94.5802 66.3057 94.6866 66.5791 94.6866C66.8545 94.6866 67.0732 94.5792 67.2354 94.3644C67.3975 94.1476 67.4785 93.8448 67.4785 93.4562C67.4785 93.1085 67.3955 92.8273 67.2295 92.6124C67.0654 92.3956 66.8467 92.2872 66.5732 92.2872C66.3057 92.2872 66.0898 92.3937 65.9258 92.6066C65.7617 92.8195 65.6797 93.1241 65.6797 93.5206ZM68.5566 93.4562C68.5566 93.1456 68.6172 92.8663 68.7383 92.6183C68.8613 92.3702 69.0312 92.1788 69.248 92.0441C69.4668 91.9093 69.7158 91.8419 69.9951 91.8419C70.4268 91.8419 70.7754 91.9913 71.041 92.2902C71.3086 92.589 71.4424 92.9865 71.4424 93.4825V93.5206C71.4424 93.8292 71.3828 94.1066 71.2637 94.3527C71.1465 94.5968 70.9775 94.7872 70.7568 94.924C70.5381 95.0607 70.2861 95.129 70.001 95.129C69.5713 95.129 69.2227 94.9796 68.9551 94.6808C68.6895 94.382 68.5566 93.9865 68.5566 93.4943V93.4562ZM69.1016 93.5206C69.1016 93.8722 69.1826 94.1544 69.3447 94.3673C69.5088 94.5802 69.7275 94.6866 70.001 94.6866C70.2764 94.6866 70.4951 94.5792 70.6572 94.3644C70.8193 94.1476 70.9004 93.8448 70.9004 93.4562C70.9004 93.1085 70.8174 92.8273 70.6514 92.6124C70.4873 92.3956 70.2686 92.2872 69.9951 92.2872C69.7275 92.2872 69.5117 92.3937 69.3477 92.6066C69.1836 92.8195 69.1016 93.1241 69.1016 93.5206ZM72.8574 91.1329V91.9005H73.4492V92.3195H72.8574V94.2853C72.8574 94.4122 72.8838 94.5079 72.9365 94.5724C72.9893 94.6349 73.0791 94.6661 73.2061 94.6661C73.2686 94.6661 73.3545 94.6544 73.4639 94.631V95.0704C73.3213 95.1095 73.1826 95.129 73.0479 95.129C72.8057 95.129 72.623 95.0558 72.5 94.9093C72.377 94.7628 72.3154 94.5548 72.3154 94.2853V92.3195H71.7383V91.9005H72.3154V91.1329H72.8574ZM74.6738 95.0704H74.1318V90.5704H74.6738V95.0704ZM75.4004 93.4562C75.4004 93.1456 75.4609 92.8663 75.582 92.6183C75.7051 92.3702 75.875 92.1788 76.0918 92.0441C76.3105 91.9093 76.5596 91.8419 76.8389 91.8419C77.2705 91.8419 77.6191 91.9913 77.8848 92.2902C78.1523 92.589 78.2861 92.9865 78.2861 93.4825V93.5206C78.2861 93.8292 78.2266 94.1066 78.1074 94.3527C77.9902 94.5968 77.8213 94.7872 77.6006 94.924C77.3818 95.0607 77.1299 95.129 76.8447 95.129C76.415 95.129 76.0664 94.9796 75.7988 94.6808C75.5332 94.382 75.4004 93.9865 75.4004 93.4943V93.4562ZM75.9453 93.5206C75.9453 93.8722 76.0264 94.1544 76.1885 94.3673C76.3525 94.5802 76.5713 94.6866 76.8447 94.6866C77.1201 94.6866 77.3389 94.5792 77.501 94.3644C77.6631 94.1476 77.7441 93.8448 77.7441 93.4562C77.7441 93.1085 77.6611 92.8273 77.4951 92.6124C77.3311 92.3956 77.1123 92.2872 76.8389 92.2872C76.5713 92.2872 76.3555 92.3937 76.1914 92.6066C76.0273 92.8195 75.9453 93.1241 75.9453 93.5206ZM80.9229 95.0704C80.8916 95.0079 80.8662 94.8966 80.8467 94.7365C80.5947 94.9982 80.2939 95.129 79.9443 95.129C79.6318 95.129 79.375 95.0411 79.1738 94.8654C78.9746 94.6876 78.875 94.463 78.875 94.1915C78.875 93.8615 79 93.6056 79.25 93.424C79.502 93.2404 79.8555 93.1486 80.3105 93.1486H80.8379V92.8995C80.8379 92.7101 80.7812 92.5597 80.668 92.4484C80.5547 92.3351 80.3877 92.2784 80.167 92.2784C79.9736 92.2784 79.8115 92.3273 79.6807 92.4249C79.5498 92.5226 79.4844 92.6407 79.4844 92.7794H78.9395C78.9395 92.6212 78.9951 92.4689 79.1064 92.3224C79.2197 92.174 79.3721 92.0568 79.5635 91.9708C79.7568 91.8849 79.9688 91.8419 80.1992 91.8419C80.5645 91.8419 80.8506 91.9337 81.0576 92.1173C81.2646 92.299 81.3721 92.5499 81.3799 92.8702V94.3292C81.3799 94.6202 81.417 94.8517 81.4912 95.0236V95.0704H80.9229ZM80.0234 94.6573C80.1934 94.6573 80.3545 94.6134 80.5068 94.5255C80.6592 94.4376 80.7695 94.3234 80.8379 94.1827V93.5323H80.4131C79.749 93.5323 79.417 93.7267 79.417 94.1154C79.417 94.2853 79.4736 94.4181 79.5869 94.5138C79.7002 94.6095 79.8457 94.6573 80.0234 94.6573ZM82.0977 93.4591C82.0977 92.9728 82.2129 92.5822 82.4434 92.2872C82.6738 91.9904 82.9756 91.8419 83.3486 91.8419C83.7197 91.8419 84.0137 91.9689 84.2305 92.2228V90.5704H84.7725V95.0704H84.2744L84.248 94.7306C84.0312 94.9962 83.7295 95.129 83.3428 95.129C82.9756 95.129 82.6758 94.9786 82.4434 94.6779C82.2129 94.3771 82.0977 93.9845 82.0977 93.5001V93.4591ZM82.6396 93.5206C82.6396 93.88 82.7139 94.1613 82.8623 94.3644C83.0107 94.5675 83.2158 94.6691 83.4775 94.6691C83.8213 94.6691 84.0723 94.5148 84.2305 94.2062V92.7501C84.0684 92.4513 83.8193 92.3019 83.4834 92.3019C83.2178 92.3019 83.0107 92.4044 82.8623 92.6095C82.7139 92.8146 82.6396 93.1183 82.6396 93.5206ZM86.9316 95.129C86.502 95.129 86.1523 94.9884 85.8828 94.7072C85.6133 94.424 85.4785 94.046 85.4785 93.5734V93.4738C85.4785 93.1593 85.5381 92.879 85.6572 92.6329C85.7783 92.3849 85.9463 92.1915 86.1611 92.0529C86.3779 91.9122 86.6123 91.8419 86.8643 91.8419C87.2764 91.8419 87.5967 91.9777 87.8252 92.2491C88.0537 92.5206 88.168 92.9093 88.168 93.4152V93.6407H86.0205C86.0283 93.9532 86.1191 94.2062 86.293 94.3995C86.4688 94.5909 86.6914 94.6866 86.9609 94.6866C87.1523 94.6866 87.3145 94.6476 87.4473 94.5695C87.5801 94.4913 87.6963 94.3878 87.7959 94.2589L88.127 94.5167C87.8613 94.9249 87.4629 95.129 86.9316 95.129ZM86.8643 92.2872C86.6455 92.2872 86.4619 92.3673 86.3135 92.5275C86.165 92.6857 86.0732 92.9083 86.0381 93.1954H87.626V93.1544C87.6104 92.879 87.5361 92.6661 87.4033 92.5157C87.2705 92.3634 87.0908 92.2872 86.8643 92.2872ZM90.3301 92.3868C90.248 92.3732 90.1592 92.3663 90.0635 92.3663C89.708 92.3663 89.4668 92.5177 89.3398 92.8204V95.0704H88.7979V91.9005H89.3252L89.334 92.2667C89.5117 91.9835 89.7637 91.8419 90.0898 91.8419C90.1953 91.8419 90.2754 91.8556 90.3301 91.8829V92.3868ZM93.0547 91.1329V91.9005H93.6465V92.3195H93.0547V94.2853C93.0547 94.4122 93.0811 94.5079 93.1338 94.5724C93.1865 94.6349 93.2764 94.6661 93.4033 94.6661C93.4658 94.6661 93.5518 94.6544 93.6611 94.631V95.0704C93.5186 95.1095 93.3799 95.129 93.2451 95.129C93.0029 95.129 92.8203 95.0558 92.6973 94.9093C92.5742 94.7628 92.5127 94.5548 92.5127 94.2853V92.3195H91.9355V91.9005H92.5127V91.1329H93.0547ZM94.0801 93.4562C94.0801 93.1456 94.1406 92.8663 94.2617 92.6183C94.3848 92.3702 94.5547 92.1788 94.7715 92.0441C94.9902 91.9093 95.2393 91.8419 95.5186 91.8419C95.9502 91.8419 96.2988 91.9913 96.5645 92.2902C96.832 92.589 96.9658 92.9865 96.9658 93.4825V93.5206C96.9658 93.8292 96.9062 94.1066 96.7871 94.3527C96.6699 94.5968 96.501 94.7872 96.2803 94.924C96.0615 95.0607 95.8096 95.129 95.5244 95.129C95.0947 95.129 94.7461 94.9796 94.4785 94.6808C94.2129 94.382 94.0801 93.9865 94.0801 93.4943V93.4562ZM94.625 93.5206C94.625 93.8722 94.7061 94.1544 94.8682 94.3673C95.0322 94.5802 95.251 94.6866 95.5244 94.6866C95.7998 94.6866 96.0186 94.5792 96.1807 94.3644C96.3428 94.1476 96.4238 93.8448 96.4238 93.4562C96.4238 93.1085 96.3408 92.8273 96.1748 92.6124C96.0107 92.3956 95.792 92.2872 95.5186 92.2872C95.251 92.2872 95.0352 92.3937 94.8711 92.6066C94.707 92.8195 94.625 93.1241 94.625 93.5206ZM101.817 93.5206C101.817 94.005 101.706 94.3947 101.483 94.6896C101.261 94.9825 100.962 95.129 100.587 95.129C100.187 95.129 99.877 94.9874 99.6582 94.7042L99.6318 95.0704H99.1338V90.5704H99.6758V92.2491C99.8945 91.9777 100.196 91.8419 100.581 91.8419C100.966 91.8419 101.268 91.9874 101.486 92.2784C101.707 92.5695 101.817 92.9679 101.817 93.4738V93.5206ZM101.275 93.4591C101.275 93.09 101.204 92.8048 101.062 92.6036C100.919 92.4025 100.714 92.3019 100.446 92.3019C100.089 92.3019 99.832 92.4679 99.6758 92.7999V94.171C99.8418 94.5031 100.101 94.6691 100.452 94.6691C100.712 94.6691 100.914 94.5685 101.059 94.3673C101.203 94.1661 101.275 93.8634 101.275 93.4591ZM103.818 95.129C103.389 95.129 103.039 94.9884 102.77 94.7072C102.5 94.424 102.365 94.046 102.365 93.5734V93.4738C102.365 93.1593 102.425 92.879 102.544 92.6329C102.665 92.3849 102.833 92.1915 103.048 92.0529C103.265 91.9122 103.499 91.8419 103.751 91.8419C104.163 91.8419 104.483 91.9777 104.712 92.2491C104.94 92.5206 105.055 92.9093 105.055 93.4152V93.6407H102.907C102.915 93.9532 103.006 94.2062 103.18 94.3995C103.355 94.5909 103.578 94.6866 103.848 94.6866C104.039 94.6866 104.201 94.6476 104.334 94.5695C104.467 94.4913 104.583 94.3878 104.683 94.2589L105.014 94.5167C104.748 94.9249 104.35 95.129 103.818 95.129ZM103.751 92.2872C103.532 92.2872 103.349 92.3673 103.2 92.5275C103.052 92.6857 102.96 92.9083 102.925 93.1954H104.513V93.1544C104.497 92.879 104.423 92.6661 104.29 92.5157C104.157 92.3634 103.978 92.2872 103.751 92.2872ZM109.13 94.757C108.919 95.005 108.609 95.129 108.201 95.129C107.863 95.129 107.605 95.0314 107.428 94.8361C107.252 94.6388 107.163 94.3478 107.161 93.963V91.9005H107.703V93.9484C107.703 94.4288 107.898 94.6691 108.289 94.6691C108.703 94.6691 108.979 94.5148 109.115 94.2062V91.9005H109.657V95.0704H109.142L109.13 94.757ZM110.996 91.9005L111.014 92.299C111.256 91.9943 111.572 91.8419 111.963 91.8419C112.633 91.8419 112.971 92.2198 112.977 92.9757V95.0704H112.435V92.9728C112.433 92.7443 112.38 92.5753 112.276 92.4659C112.175 92.3566 112.016 92.3019 111.799 92.3019C111.623 92.3019 111.469 92.3488 111.336 92.4425C111.203 92.5363 111.1 92.6593 111.025 92.8116V95.0704H110.483V91.9005H110.996ZM114.383 95.0704H113.841V90.5704H114.383V95.0704ZM115.109 93.4562C115.109 93.1456 115.17 92.8663 115.291 92.6183C115.414 92.3702 115.584 92.1788 115.801 92.0441C116.02 91.9093 116.269 91.8419 116.548 91.8419C116.979 91.8419 117.328 91.9913 117.594 92.2902C117.861 92.589 117.995 92.9865 117.995 93.4825V93.5206C117.995 93.8292 117.936 94.1066 117.816 94.3527C117.699 94.5968 117.53 94.7872 117.31 94.924C117.091 95.0607 116.839 95.129 116.554 95.129C116.124 95.129 115.775 94.9796 115.508 94.6808C115.242 94.382 115.109 93.9865 115.109 93.4943V93.4562ZM115.654 93.5206C115.654 93.8722 115.735 94.1544 115.897 94.3673C116.062 94.5802 116.28 94.6866 116.554 94.6866C116.829 94.6866 117.048 94.5792 117.21 94.3644C117.372 94.1476 117.453 93.8448 117.453 93.4562C117.453 93.1085 117.37 92.8273 117.204 92.6124C117.04 92.3956 116.821 92.2872 116.548 92.2872C116.28 92.2872 116.064 92.3937 115.9 92.6066C115.736 92.8195 115.654 93.1241 115.654 93.5206ZM119.946 94.6866C120.14 94.6866 120.309 94.6281 120.453 94.5109C120.598 94.3937 120.678 94.2472 120.693 94.0714H121.206C121.196 94.2531 121.134 94.4259 121.019 94.59C120.903 94.754 120.749 94.8849 120.556 94.9825C120.364 95.0802 120.161 95.129 119.946 95.129C119.515 95.129 119.171 94.9855 118.915 94.6984C118.661 94.4093 118.534 94.0148 118.534 93.5148V93.424C118.534 93.1154 118.591 92.8409 118.704 92.6007C118.817 92.3605 118.979 92.174 119.19 92.0411C119.403 91.9083 119.654 91.8419 119.943 91.8419C120.299 91.8419 120.594 91.9484 120.828 92.1613C121.064 92.3741 121.19 92.6505 121.206 92.9904H120.693C120.678 92.7853 120.6 92.6173 120.459 92.4865C120.32 92.3536 120.148 92.2872 119.943 92.2872C119.668 92.2872 119.454 92.3868 119.302 92.5861C119.151 92.7833 119.076 93.0695 119.076 93.4445V93.547C119.076 93.9122 119.151 94.1935 119.302 94.3907C119.452 94.588 119.667 94.6866 119.946 94.6866ZM122.7 93.6027L122.36 93.9572V95.0704H121.818V90.5704H122.36V93.2921L122.65 92.9435L123.638 91.9005H124.297L123.063 93.2247L124.44 95.0704H123.805L122.7 93.6027ZM126.113 95.129C125.684 95.129 125.334 94.9884 125.064 94.7072C124.795 94.424 124.66 94.046 124.66 93.5734V93.4738C124.66 93.1593 124.72 92.879 124.839 92.6329C124.96 92.3849 125.128 92.1915 125.343 92.0529C125.56 91.9122 125.794 91.8419 126.046 91.8419C126.458 91.8419 126.778 91.9777 127.007 92.2491C127.235 92.5206 127.35 92.9093 127.35 93.4152V93.6407H125.202C125.21 93.9532 125.301 94.2062 125.475 94.3995C125.65 94.5909 125.873 94.6866 126.143 94.6866C126.334 94.6866 126.496 94.6476 126.629 94.5695C126.762 94.4913 126.878 94.3878 126.978 94.2589L127.309 94.5167C127.043 94.9249 126.645 95.129 126.113 95.129ZM126.046 92.2872C125.827 92.2872 125.644 92.3673 125.495 92.5275C125.347 92.6857 125.255 92.9083 125.22 93.1954H126.808V93.1544C126.792 92.879 126.718 92.6661 126.585 92.5157C126.452 92.3634 126.272 92.2872 126.046 92.2872ZM127.848 93.4591C127.848 92.9728 127.963 92.5822 128.193 92.2872C128.424 91.9904 128.726 91.8419 129.099 91.8419C129.47 91.8419 129.764 91.9689 129.98 92.2228V90.5704H130.522V95.0704H130.024L129.998 94.7306C129.781 94.9962 129.479 95.129 129.093 95.129C128.726 95.129 128.426 94.9786 128.193 94.6779C127.963 94.3771 127.848 93.9845 127.848 93.5001V93.4591ZM128.39 93.5206C128.39 93.88 128.464 94.1613 128.612 94.3644C128.761 94.5675 128.966 94.6691 129.228 94.6691C129.571 94.6691 129.822 94.5148 129.98 94.2062V92.7501C129.818 92.4513 129.569 92.3019 129.233 92.3019C128.968 92.3019 128.761 92.4044 128.612 92.6095C128.464 92.8146 128.39 93.1183 128.39 93.5206Z" fill="black" fill-opacity="0.8"/>
<g clip-path="url(#clip4)">
<path fill-rule="evenodd" clip-rule="evenodd" d="M36.4609 114.455C36.4609 113.563 37.1842 112.84 38.0763 112.84H68.0763C68.9685 112.84 69.6917 113.563 69.6917 114.455C69.6917 115.347 68.9685 116.07 68.0763 116.07H38.0763C37.1842 116.07 36.4609 115.347 36.4609 114.455Z" fill="black" fill-opacity="0.5"/>
<path fill-rule="evenodd" clip-rule="evenodd" d="M36.4609 122.994C36.4609 122.356 36.9775 121.84 37.6148 121.84H124.615C125.252 121.84 125.769 122.356 125.769 122.994C125.769 123.631 125.252 124.147 124.615 124.147H37.6148C36.9775 124.147 36.4609 123.631 36.4609 122.994Z" fill="black" fill-opacity="0.5"/>
</g>
<g clip-path="url(#clip5)">
<path fill-rule="evenodd" clip-rule="evenodd" d="M36.4609 145.147C36.4609 144.255 37.1842 143.532 38.0763 143.532H82.1532C83.0454 143.532 83.7686 144.255 83.7686 145.147C83.7686 146.04 83.0454 146.763 82.1532 146.763H38.0763C37.1842 146.763 36.4609 146.04 36.4609 145.147Z" fill="black" fill-opacity="0.5"/>
<path fill-rule="evenodd" clip-rule="evenodd" d="M36.4609 153.686C36.4609 153.049 36.9775 152.532 37.6148 152.532H99.2302C99.8674 152.532 100.384 153.049 100.384 153.686C100.384 154.323 99.8674 154.84 99.2302 154.84H37.6148C36.9775 154.84 36.4609 154.323 36.4609 153.686Z" fill="black" fill-opacity="0.5"/>
</g>
<g clip-path="url(#clip6)">
<path fill-rule="evenodd" clip-rule="evenodd" d="M36.4609 175.84C36.4609 174.947 37.1842 174.224 38.0763 174.224H90.2302C91.1223 174.224 91.8456 174.947 91.8456 175.84C91.8456 176.732 91.1223 177.455 90.2302 177.455H38.0763C37.1842 177.455 36.4609 176.732 36.4609 175.84Z" fill="black" fill-opacity="0.5"/>
<path fill-rule="evenodd" clip-rule="evenodd" d="M36.4609 184.378C36.4609 183.741 36.9775 183.224 37.6148 183.224H110.769C111.406 183.224 111.922 183.741 111.922 184.378C111.922 185.015 111.406 185.532 110.769 185.532H37.6148C36.9775 185.532 36.4609 185.015 36.4609 184.378Z" fill="black" fill-opacity="0.5"/>
<rect x="154.384" y="176.88" width="12.913" height="5.99531" rx="2.99766" fill="#DEDEDE"/>
<circle cx="163.146" cy="179.878" r="4.1506" fill="#9F9F9F"/>
</g>
<g clip-path="url(#clip7)">
<path fill-rule="evenodd" clip-rule="evenodd" d="M36.4609 206.532C36.4609 205.64 37.1842 204.917 38.0763 204.917H82.1532C83.0454 204.917 83.7686 205.64 83.7686 206.532C83.7686 207.424 83.0454 208.147 82.1532 208.147H38.0763C37.1842 208.147 36.4609 207.424 36.4609 206.532Z" fill="black" fill-opacity="0.5"/>
<path fill-rule="evenodd" clip-rule="evenodd" d="M36.4609 215.07C36.4609 214.433 36.9775 213.917 37.6148 213.917H110.769C111.406 213.917 111.922 214.433 111.922 215.07C111.922 215.708 111.406 216.224 110.769 216.224H37.6148C36.9775 216.224 36.4609 215.708 36.4609 215.07Z" fill="black" fill-opacity="0.5"/>
</g>
<g clip-path="url(#clip8)">
<path fill-rule="evenodd" clip-rule="evenodd" d="M36.4609 237.224C36.4609 236.332 37.1842 235.609 38.0763 235.609H82.1532C83.0454 235.609 83.7686 236.332 83.7686 237.224C83.7686 238.116 83.0454 238.84 82.1532 238.84H38.0763C37.1842 238.84 36.4609 238.116 36.4609 237.224Z" fill="black" fill-opacity="0.5"/>
</g>
<g clip-path="url(#clip9)">
<path fill-rule="evenodd" clip-rule="evenodd" d="M36.4609 259.84C36.4609 258.947 37.1842 258.224 38.0763 258.224H82.1532C83.0454 258.224 83.7686 258.947 83.7686 259.84C83.7686 260.732 83.0454 261.455 82.1532 261.455H38.0763C37.1842 261.455 36.4609 260.732 36.4609 259.84Z" fill="black" fill-opacity="0.5"/>
</g>
<line opacity="0.2" x1="6.92285" y1="274.147" x2="173.077" y2="274.147" stroke="black" stroke-width="0.461538"/>
<path fill-rule="evenodd" clip-rule="evenodd" d="M18 288.455C18 287.818 18.5166 287.301 19.1538 287.301H55.3846C56.0219 287.301 56.5385 287.818 56.5385 288.455C56.5385 289.092 56.0219 289.609 55.3846 289.609H19.1538C18.5166 289.609 18 289.092 18 288.455Z" fill="black" fill-opacity="0.5"/>
<g clip-path="url(#clip10)">
<path fill-rule="evenodd" clip-rule="evenodd" d="M36.4609 304.147C36.4609 303.255 37.1842 302.532 38.0763 302.532H106.384C107.276 302.532 107.999 303.255 107.999 304.147C107.999 305.039 107.276 305.763 106.384 305.763H38.0763C37.1842 305.763 36.4609 305.039 36.4609 304.147Z" fill="black" fill-opacity="0.5"/>
<path fill-rule="evenodd" clip-rule="evenodd" d="M36.4609 312.686C36.4609 312.049 36.9775 311.532 37.6148 311.532H119.999C120.637 311.532 121.153 312.049 121.153 312.686C121.153 313.323 120.637 313.84 119.999 313.84H37.6148C36.9775 313.84 36.4609 313.323 36.4609 312.686Z" fill="black" fill-opacity="0.5"/>
<rect x="154.384" y="305.188" width="12.913" height="5.99531" rx="2.99766" fill="#DEDEDE"/>
<circle cx="163.146" cy="308.186" r="4.1506" fill="#9F9F9F"/>
</g>
<g clip-path="url(#clip11)">
<path fill-rule="evenodd" clip-rule="evenodd" d="M36.4609 334.84C36.4609 333.947 37.1842 333.224 38.0763 333.224H82.1532C83.0454 333.224 83.7686 333.947 83.7686 334.84C83.7686 335.732 83.0454 336.455 82.1532 336.455H38.0763C37.1842 336.455 36.4609 335.732 36.4609 334.84Z" fill="black" fill-opacity="0.5"/>
</g>
<g clip-path="url(#clip12)">
<path fill-rule="evenodd" clip-rule="evenodd" d="M36.4619 357.455C36.4619 356.563 37.1851 355.84 38.0773 355.84H120.231C121.123 355.84 121.847 356.563 121.847 357.455C121.847 358.347 121.123 359.07 120.231 359.07H38.0773C37.1852 359.07 36.4619 358.347 36.4619 357.455Z" fill="black" fill-opacity="0.5"/>
<path fill-rule="evenodd" clip-rule="evenodd" d="M36.4619 365.993C36.4619 365.356 36.9785 364.84 37.6158 364.84H117.693C118.33 364.84 118.847 365.356 118.847 365.993C118.847 366.631 118.33 367.147 117.693 367.147H37.6158C36.9785 367.147 36.4619 366.631 36.4619 365.993Z" fill="black" fill-opacity="0.5"/>
<rect x="154.616" y="358.496" width="12.913" height="5.99531" rx="2.99766" fill="#9F9F9F"/>
<circle cx="158.767" cy="361.493" r="4.1506" fill="#DEDEDE"/>
</g>
<rect x="6.92285" y="6.9231" width="166.154" height="360" fill="#252525" fill-opacity="0.6"/>
<rect x="17.3076" y="173.077" width="145.615" height="28.6154" rx="1.38462" fill="white"/>
<path d="M28.0576 184.792V186.462H27.4951V182.196H29.0684C29.5352 182.196 29.9004 182.315 30.1641 182.553C30.4297 182.792 30.5625 183.107 30.5625 183.5C30.5625 183.914 30.4326 184.233 30.1729 184.458C29.915 184.68 29.5449 184.792 29.0625 184.792H28.0576ZM28.0576 184.332H29.0684C29.3691 184.332 29.5996 184.261 29.7598 184.121C29.9199 183.978 30 183.773 30 183.505C30 183.252 29.9199 183.048 29.7598 182.896C29.5996 182.744 29.3799 182.665 29.1006 182.659H28.0576V184.332ZM31.7842 186.462H31.2422V181.962H31.7842V186.462ZM33.9697 186.52C33.54 186.52 33.1904 186.38 32.9209 186.098C32.6514 185.815 32.5166 185.437 32.5166 184.964V184.865C32.5166 184.55 32.5762 184.27 32.6953 184.024C32.8164 183.776 32.9844 183.583 33.1992 183.444C33.416 183.303 33.6504 183.233 33.9023 183.233C34.3145 183.233 34.6348 183.369 34.8633 183.64C35.0918 183.912 35.2061 184.3 35.2061 184.806V185.032H33.0586C33.0664 185.344 33.1572 185.597 33.3311 185.791C33.5068 185.982 33.7295 186.078 33.999 186.078C34.1904 186.078 34.3525 186.039 34.4854 185.961C34.6182 185.882 34.7344 185.779 34.834 185.65L35.165 185.908C34.8994 186.316 34.501 186.52 33.9697 186.52ZM33.9023 183.678C33.6836 183.678 33.5 183.758 33.3516 183.919C33.2031 184.077 33.1113 184.299 33.0762 184.587H34.6641V184.546C34.6484 184.27 34.5742 184.057 34.4414 183.907C34.3086 183.755 34.1289 183.678 33.9023 183.678ZM37.793 186.462C37.7617 186.399 37.7363 186.288 37.7168 186.128C37.4648 186.389 37.1641 186.52 36.8145 186.52C36.502 186.52 36.2451 186.432 36.0439 186.256C35.8447 186.079 35.7451 185.854 35.7451 185.583C35.7451 185.253 35.8701 184.997 36.1201 184.815C36.3721 184.631 36.7256 184.54 37.1807 184.54H37.708V184.291C37.708 184.101 37.6514 183.951 37.5381 183.839C37.4248 183.726 37.2578 183.67 37.0371 183.67C36.8438 183.67 36.6816 183.718 36.5508 183.816C36.4199 183.914 36.3545 184.032 36.3545 184.171H35.8096C35.8096 184.012 35.8652 183.86 35.9766 183.714C36.0898 183.565 36.2422 183.448 36.4336 183.362C36.627 183.276 36.8389 183.233 37.0693 183.233C37.4346 183.233 37.7207 183.325 37.9277 183.508C38.1348 183.69 38.2422 183.941 38.25 184.261V185.72C38.25 186.011 38.2871 186.243 38.3613 186.415V186.462H37.793ZM36.8936 186.048C37.0635 186.048 37.2246 186.005 37.377 185.917C37.5293 185.829 37.6396 185.714 37.708 185.574V184.923H37.2832C36.6191 184.923 36.2871 185.118 36.2871 185.506C36.2871 185.676 36.3438 185.809 36.457 185.905C36.5703 186.001 36.7158 186.048 36.8936 186.048ZM40.9453 185.621C40.9453 185.474 40.8896 185.361 40.7783 185.281C40.6689 185.199 40.4766 185.129 40.2012 185.07C39.9277 185.011 39.71 184.941 39.5479 184.859C39.3877 184.777 39.2686 184.679 39.1904 184.566C39.1143 184.453 39.0762 184.318 39.0762 184.162C39.0762 183.902 39.1855 183.682 39.4043 183.503C39.625 183.323 39.9062 183.233 40.248 183.233C40.6074 183.233 40.8984 183.326 41.1211 183.511C41.3457 183.697 41.458 183.934 41.458 184.223H40.9131C40.9131 184.075 40.8496 183.947 40.7227 183.839C40.5977 183.732 40.4395 183.678 40.248 183.678C40.0508 183.678 39.8965 183.721 39.7852 183.807C39.6738 183.893 39.6182 184.005 39.6182 184.144C39.6182 184.275 39.6699 184.374 39.7734 184.44C39.877 184.506 40.0635 184.57 40.333 184.63C40.6045 184.691 40.8242 184.763 40.9922 184.847C41.1602 184.931 41.2842 185.033 41.3643 185.152C41.4463 185.269 41.4873 185.413 41.4873 185.583C41.4873 185.866 41.374 186.093 41.1475 186.265C40.9209 186.435 40.627 186.52 40.2656 186.52C40.0117 186.52 39.7871 186.475 39.5918 186.385C39.3965 186.296 39.2432 186.171 39.1318 186.01C39.0225 185.848 38.9678 185.673 38.9678 185.486H39.5098C39.5195 185.668 39.5918 185.812 39.7266 185.92C39.8633 186.025 40.043 186.078 40.2656 186.078C40.4707 186.078 40.6348 186.037 40.7578 185.955C40.8828 185.871 40.9453 185.759 40.9453 185.621ZM43.5088 186.52C43.0791 186.52 42.7295 186.38 42.46 186.098C42.1904 185.815 42.0557 185.437 42.0557 184.964V184.865C42.0557 184.55 42.1152 184.27 42.2344 184.024C42.3555 183.776 42.5234 183.583 42.7383 183.444C42.9551 183.303 43.1895 183.233 43.4414 183.233C43.8535 183.233 44.1738 183.369 44.4023 183.64C44.6309 183.912 44.7451 184.3 44.7451 184.806V185.032H42.5977C42.6055 185.344 42.6963 185.597 42.8701 185.791C43.0459 185.982 43.2686 186.078 43.5381 186.078C43.7295 186.078 43.8916 186.039 44.0244 185.961C44.1572 185.882 44.2734 185.779 44.373 185.65L44.7041 185.908C44.4385 186.316 44.04 186.52 43.5088 186.52ZM43.4414 183.678C43.2227 183.678 43.0391 183.758 42.8906 183.919C42.7422 184.077 42.6504 184.299 42.6152 184.587H44.2031V184.546C44.1875 184.27 44.1133 184.057 43.9805 183.907C43.8477 183.755 43.668 183.678 43.4414 183.678ZM48.3955 183.778C48.3135 183.764 48.2246 183.757 48.1289 183.757C47.7734 183.757 47.5322 183.909 47.4053 184.212V186.462H46.8633V183.292H47.3906L47.3994 183.658C47.5771 183.375 47.8291 183.233 48.1553 183.233C48.2607 183.233 48.3408 183.247 48.3955 183.274V183.778ZM50.1533 186.52C49.7236 186.52 49.374 186.38 49.1045 186.098C48.835 185.815 48.7002 185.437 48.7002 184.964V184.865C48.7002 184.55 48.7598 184.27 48.8789 184.024C49 183.776 49.168 183.583 49.3828 183.444C49.5996 183.303 49.834 183.233 50.0859 183.233C50.498 183.233 50.8184 183.369 51.0469 183.64C51.2754 183.912 51.3896 184.3 51.3896 184.806V185.032H49.2422C49.25 185.344 49.3408 185.597 49.5146 185.791C49.6904 185.982 49.9131 186.078 50.1826 186.078C50.374 186.078 50.5361 186.039 50.6689 185.961C50.8018 185.882 50.918 185.779 51.0176 185.65L51.3486 185.908C51.083 186.316 50.6846 186.52 50.1533 186.52ZM50.0859 183.678C49.8672 183.678 49.6836 183.758 49.5352 183.919C49.3867 184.077 49.2949 184.299 49.2598 184.587H50.8477V184.546C50.832 184.27 50.7578 184.057 50.625 183.907C50.4922 183.755 50.3125 183.678 50.0859 183.678ZM53.8652 185.621C53.8652 185.474 53.8096 185.361 53.6982 185.281C53.5889 185.199 53.3965 185.129 53.1211 185.07C52.8477 185.011 52.6299 184.941 52.4678 184.859C52.3076 184.777 52.1885 184.679 52.1104 184.566C52.0342 184.453 51.9961 184.318 51.9961 184.162C51.9961 183.902 52.1055 183.682 52.3242 183.503C52.5449 183.323 52.8262 183.233 53.168 183.233C53.5273 183.233 53.8184 183.326 54.041 183.511C54.2656 183.697 54.3779 183.934 54.3779 184.223H53.833C53.833 184.075 53.7695 183.947 53.6426 183.839C53.5176 183.732 53.3594 183.678 53.168 183.678C52.9707 183.678 52.8164 183.721 52.7051 183.807C52.5938 183.893 52.5381 184.005 52.5381 184.144C52.5381 184.275 52.5898 184.374 52.6934 184.44C52.7969 184.506 52.9834 184.57 53.2529 184.63C53.5244 184.691 53.7441 184.763 53.9121 184.847C54.0801 184.931 54.2041 185.033 54.2842 185.152C54.3662 185.269 54.4072 185.413 54.4072 185.583C54.4072 185.866 54.2939 186.093 54.0674 186.265C53.8408 186.435 53.5469 186.52 53.1855 186.52C52.9316 186.52 52.707 186.475 52.5117 186.385C52.3164 186.296 52.1631 186.171 52.0518 186.01C51.9424 185.848 51.8877 185.673 51.8877 185.486H52.4297C52.4395 185.668 52.5117 185.812 52.6465 185.92C52.7832 186.025 52.9629 186.078 53.1855 186.078C53.3906 186.078 53.5547 186.037 53.6777 185.955C53.8027 185.871 53.8652 185.759 53.8652 185.621ZM55.8486 182.524V183.292H56.4404V183.711H55.8486V185.676C55.8486 185.803 55.875 185.899 55.9277 185.964C55.9805 186.026 56.0703 186.057 56.1973 186.057C56.2598 186.057 56.3457 186.046 56.4551 186.022V186.462C56.3125 186.501 56.1738 186.52 56.0391 186.52C55.7969 186.52 55.6143 186.447 55.4912 186.3C55.3682 186.154 55.3066 185.946 55.3066 185.676V183.711H54.7295V183.292H55.3066V182.524H55.8486ZM59.0332 186.462C59.002 186.399 58.9766 186.288 58.957 186.128C58.7051 186.389 58.4043 186.52 58.0547 186.52C57.7422 186.52 57.4854 186.432 57.2842 186.256C57.085 186.079 56.9854 185.854 56.9854 185.583C56.9854 185.253 57.1104 184.997 57.3604 184.815C57.6123 184.631 57.9658 184.54 58.4209 184.54H58.9482V184.291C58.9482 184.101 58.8916 183.951 58.7783 183.839C58.665 183.726 58.498 183.67 58.2773 183.67C58.084 183.67 57.9219 183.718 57.791 183.816C57.6602 183.914 57.5947 184.032 57.5947 184.171H57.0498C57.0498 184.012 57.1055 183.86 57.2168 183.714C57.3301 183.565 57.4824 183.448 57.6738 183.362C57.8672 183.276 58.0791 183.233 58.3096 183.233C58.6748 183.233 58.9609 183.325 59.168 183.508C59.375 183.69 59.4824 183.941 59.4902 184.261V185.72C59.4902 186.011 59.5273 186.243 59.6016 186.415V186.462H59.0332ZM58.1338 186.048C58.3037 186.048 58.4648 186.005 58.6172 185.917C58.7695 185.829 58.8799 185.714 58.9482 185.574V184.923H58.5234C57.8594 184.923 57.5273 185.118 57.5273 185.506C57.5273 185.676 57.584 185.809 57.6973 185.905C57.8105 186.001 57.9561 186.048 58.1338 186.048ZM61.8721 183.778C61.79 183.764 61.7012 183.757 61.6055 183.757C61.25 183.757 61.0088 183.909 60.8818 184.212V186.462H60.3398V183.292H60.8672L60.876 183.658C61.0537 183.375 61.3057 183.233 61.6318 183.233C61.7373 183.233 61.8174 183.247 61.8721 183.274V183.778ZM63.2549 182.524V183.292H63.8467V183.711H63.2549V185.676C63.2549 185.803 63.2812 185.899 63.334 185.964C63.3867 186.026 63.4766 186.057 63.6035 186.057C63.666 186.057 63.752 186.046 63.8613 186.022V186.462C63.7188 186.501 63.5801 186.52 63.4453 186.52C63.2031 186.52 63.0205 186.447 62.8975 186.3C62.7744 186.154 62.7129 185.946 62.7129 185.676V183.711H62.1357V183.292H62.7129V182.524H63.2549ZM66.7061 182.524V183.292H67.2979V183.711H66.7061V185.676C66.7061 185.803 66.7324 185.899 66.7852 185.964C66.8379 186.026 66.9277 186.057 67.0547 186.057C67.1172 186.057 67.2031 186.046 67.3125 186.022V186.462C67.1699 186.501 67.0312 186.52 66.8965 186.52C66.6543 186.52 66.4717 186.447 66.3486 186.3C66.2256 186.154 66.1641 185.946 66.1641 185.676V183.711H65.5869V183.292H66.1641V182.524H66.7061ZM68.4756 183.675C68.7158 183.38 69.0283 183.233 69.4131 183.233C70.083 183.233 70.4209 183.611 70.4268 184.367V186.462H69.8848V184.364C69.8828 184.135 69.8301 183.966 69.7266 183.857C69.625 183.748 69.4658 183.693 69.249 183.693C69.0732 183.693 68.9189 183.74 68.7861 183.834C68.6533 183.927 68.5498 184.05 68.4756 184.203V186.462H67.9336V181.962H68.4756V183.675ZM72.5537 186.52C72.124 186.52 71.7744 186.38 71.5049 186.098C71.2354 185.815 71.1006 185.437 71.1006 184.964V184.865C71.1006 184.55 71.1602 184.27 71.2793 184.024C71.4004 183.776 71.5684 183.583 71.7832 183.444C72 183.303 72.2344 183.233 72.4863 183.233C72.8984 183.233 73.2188 183.369 73.4473 183.64C73.6758 183.912 73.79 184.3 73.79 184.806V185.032H71.6426C71.6504 185.344 71.7412 185.597 71.915 185.791C72.0908 185.982 72.3135 186.078 72.583 186.078C72.7744 186.078 72.9365 186.039 73.0693 185.961C73.2021 185.882 73.3184 185.779 73.418 185.65L73.749 185.908C73.4834 186.316 73.085 186.52 72.5537 186.52ZM72.4863 183.678C72.2676 183.678 72.084 183.758 71.9355 183.919C71.7871 184.077 71.6953 184.299 71.6602 184.587H73.248V184.546C73.2324 184.27 73.1582 184.057 73.0254 183.907C72.8926 183.755 72.7129 183.678 72.4863 183.678ZM75.7764 184.85C75.7764 184.364 75.8916 183.973 76.1221 183.678C76.3525 183.381 76.6543 183.233 77.0273 183.233C77.3984 183.233 77.6924 183.36 77.9092 183.614V181.962H78.4512V186.462H77.9531L77.9268 186.122C77.71 186.387 77.4082 186.52 77.0215 186.52C76.6543 186.52 76.3545 186.37 76.1221 186.069C75.8916 185.768 75.7764 185.376 75.7764 184.891V184.85ZM76.3184 184.912C76.3184 185.271 76.3926 185.552 76.541 185.755C76.6895 185.959 76.8945 186.06 77.1562 186.06C77.5 186.06 77.751 185.906 77.9092 185.597V184.141C77.7471 183.842 77.498 183.693 77.1621 183.693C76.8965 183.693 76.6895 183.796 76.541 184.001C76.3926 184.206 76.3184 184.509 76.3184 184.912ZM80.6104 186.52C80.1807 186.52 79.8311 186.38 79.5615 186.098C79.292 185.815 79.1572 185.437 79.1572 184.964V184.865C79.1572 184.55 79.2168 184.27 79.3359 184.024C79.457 183.776 79.625 183.583 79.8398 183.444C80.0566 183.303 80.291 183.233 80.543 183.233C80.9551 183.233 81.2754 183.369 81.5039 183.64C81.7324 183.912 81.8467 184.3 81.8467 184.806V185.032H79.6992C79.707 185.344 79.7979 185.597 79.9717 185.791C80.1475 185.982 80.3701 186.078 80.6396 186.078C80.8311 186.078 80.9932 186.039 81.126 185.961C81.2588 185.882 81.375 185.779 81.4746 185.65L81.8057 185.908C81.54 186.316 81.1416 186.52 80.6104 186.52ZM80.543 183.678C80.3242 183.678 80.1406 183.758 79.9922 183.919C79.8438 184.077 79.752 184.299 79.7168 184.587H81.3047V184.546C81.2891 184.27 81.2148 184.057 81.082 183.907C80.9492 183.755 80.7695 183.678 80.543 183.678ZM83.4814 185.726L84.2666 183.292H84.8203L83.6836 186.462H83.2705L82.1221 183.292H82.6758L83.4814 185.726ZM85.9307 186.462H85.3887V183.292H85.9307V186.462ZM85.3447 182.451C85.3447 182.363 85.3711 182.289 85.4238 182.228C85.4785 182.168 85.5586 182.137 85.6641 182.137C85.7695 182.137 85.8496 182.168 85.9043 182.228C85.959 182.289 85.9863 182.363 85.9863 182.451C85.9863 182.539 85.959 182.612 85.9043 182.671C85.8496 182.729 85.7695 182.758 85.6641 182.758C85.5586 182.758 85.4785 182.729 85.4238 182.671C85.3711 182.612 85.3447 182.539 85.3447 182.451ZM88.0723 186.078C88.2656 186.078 88.4346 186.019 88.5791 185.902C88.7236 185.785 88.8037 185.638 88.8193 185.463H89.332C89.3223 185.644 89.2598 185.817 89.1445 185.981C89.0293 186.145 88.875 186.276 88.6816 186.374C88.4902 186.471 88.2871 186.52 88.0723 186.52C87.6406 186.52 87.2969 186.377 87.041 186.089C86.7871 185.8 86.6602 185.406 86.6602 184.906V184.815C86.6602 184.506 86.7168 184.232 86.8301 183.992C86.9434 183.752 87.1055 183.565 87.3164 183.432C87.5293 183.299 87.7803 183.233 88.0693 183.233C88.4248 183.233 88.7197 183.339 88.9541 183.552C89.1904 183.765 89.3164 184.042 89.332 184.381H88.8193C88.8037 184.176 88.7256 184.008 88.585 183.878C88.4463 183.745 88.2744 183.678 88.0693 183.678C87.7939 183.678 87.5801 183.778 87.4277 183.977C87.2773 184.174 87.2021 184.461 87.2021 184.836V184.938C87.2021 185.303 87.2773 185.585 87.4277 185.782C87.5781 185.979 87.793 186.078 88.0723 186.078ZM91.2568 186.52C90.8271 186.52 90.4775 186.38 90.208 186.098C89.9385 185.815 89.8037 185.437 89.8037 184.964V184.865C89.8037 184.55 89.8633 184.27 89.9824 184.024C90.1035 183.776 90.2715 183.583 90.4863 183.444C90.7031 183.303 90.9375 183.233 91.1895 183.233C91.6016 183.233 91.9219 183.369 92.1504 183.64C92.3789 183.912 92.4932 184.3 92.4932 184.806V185.032H90.3457C90.3535 185.344 90.4443 185.597 90.6182 185.791C90.7939 185.982 91.0166 186.078 91.2861 186.078C91.4775 186.078 91.6396 186.039 91.7725 185.961C91.9053 185.882 92.0215 185.779 92.1211 185.65L92.4521 185.908C92.1865 186.316 91.7881 186.52 91.2568 186.52ZM91.1895 183.678C90.9707 183.678 90.7871 183.758 90.6387 183.919C90.4902 184.077 90.3984 184.299 90.3633 184.587H91.9512V184.546C91.9355 184.27 91.8613 184.057 91.7285 183.907C91.5957 183.755 91.416 183.678 91.1895 183.678ZM95.3467 182.524V183.292H95.9385V183.711H95.3467V185.676C95.3467 185.803 95.373 185.899 95.4258 185.964C95.4785 186.026 95.5684 186.057 95.6953 186.057C95.7578 186.057 95.8438 186.046 95.9531 186.022V186.462C95.8105 186.501 95.6719 186.52 95.5371 186.52C95.2949 186.52 95.1123 186.447 94.9893 186.3C94.8662 186.154 94.8047 185.946 94.8047 185.676V183.711H94.2275V183.292H94.8047V182.524H95.3467ZM96.3721 184.847C96.3721 184.537 96.4326 184.257 96.5537 184.009C96.6768 183.761 96.8467 183.57 97.0635 183.435C97.2822 183.3 97.5312 183.233 97.8105 183.233C98.2422 183.233 98.5908 183.382 98.8564 183.681C99.124 183.98 99.2578 184.378 99.2578 184.874V184.912C99.2578 185.22 99.1982 185.498 99.0791 185.744C98.9619 185.988 98.793 186.178 98.5723 186.315C98.3535 186.452 98.1016 186.52 97.8164 186.52C97.3867 186.52 97.0381 186.371 96.7705 186.072C96.5049 185.773 96.3721 185.378 96.3721 184.885V184.847ZM96.917 184.912C96.917 185.263 96.998 185.546 97.1602 185.758C97.3242 185.971 97.543 186.078 97.8164 186.078C98.0918 186.078 98.3105 185.97 98.4727 185.755C98.6348 185.539 98.7158 185.236 98.7158 184.847C98.7158 184.5 98.6328 184.218 98.4668 184.004C98.3027 183.787 98.084 183.678 97.8105 183.678C97.543 183.678 97.3271 183.785 97.1631 183.998C96.999 184.211 96.917 184.515 96.917 184.912ZM102.741 186.52C102.312 186.52 101.962 186.38 101.692 186.098C101.423 185.815 101.288 185.437 101.288 184.964V184.865C101.288 184.55 101.348 184.27 101.467 184.024C101.588 183.776 101.756 183.583 101.971 183.444C102.188 183.303 102.422 183.233 102.674 183.233C103.086 183.233 103.406 183.369 103.635 183.64C103.863 183.912 103.978 184.3 103.978 184.806V185.032H101.83C101.838 185.344 101.929 185.597 102.103 185.791C102.278 185.982 102.501 186.078 102.771 186.078C102.962 186.078 103.124 186.039 103.257 185.961C103.39 185.882 103.506 185.779 103.605 185.65L103.937 185.908C103.671 186.316 103.272 186.52 102.741 186.52ZM102.674 183.678C102.455 183.678 102.271 183.758 102.123 183.919C101.975 184.077 101.883 184.299 101.848 184.587H103.436V184.546C103.42 184.27 103.346 184.057 103.213 183.907C103.08 183.755 102.9 183.678 102.674 183.678ZM105.12 183.292L105.138 183.69C105.38 183.385 105.696 183.233 106.087 183.233C106.757 183.233 107.095 183.611 107.101 184.367V186.462H106.559V184.364C106.557 184.135 106.504 183.966 106.4 183.857C106.299 183.748 106.14 183.693 105.923 183.693C105.747 183.693 105.593 183.74 105.46 183.834C105.327 183.927 105.224 184.05 105.149 184.203V186.462H104.607V183.292H105.12ZM109.875 186.462C109.844 186.399 109.818 186.288 109.799 186.128C109.547 186.389 109.246 186.52 108.896 186.52C108.584 186.52 108.327 186.432 108.126 186.256C107.927 186.079 107.827 185.854 107.827 185.583C107.827 185.253 107.952 184.997 108.202 184.815C108.454 184.631 108.808 184.54 109.263 184.54H109.79V184.291C109.79 184.101 109.733 183.951 109.62 183.839C109.507 183.726 109.34 183.67 109.119 183.67C108.926 183.67 108.764 183.718 108.633 183.816C108.502 183.914 108.437 184.032 108.437 184.171H107.892C107.892 184.012 107.947 183.86 108.059 183.714C108.172 183.565 108.324 183.448 108.516 183.362C108.709 183.276 108.921 183.233 109.151 183.233C109.517 183.233 109.803 183.325 110.01 183.508C110.217 183.69 110.324 183.941 110.332 184.261V185.72C110.332 186.011 110.369 186.243 110.443 186.415V186.462H109.875ZM108.976 186.048C109.146 186.048 109.307 186.005 109.459 185.917C109.611 185.829 109.722 185.714 109.79 185.574V184.923H109.365C108.701 184.923 108.369 185.118 108.369 185.506C108.369 185.676 108.426 185.809 108.539 185.905C108.652 186.001 108.798 186.048 108.976 186.048ZM113.865 184.912C113.865 185.396 113.754 185.786 113.531 186.081C113.309 186.374 113.01 186.52 112.635 186.52C112.234 186.52 111.925 186.379 111.706 186.095L111.68 186.462H111.182V181.962H111.724V183.64C111.942 183.369 112.244 183.233 112.629 183.233C113.014 183.233 113.315 183.379 113.534 183.67C113.755 183.961 113.865 184.359 113.865 184.865V184.912ZM113.323 184.85C113.323 184.481 113.252 184.196 113.109 183.995C112.967 183.794 112.762 183.693 112.494 183.693C112.137 183.693 111.88 183.859 111.724 184.191V185.562C111.89 185.894 112.148 186.06 112.5 186.06C112.76 186.06 112.962 185.96 113.106 185.758C113.251 185.557 113.323 185.255 113.323 184.85ZM115.14 186.462H114.598V181.962H115.14V186.462ZM117.325 186.52C116.896 186.52 116.546 186.38 116.276 186.098C116.007 185.815 115.872 185.437 115.872 184.964V184.865C115.872 184.55 115.932 184.27 116.051 184.024C116.172 183.776 116.34 183.583 116.555 183.444C116.771 183.303 117.006 183.233 117.258 183.233C117.67 183.233 117.99 183.369 118.219 183.64C118.447 183.912 118.562 184.3 118.562 184.806V185.032H116.414C116.422 185.344 116.513 185.597 116.687 185.791C116.862 185.982 117.085 186.078 117.354 186.078C117.546 186.078 117.708 186.039 117.841 185.961C117.974 185.882 118.09 185.779 118.189 185.65L118.521 185.908C118.255 186.316 117.856 186.52 117.325 186.52ZM117.258 183.678C117.039 183.678 116.855 183.758 116.707 183.919C116.559 184.077 116.467 184.299 116.432 184.587H118.02V184.546C118.004 184.27 117.93 184.057 117.797 183.907C117.664 183.755 117.484 183.678 117.258 183.678ZM120.548 184.85C120.548 184.364 120.663 183.973 120.894 183.678C121.124 183.381 121.426 183.233 121.799 183.233C122.17 183.233 122.464 183.36 122.681 183.614V181.962H123.223V186.462H122.725L122.698 186.122C122.481 186.387 122.18 186.52 121.793 186.52C121.426 186.52 121.126 186.37 120.894 186.069C120.663 185.768 120.548 185.376 120.548 184.891V184.85ZM121.09 184.912C121.09 185.271 121.164 185.552 121.312 185.755C121.461 185.959 121.666 186.06 121.928 186.06C122.271 186.06 122.522 185.906 122.681 185.597V184.141C122.519 183.842 122.27 183.693 121.934 183.693C121.668 183.693 121.461 183.796 121.312 184.001C121.164 184.206 121.09 184.509 121.09 184.912ZM125.382 186.52C124.952 186.52 124.603 186.38 124.333 186.098C124.063 185.815 123.929 185.437 123.929 184.964V184.865C123.929 184.55 123.988 184.27 124.107 184.024C124.229 183.776 124.396 183.583 124.611 183.444C124.828 183.303 125.062 183.233 125.314 183.233C125.727 183.233 126.047 183.369 126.275 183.64C126.504 183.912 126.618 184.3 126.618 184.806V185.032H124.471C124.479 185.344 124.569 185.597 124.743 185.791C124.919 185.982 125.142 186.078 125.411 186.078C125.603 186.078 125.765 186.039 125.897 185.961C126.03 185.882 126.146 185.779 126.246 185.65L126.577 185.908C126.312 186.316 125.913 186.52 125.382 186.52ZM125.314 183.678C125.096 183.678 124.912 183.758 124.764 183.919C124.615 184.077 124.523 184.299 124.488 184.587H126.076V184.546C126.061 184.27 125.986 184.057 125.854 183.907C125.721 183.755 125.541 183.678 125.314 183.678ZM128.253 185.726L129.038 183.292H129.592L128.455 186.462H128.042L126.894 183.292H127.447L128.253 185.726ZM130.702 186.462H130.16V183.292H130.702V186.462ZM130.116 182.451C130.116 182.363 130.143 182.289 130.195 182.228C130.25 182.168 130.33 182.137 130.436 182.137C130.541 182.137 130.621 182.168 130.676 182.228C130.73 182.289 130.758 182.363 130.758 182.451C130.758 182.539 130.73 182.612 130.676 182.671C130.621 182.729 130.541 182.758 130.436 182.758C130.33 182.758 130.25 182.729 130.195 182.671C130.143 182.612 130.116 182.539 130.116 182.451ZM132.844 186.078C133.037 186.078 133.206 186.019 133.351 185.902C133.495 185.785 133.575 185.638 133.591 185.463H134.104C134.094 185.644 134.031 185.817 133.916 185.981C133.801 186.145 133.646 186.276 133.453 186.374C133.262 186.471 133.059 186.52 132.844 186.52C132.412 186.52 132.068 186.377 131.812 186.089C131.559 185.8 131.432 185.406 131.432 184.906V184.815C131.432 184.506 131.488 184.232 131.602 183.992C131.715 183.752 131.877 183.565 132.088 183.432C132.301 183.299 132.552 183.233 132.841 183.233C133.196 183.233 133.491 183.339 133.726 183.552C133.962 183.765 134.088 184.042 134.104 184.381H133.591C133.575 184.176 133.497 184.008 133.356 183.878C133.218 183.745 133.046 183.678 132.841 183.678C132.565 183.678 132.352 183.778 132.199 183.977C132.049 184.174 131.974 184.461 131.974 184.836V184.938C131.974 185.303 132.049 185.585 132.199 185.782C132.35 185.979 132.564 186.078 132.844 186.078ZM136.028 186.52C135.599 186.52 135.249 186.38 134.979 186.098C134.71 185.815 134.575 185.437 134.575 184.964V184.865C134.575 184.55 134.635 184.27 134.754 184.024C134.875 183.776 135.043 183.583 135.258 183.444C135.475 183.303 135.709 183.233 135.961 183.233C136.373 183.233 136.693 183.369 136.922 183.64C137.15 183.912 137.265 184.3 137.265 184.806V185.032H135.117C135.125 185.344 135.216 185.597 135.39 185.791C135.565 185.982 135.788 186.078 136.058 186.078C136.249 186.078 136.411 186.039 136.544 185.961C136.677 185.882 136.793 185.779 136.893 185.65L137.224 185.908C136.958 186.316 136.56 186.52 136.028 186.52ZM135.961 183.678C135.742 183.678 135.559 183.758 135.41 183.919C135.262 184.077 135.17 184.299 135.135 184.587H136.723V184.546C136.707 184.27 136.633 184.057 136.5 183.907C136.367 183.755 136.188 183.678 135.961 183.678ZM30.0879 191.912C30.0879 192.394 29.9775 192.783 29.7568 193.078C29.5361 193.373 29.2373 193.52 28.8604 193.52C28.4756 193.52 28.1729 193.398 27.9521 193.154V194.68H27.4102V190.292H27.9053L27.9316 190.643C28.1523 190.37 28.459 190.233 28.8516 190.233C29.2324 190.233 29.5332 190.377 29.7539 190.664C29.9766 190.951 30.0879 191.35 30.0879 191.862V191.912ZM29.5459 191.85C29.5459 191.493 29.4697 191.211 29.3174 191.004C29.165 190.797 28.9561 190.693 28.6904 190.693C28.3623 190.693 28.1162 190.839 27.9521 191.13V192.644C28.1143 192.933 28.3623 193.078 28.6963 193.078C28.9561 193.078 29.1621 192.975 29.3145 192.77C29.4688 192.563 29.5459 192.256 29.5459 191.85ZM32.3115 190.778C32.2295 190.764 32.1406 190.757 32.0449 190.757C31.6895 190.757 31.4482 190.909 31.3213 191.212V193.462H30.7793V190.292H31.3066L31.3154 190.658C31.4932 190.375 31.7451 190.233 32.0713 190.233C32.1768 190.233 32.2568 190.247 32.3115 190.274V190.778ZM32.6104 191.847C32.6104 191.537 32.6709 191.257 32.792 191.009C32.915 190.761 33.085 190.57 33.3018 190.435C33.5205 190.3 33.7695 190.233 34.0488 190.233C34.4805 190.233 34.8291 190.382 35.0947 190.681C35.3623 190.98 35.4961 191.378 35.4961 191.874V191.912C35.4961 192.22 35.4365 192.498 35.3174 192.744C35.2002 192.988 35.0312 193.178 34.8105 193.315C34.5918 193.452 34.3398 193.52 34.0547 193.52C33.625 193.52 33.2764 193.371 33.0088 193.072C32.7432 192.773 32.6104 192.378 32.6104 191.885V191.847ZM33.1553 191.912C33.1553 192.263 33.2363 192.546 33.3984 192.758C33.5625 192.971 33.7812 193.078 34.0547 193.078C34.3301 193.078 34.5488 192.97 34.7109 192.755C34.873 192.539 34.9541 192.236 34.9541 191.847C34.9541 191.5 34.8711 191.218 34.7051 191.004C34.541 190.787 34.3223 190.678 34.0488 190.678C33.7812 190.678 33.5654 190.785 33.4014 190.998C33.2373 191.211 33.1553 191.515 33.1553 191.912ZM36.9111 189.524V190.292H37.5029V190.711H36.9111V192.676C36.9111 192.803 36.9375 192.899 36.9902 192.964C37.043 193.026 37.1328 193.057 37.2598 193.057C37.3223 193.057 37.4082 193.046 37.5176 193.022V193.462C37.375 193.501 37.2363 193.52 37.1016 193.52C36.8594 193.52 36.6768 193.447 36.5537 193.3C36.4307 193.154 36.3691 192.946 36.3691 192.676V190.711H35.792V190.292H36.3691V189.524H36.9111ZM39.4541 193.52C39.0244 193.52 38.6748 193.38 38.4053 193.098C38.1357 192.815 38.001 192.437 38.001 191.964V191.865C38.001 191.55 38.0605 191.27 38.1797 191.024C38.3008 190.776 38.4688 190.583 38.6836 190.444C38.9004 190.303 39.1348 190.233 39.3867 190.233C39.7988 190.233 40.1191 190.369 40.3477 190.64C40.5762 190.912 40.6904 191.3 40.6904 191.806V192.032H38.543C38.5508 192.344 38.6416 192.597 38.8154 192.791C38.9912 192.982 39.2139 193.078 39.4834 193.078C39.6748 193.078 39.8369 193.039 39.9697 192.961C40.1025 192.882 40.2188 192.779 40.3184 192.65L40.6494 192.908C40.3838 193.316 39.9854 193.52 39.4541 193.52ZM39.3867 190.678C39.168 190.678 38.9844 190.758 38.8359 190.919C38.6875 191.077 38.5957 191.299 38.5605 191.587H40.1484V191.546C40.1328 191.27 40.0586 191.057 39.9258 190.907C39.793 190.755 39.6133 190.678 39.3867 190.678ZM42.5918 193.078C42.7852 193.078 42.9541 193.019 43.0986 192.902C43.2432 192.785 43.3232 192.638 43.3389 192.463H43.8516C43.8418 192.644 43.7793 192.817 43.6641 192.981C43.5488 193.145 43.3945 193.276 43.2012 193.374C43.0098 193.471 42.8066 193.52 42.5918 193.52C42.1602 193.52 41.8164 193.377 41.5605 193.089C41.3066 192.8 41.1797 192.406 41.1797 191.906V191.815C41.1797 191.506 41.2363 191.232 41.3496 190.992C41.4629 190.752 41.625 190.565 41.8359 190.432C42.0488 190.299 42.2998 190.233 42.5889 190.233C42.9443 190.233 43.2393 190.339 43.4736 190.552C43.71 190.765 43.8359 191.042 43.8516 191.381H43.3389C43.3232 191.176 43.2451 191.008 43.1045 190.878C42.9658 190.745 42.7939 190.678 42.5889 190.678C42.3135 190.678 42.0996 190.778 41.9473 190.977C41.7969 191.174 41.7217 191.461 41.7217 191.836V191.938C41.7217 192.303 41.7969 192.585 41.9473 192.782C42.0977 192.979 42.3125 193.078 42.5918 193.078ZM45.1963 189.524V190.292H45.7881V190.711H45.1963V192.676C45.1963 192.803 45.2227 192.899 45.2754 192.964C45.3281 193.026 45.418 193.057 45.5449 193.057C45.6074 193.057 45.6934 193.046 45.8027 193.022V193.462C45.6602 193.501 45.5215 193.52 45.3867 193.52C45.1445 193.52 44.9619 193.447 44.8389 193.3C44.7158 193.154 44.6543 192.946 44.6543 192.676V190.711H44.0771V190.292H44.6543V189.524H45.1963ZM47.0127 193.462H46.4707V190.292H47.0127V193.462ZM46.4268 189.451C46.4268 189.363 46.4531 189.289 46.5059 189.228C46.5605 189.168 46.6406 189.137 46.7461 189.137C46.8516 189.137 46.9316 189.168 46.9863 189.228C47.041 189.289 47.0684 189.363 47.0684 189.451C47.0684 189.539 47.041 189.612 46.9863 189.671C46.9316 189.729 46.8516 189.758 46.7461 189.758C46.6406 189.758 46.5605 189.729 46.5059 189.671C46.4531 189.612 46.4268 189.539 46.4268 189.451ZM47.7393 191.847C47.7393 191.537 47.7998 191.257 47.9209 191.009C48.0439 190.761 48.2139 190.57 48.4307 190.435C48.6494 190.3 48.8984 190.233 49.1777 190.233C49.6094 190.233 49.958 190.382 50.2236 190.681C50.4912 190.98 50.625 191.378 50.625 191.874V191.912C50.625 192.22 50.5654 192.498 50.4463 192.744C50.3291 192.988 50.1602 193.178 49.9395 193.315C49.7207 193.452 49.4688 193.52 49.1836 193.52C48.7539 193.52 48.4053 193.371 48.1377 193.072C47.8721 192.773 47.7393 192.378 47.7393 191.885V191.847ZM48.2842 191.912C48.2842 192.263 48.3652 192.546 48.5273 192.758C48.6914 192.971 48.9102 193.078 49.1836 193.078C49.459 193.078 49.6777 192.97 49.8398 192.755C50.002 192.539 50.083 192.236 50.083 191.847C50.083 191.5 50 191.218 49.834 191.004C49.6699 190.787 49.4512 190.678 49.1777 190.678C48.9102 190.678 48.6943 190.785 48.5303 190.998C48.3662 191.211 48.2842 191.515 48.2842 191.912ZM51.8174 190.292L51.835 190.69C52.0771 190.385 52.3936 190.233 52.7842 190.233C53.4541 190.233 53.792 190.611 53.7979 191.367V193.462H53.2559V191.364C53.2539 191.135 53.2012 190.966 53.0977 190.857C52.9961 190.748 52.8369 190.693 52.6201 190.693C52.4443 190.693 52.29 190.74 52.1572 190.834C52.0244 190.927 51.9209 191.05 51.8467 191.203V193.462H51.3047V190.292H51.8174ZM56.3701 193.462V190.711H55.8691V190.292H56.3701V189.966C56.3701 189.627 56.4609 189.364 56.6426 189.178C56.8242 188.993 57.0811 188.9 57.4131 188.9C57.5381 188.9 57.6621 188.917 57.7852 188.95L57.7559 189.389C57.6641 189.372 57.5664 189.363 57.4629 189.363C57.2871 189.363 57.1514 189.415 57.0557 189.518C56.96 189.62 56.9121 189.766 56.9121 189.958V190.292H57.5889V190.711H56.9121V193.462H56.3701ZM59.4346 193.52C59.0049 193.52 58.6553 193.38 58.3857 193.098C58.1162 192.815 57.9814 192.437 57.9814 191.964V191.865C57.9814 191.55 58.041 191.27 58.1602 191.024C58.2812 190.776 58.4492 190.583 58.6641 190.444C58.8809 190.303 59.1152 190.233 59.3672 190.233C59.7793 190.233 60.0996 190.369 60.3281 190.64C60.5566 190.912 60.6709 191.3 60.6709 191.806V192.032H58.5234C58.5312 192.344 58.6221 192.597 58.7959 192.791C58.9717 192.982 59.1943 193.078 59.4639 193.078C59.6553 193.078 59.8174 193.039 59.9502 192.961C60.083 192.882 60.1992 192.779 60.2988 192.65L60.6299 192.908C60.3643 193.316 59.9658 193.52 59.4346 193.52ZM59.3672 190.678C59.1484 190.678 58.9648 190.758 58.8164 190.919C58.668 191.077 58.5762 191.299 58.541 191.587H60.1289V191.546C60.1133 191.27 60.0391 191.057 59.9062 190.907C59.7734 190.755 59.5938 190.678 59.3672 190.678ZM63.2578 193.462C63.2266 193.399 63.2012 193.288 63.1816 193.128C62.9297 193.389 62.6289 193.52 62.2793 193.52C61.9668 193.52 61.71 193.432 61.5088 193.256C61.3096 193.079 61.21 192.854 61.21 192.583C61.21 192.253 61.335 191.997 61.585 191.815C61.8369 191.631 62.1904 191.54 62.6455 191.54H63.1729V191.291C63.1729 191.101 63.1162 190.951 63.0029 190.839C62.8896 190.726 62.7227 190.67 62.502 190.67C62.3086 190.67 62.1465 190.718 62.0156 190.816C61.8848 190.914 61.8193 191.032 61.8193 191.171H61.2744C61.2744 191.012 61.3301 190.86 61.4414 190.714C61.5547 190.565 61.707 190.448 61.8984 190.362C62.0918 190.276 62.3037 190.233 62.5342 190.233C62.8994 190.233 63.1855 190.325 63.3926 190.508C63.5996 190.69 63.707 190.941 63.7148 191.261V192.72C63.7148 193.011 63.752 193.243 63.8262 193.415V193.462H63.2578ZM62.3584 193.048C62.5283 193.048 62.6895 193.005 62.8418 192.917C62.9941 192.829 63.1045 192.714 63.1729 192.574V191.923H62.748C62.084 191.923 61.752 192.118 61.752 192.506C61.752 192.676 61.8086 192.809 61.9219 192.905C62.0352 193.001 62.1807 193.048 62.3584 193.048ZM65.2998 189.524V190.292H65.8916V190.711H65.2998V192.676C65.2998 192.803 65.3262 192.899 65.3789 192.964C65.4316 193.026 65.5215 193.057 65.6484 193.057C65.7109 193.057 65.7969 193.046 65.9062 193.022V193.462C65.7637 193.501 65.625 193.52 65.4902 193.52C65.248 193.52 65.0654 193.447 64.9424 193.3C64.8193 193.154 64.7578 192.946 64.7578 192.676V190.711H64.1807V190.292H64.7578V189.524H65.2998ZM68.4844 193.148C68.2734 193.396 67.9639 193.52 67.5557 193.52C67.2178 193.52 66.96 193.422 66.7822 193.227C66.6064 193.03 66.5176 192.739 66.5156 192.354V190.292H67.0576V192.339C67.0576 192.82 67.2529 193.06 67.6436 193.06C68.0576 193.06 68.333 192.906 68.4697 192.597V190.292H69.0117V193.462H68.4961L68.4844 193.148ZM71.3701 190.778C71.2881 190.764 71.1992 190.757 71.1035 190.757C70.748 190.757 70.5068 190.909 70.3799 191.212V193.462H69.8379V190.292H70.3652L70.374 190.658C70.5518 190.375 70.8037 190.233 71.1299 190.233C71.2354 190.233 71.3154 190.247 71.3701 190.274V190.778ZM73.1279 193.52C72.6982 193.52 72.3486 193.38 72.0791 193.098C71.8096 192.815 71.6748 192.437 71.6748 191.964V191.865C71.6748 191.55 71.7344 191.27 71.8535 191.024C71.9746 190.776 72.1426 190.583 72.3574 190.444C72.5742 190.303 72.8086 190.233 73.0605 190.233C73.4727 190.233 73.793 190.369 74.0215 190.64C74.25 190.912 74.3643 191.3 74.3643 191.806V192.032H72.2168C72.2246 192.344 72.3154 192.597 72.4893 192.791C72.665 192.982 72.8877 193.078 73.1572 193.078C73.3486 193.078 73.5107 193.039 73.6436 192.961C73.7764 192.882 73.8926 192.779 73.9922 192.65L74.3232 192.908C74.0576 193.316 73.6592 193.52 73.1279 193.52ZM73.0605 190.678C72.8418 190.678 72.6582 190.758 72.5098 190.919C72.3613 191.077 72.2695 191.299 72.2344 191.587H73.8223V191.546C73.8066 191.27 73.7324 191.057 73.5996 190.907C73.4668 190.755 73.2871 190.678 73.0605 190.678ZM75.0059 193.177C75.0059 193.084 75.0332 193.005 75.0879 192.943C75.1445 192.88 75.2285 192.849 75.3398 192.849C75.4512 192.849 75.5352 192.88 75.5918 192.943C75.6504 193.005 75.6797 193.084 75.6797 193.177C75.6797 193.267 75.6504 193.342 75.5918 193.403C75.5352 193.464 75.4512 193.494 75.3398 193.494C75.2285 193.494 75.1445 193.464 75.0879 193.403C75.0332 193.342 75.0059 193.267 75.0059 193.177Z" fill="black" fill-opacity="0.8"/>
</g>
</g>
<defs>
<filter id="filter0_d" x="1.38439" y="1.84617" width="177.231" height="371.077" filterUnits="userSpaceOnUse" color-interpolation-filters="sRGB">
<feFlood flood-opacity="0" result="BackgroundImageFix"/>
<feColorMatrix in="SourceAlpha" type="matrix" values="0 0 0 0 0 0 0 0 0 0 0 0 0 0 0 0 0 0 127 0"/>
<feOffset dy="0.461538"/>
<feGaussianBlur stdDeviation="2.76923"/>
<feColorMatrix type="matrix" values="0 0 0 0 0 0 0 0 0 0 0 0 0 0 0 0 0 0 0.15 0"/>
<feBlend mode="normal" in2="BackgroundImageFix" result="effect1_dropShadow"/>
<feBlend mode="normal" in="SourceGraphic" in2="effect1_dropShadow" result="shape"/>
</filter>
<filter id="filter1_d" x="5.0767" y="6.00002" width="169.846" height="45.2308" filterUnits="userSpaceOnUse" color-interpolation-filters="sRGB">
<feFlood flood-opacity="0" result="BackgroundImageFix"/>
<feColorMatrix in="SourceAlpha" type="matrix" values="0 0 0 0 0 0 0 0 0 0 0 0 0 0 0 0 0 0 127 0"/>
<feOffset dy="0.923077"/>
<feGaussianBlur stdDeviation="0.923077"/>
<feColorMatrix type="matrix" values="0 0 0 0 0 0 0 0 0 0 0 0 0 0 0 0 0 0 0.1 0"/>
<feBlend mode="normal" in2="BackgroundImageFix" result="effect1_dropShadow"/>
<feBlend mode="normal" in="SourceGraphic" in2="effect1_dropShadow" result="shape"/>
</filter>
<clipPath id="clip0">
<rect x="6.92285" y="6.9231" width="166.154" height="360" rx="19.3846" fill="white"/>
</clipPath>
<clipPath id="clip1">
<rect width="11.0769" height="11.0769" fill="white" transform="translate(156.923 31.3846)"/>
</clipPath>
<clipPath id="clip2">
<rect width="90.9231" height="10.6154" fill="white" transform="translate(12 31.6906)"/>
</clipPath>
<clipPath id="clip3">
<rect width="154.605" height="11.532" fill="white" transform="translate(12.4609 54)"/>
</clipPath>
<clipPath id="clip4">
<rect width="89.3077" height="11.3077" fill="white" transform="translate(36.4609 112.84)"/>
</clipPath>
<clipPath id="clip5">
<rect width="63.9231" height="11.3077" fill="white" transform="translate(36.4609 143.532)"/>
</clipPath>
<clipPath id="clip6">
<rect width="130.836" height="11.3077" fill="white" transform="translate(36.4609 174.224)"/>
</clipPath>
<clipPath id="clip7">
<rect width="75.4615" height="11.3077" fill="white" transform="translate(36.4609 204.917)"/>
</clipPath>
<clipPath id="clip8">
<rect width="47.3077" height="3.23077" fill="white" transform="translate(36.4609 235.609)"/>
</clipPath>
<clipPath id="clip9">
<rect width="47.3077" height="3.23077" fill="white" transform="translate(36.4609 258.224)"/>
</clipPath>
<clipPath id="clip10">
<rect width="130.836" height="11.3077" fill="white" transform="translate(36.4609 302.532)"/>
</clipPath>
<clipPath id="clip11">
<rect width="47.3077" height="3.23077" fill="white" transform="translate(36.4609 333.224)"/>
</clipPath>
<clipPath id="clip12">
<rect width="136.615" height="11.3077" fill="white" transform="translate(36.4619 355.846)"/>
</clipPath>
</defs>
</svg>
