<svg width="180" height="381" viewBox="0 0 180 381" fill="none" xmlns="http://www.w3.org/2000/svg">
<rect width="180" height="380.769" rx="24.1259" fill="#111111"/>
<g filter="url(#filter0_d)">
<g clip-path="url(#clip0)">
<rect x="6.92334" y="6.92303" width="166.154" height="360" rx="19.3846" fill="white"/>
<g filter="url(#filter1_d)">
<rect x="6.92334" y="6.92303" width="166.154" height="41.5385" fill="white"/>
</g>
<g opacity="0.5" clip-path="url(#clip1)">
<path fill-rule="evenodd" clip-rule="evenodd" d="M164.078 37.8461H163.711L163.584 37.7196C164.034 37.1948 164.308 36.5145 164.308 35.7692C164.308 34.1122 162.965 32.7692 161.308 32.7692C159.651 32.7692 158.308 34.1122 158.308 35.7692C158.308 37.4261 159.651 38.7692 161.308 38.7692C162.053 38.7692 162.733 38.4959 163.258 38.0464L163.385 38.1728V38.5384L165.692 40.8419L166.38 40.1538L164.078 37.8461V37.8461ZM161.308 37.8462C160.16 37.8462 159.231 36.9166 159.231 35.7692C159.231 34.6223 160.16 33.6923 161.308 33.6923C162.455 33.6923 163.385 34.6223 163.385 35.7692C163.385 36.9166 162.455 37.8462 161.308 37.8462V37.8462Z" fill="black"/>
</g>
<g clip-path="url(#clip2)">
<path d="M20.8465 36.5559H15.4636L17.9361 34.0834L17.308 33.4598L13.7695 36.9982L17.308 40.5367L17.9316 39.913L15.4636 37.4405H20.8465V36.5559Z" fill="black" fill-opacity="0.7"/>
<path d="M36.1389 40.1522V34.2459H37.8832C38.4052 34.2459 38.8676 34.3622 39.2705 34.5948C39.6762 34.8273 39.9899 35.1573 40.2117 35.5846C40.4334 36.0118 40.5443 36.5013 40.5443 37.053V37.3491C40.5443 37.9089 40.4321 38.4011 40.2076 38.8257C39.9858 39.2503 39.6681 39.5775 39.2543 39.8074C38.8433 40.0372 38.3714 40.1522 37.8386 40.1522H36.1389ZM37.1652 35.0734V39.3327H37.8345C38.3727 39.3327 38.7851 39.1651 39.0718 38.8297C39.3611 38.4917 39.5085 38.0076 39.5139 37.3775V37.0489C39.5139 36.408 39.3747 35.9185 39.0961 35.5805C38.8176 35.2425 38.4133 35.0734 37.8832 35.0734H37.1652ZM43.4041 40.2333C42.7794 40.2333 42.2723 40.0372 41.8829 39.6451C41.4962 39.2503 41.3028 38.7256 41.3028 38.0712V37.9495C41.3028 37.5114 41.3867 37.1206 41.5543 36.7772C41.7247 36.431 41.9627 36.1619 42.2683 35.9699C42.5739 35.7779 42.9146 35.6819 43.2905 35.6819C43.8882 35.6819 44.3493 35.8726 44.6738 36.2539C45.001 36.6352 45.1646 37.1747 45.1646 37.8724V38.2699H42.2967C42.3264 38.6323 42.4468 38.919 42.6577 39.1299C42.8714 39.3409 43.1391 39.4463 43.4609 39.4463C43.9125 39.4463 44.2803 39.2638 44.5643 38.8987L45.0957 39.4058C44.9199 39.6681 44.6846 39.8723 44.3898 40.0183C44.0978 40.1616 43.7692 40.2333 43.4041 40.2333ZM43.2865 36.4729C43.016 36.4729 42.797 36.5676 42.6293 36.7569C42.4644 36.9462 42.3589 37.2099 42.3129 37.5479H44.1911V37.4749C44.1694 37.1449 44.0815 36.8962 43.9274 36.7285C43.7732 36.5581 43.5596 36.4729 43.2865 36.4729ZM47.4241 38.9028L48.353 35.763H49.3712L47.85 40.1522H46.9941L45.4607 35.763H46.483L47.4241 38.9028ZM51.8659 40.2333C51.2412 40.2333 50.7342 40.0372 50.3448 39.6451C49.958 39.2503 49.7647 38.7256 49.7647 38.0712V37.9495C49.7647 37.5114 49.8485 37.1206 50.0162 36.7772C50.1866 36.431 50.4245 36.1619 50.7301 35.9699C51.0357 35.7779 51.3765 35.6819 51.7524 35.6819C52.35 35.6819 52.8111 35.8726 53.1356 36.2539C53.4629 36.6352 53.6265 37.1747 53.6265 37.8724V38.2699H50.7585C50.7883 38.6323 50.9086 38.919 51.1196 39.1299C51.3332 39.3409 51.6009 39.4463 51.9227 39.4463C52.3744 39.4463 52.7421 39.2638 53.0261 38.8987L53.5575 39.4058C53.3817 39.6681 53.1464 39.8723 52.8517 40.0183C52.5596 40.1616 52.231 40.2333 51.8659 40.2333ZM51.7483 36.4729C51.4779 36.4729 51.2588 36.5676 51.0912 36.7569C50.9262 36.9462 50.8207 37.2099 50.7748 37.5479H52.6529V37.4749C52.6313 37.1449 52.5434 36.8962 52.3892 36.7285C52.2351 36.5581 52.0214 36.4729 51.7483 36.4729ZM55.4438 40.1522H54.458V33.9214H55.4438V40.1522ZM56.3362 37.917C56.3362 37.487 56.4214 37.1003 56.5918 36.7569C56.7621 36.4107 57.0015 36.1457 57.3098 35.9618C57.618 35.7752 57.9723 35.6819 58.3726 35.6819C58.9648 35.6819 59.4448 35.8726 59.8126 36.2539C60.1831 36.6352 60.3832 37.1409 60.413 37.771L60.417 38.0022C60.417 38.4349 60.3332 38.8216 60.1655 39.1624C60.0006 39.5031 59.7626 39.7668 59.4516 39.9534C59.1433 40.14 58.7863 40.2333 58.3807 40.2333C57.7614 40.2333 57.2651 40.0278 56.8919 39.6167C56.5214 39.2029 56.3362 38.6526 56.3362 37.9657V37.917ZM57.3219 38.0022C57.3219 38.4538 57.4152 38.8081 57.6018 39.065C57.7884 39.3192 58.048 39.4463 58.3807 39.4463C58.7133 39.4463 58.9716 39.3165 59.1555 39.0569C59.3421 38.7973 59.4354 38.4173 59.4354 37.917C59.4354 37.4735 59.3394 37.122 59.1473 36.8623C58.958 36.6027 58.6998 36.4729 58.3726 36.4729C58.0507 36.4729 57.7952 36.6014 57.6059 36.8583C57.4166 37.1125 57.3219 37.4938 57.3219 38.0022ZM65.0942 38.0022C65.0942 38.681 64.94 39.2232 64.6317 39.6289C64.3234 40.0318 63.9097 40.2333 63.3904 40.2333C62.9091 40.2333 62.5237 40.0751 62.2343 39.7587V41.8397H61.2486V35.763H62.1573L62.1978 36.2093C62.4872 35.8577 62.8807 35.6819 63.3783 35.6819C63.9137 35.6819 64.3329 35.882 64.6358 36.2823C64.9414 36.6798 65.0942 37.2328 65.0942 37.9414V38.0022ZM64.1125 37.917C64.1125 37.4789 64.0246 37.1314 63.8488 36.8745C63.6757 36.6176 63.4269 36.4892 63.1024 36.4892C62.6995 36.4892 62.4101 36.6555 62.2343 36.9881V38.9352C62.4128 39.276 62.7049 39.4463 63.1105 39.4463C63.4242 39.4463 63.669 39.3206 63.8448 39.0691C64.0232 38.8149 64.1125 38.4309 64.1125 37.917ZM67.8647 40.2333C67.24 40.2333 66.733 40.0372 66.3436 39.6451C65.9568 39.2503 65.7635 38.7256 65.7635 38.0712V37.9495C65.7635 37.5114 65.8473 37.1206 66.015 36.7772C66.1854 36.431 66.4233 36.1619 66.7289 35.9699C67.0345 35.7779 67.3753 35.6819 67.7512 35.6819C68.3488 35.6819 68.8099 35.8726 69.1344 36.2539C69.4616 36.6352 69.6253 37.1747 69.6253 37.8724V38.2699H66.7573C66.7871 38.6323 66.9074 38.919 67.1183 39.1299C67.332 39.3409 67.5997 39.4463 67.9215 39.4463C68.3732 39.4463 68.7409 39.2638 69.0249 38.8987L69.5563 39.4058C69.3805 39.6681 69.1452 39.8723 68.8505 40.0183C68.5584 40.1616 68.2298 40.2333 67.8647 40.2333ZM67.7471 36.4729C67.4767 36.4729 67.2576 36.5676 67.09 36.7569C66.925 36.9462 66.8195 37.2099 66.7735 37.5479H68.6517V37.4749C68.6301 37.1449 68.5422 36.8962 68.388 36.7285C68.2339 36.5581 68.0202 36.4729 67.7471 36.4729ZM72.692 36.6636C72.5622 36.6419 72.4283 36.6311 72.2904 36.6311C71.8388 36.6311 71.5345 36.8042 71.3777 37.1504V40.1522H70.3919V35.763H71.333L71.3574 36.2539C71.5954 35.8726 71.9253 35.6819 72.3472 35.6819C72.4878 35.6819 72.6041 35.7008 72.696 35.7387L72.692 36.6636ZM75.1989 37.917C75.1989 37.487 75.2841 37.1003 75.4544 36.7569C75.6248 36.4107 75.8641 36.1457 76.1724 35.9618C76.4807 35.7752 76.835 35.6819 77.2352 35.6819C77.8275 35.6819 78.3075 35.8726 78.6753 36.2539C79.0458 36.6352 79.2459 37.1409 79.2756 37.771L79.2797 38.0022C79.2797 38.4349 79.1959 38.8216 79.0282 39.1624C78.8632 39.5031 78.6253 39.7668 78.3143 39.9534C78.006 40.14 77.649 40.2333 77.2433 40.2333C76.6241 40.2333 76.1278 40.0278 75.7546 39.6167C75.3841 39.2029 75.1989 38.6526 75.1989 37.9657V37.917ZM76.1846 38.0022C76.1846 38.4538 76.2779 38.8081 76.4645 39.065C76.6511 39.3192 76.9107 39.4463 77.2433 39.4463C77.576 39.4463 77.8342 39.3165 78.0181 39.0569C78.2047 38.7973 78.298 38.4173 78.298 37.917C78.298 37.4735 78.202 37.122 78.01 36.8623C77.8207 36.6027 77.5625 36.4729 77.2352 36.4729C76.9134 36.4729 76.6579 36.6014 76.4686 36.8583C76.2793 37.1125 76.1846 37.4938 76.1846 38.0022ZM83.9568 38.0022C83.9568 38.681 83.8027 39.2232 83.4944 39.6289C83.1861 40.0318 82.7723 40.2333 82.2531 40.2333C81.7717 40.2333 81.3864 40.0751 81.097 39.7587V41.8397H80.1113V35.763H81.0199L81.0605 36.2093C81.3499 35.8577 81.7433 35.6819 82.2409 35.6819C82.7764 35.6819 83.1956 35.882 83.4985 36.2823C83.804 36.6798 83.9568 37.2328 83.9568 37.9414V38.0022ZM82.9752 37.917C82.9752 37.4789 82.8873 37.1314 82.7115 36.8745C82.5384 36.6176 82.2896 36.4892 81.9651 36.4892C81.5622 36.4892 81.2728 36.6555 81.097 36.9881V38.9352C81.2755 39.276 81.5676 39.4463 81.9732 39.4463C82.2869 39.4463 82.5317 39.3206 82.7074 39.0691C82.8859 38.8149 82.9752 38.4309 82.9752 37.917ZM86.0297 34.6962V35.763H86.8045V36.4932H86.0297V38.9433C86.0297 39.111 86.0622 39.2327 86.1271 39.3084C86.1947 39.3814 86.3137 39.4179 86.484 39.4179C86.5976 39.4179 86.7125 39.4044 86.8288 39.3774V40.14C86.6044 40.2022 86.388 40.2333 86.1798 40.2333C85.4226 40.2333 85.044 39.8155 85.044 38.9798V36.4932H84.3219V35.763H85.044V34.6962H86.0297ZM88.6096 40.1522H87.6239V35.763H88.6096V40.1522ZM87.5631 34.6232C87.5631 34.4717 87.6104 34.346 87.705 34.2459C87.8024 34.1459 87.9403 34.0958 88.1188 34.0958C88.2973 34.0958 88.4352 34.1459 88.5326 34.2459C88.6299 34.346 88.6786 34.4717 88.6786 34.6232C88.6786 34.7719 88.6299 34.8963 88.5326 34.9964C88.4352 35.0937 88.2973 35.1424 88.1188 35.1424C87.9403 35.1424 87.8024 35.0937 87.705 34.9964C87.6104 34.8963 87.5631 34.7719 87.5631 34.6232ZM89.5021 37.917C89.5021 37.487 89.5872 37.1003 89.7576 36.7569C89.928 36.4107 90.1673 36.1457 90.4756 35.9618C90.7839 35.7752 91.1382 35.6819 91.5384 35.6819C92.1307 35.6819 92.6107 35.8726 92.9785 36.2539C93.349 36.6352 93.5491 37.1409 93.5788 37.771L93.5829 38.0022C93.5829 38.4349 93.4991 38.8216 93.3314 39.1624C93.1664 39.5031 92.9284 39.7668 92.6174 39.9534C92.3092 40.14 91.9522 40.2333 91.5465 40.2333C90.9272 40.2333 90.431 40.0278 90.0578 39.6167C89.6873 39.2029 89.5021 38.6526 89.5021 37.9657V37.917ZM90.4878 38.0022C90.4878 38.4538 90.5811 38.8081 90.7677 39.065C90.9543 39.3192 91.2139 39.4463 91.5465 39.4463C91.8792 39.4463 92.1374 39.3165 92.3213 39.0569C92.5079 38.7973 92.6012 38.4173 92.6012 37.917C92.6012 37.4735 92.5052 37.122 92.3132 36.8623C92.1239 36.6027 91.8656 36.4729 91.5384 36.4729C91.2166 36.4729 90.961 36.6014 90.7717 36.8583C90.5824 37.1125 90.4878 37.4938 90.4878 38.0022ZM95.3312 35.763L95.3596 36.2701C95.6842 35.878 96.1101 35.6819 96.6374 35.6819C97.5515 35.6819 98.0166 36.2052 98.0329 37.2518V40.1522H97.0471V37.3086C97.0471 37.03 96.9863 36.8245 96.8646 36.692C96.7456 36.5568 96.5495 36.4892 96.2764 36.4892C95.8789 36.4892 95.5827 36.669 95.388 37.0287V40.1522H94.4023V35.763H95.3312ZM101.501 38.9596C101.501 38.7838 101.428 38.6499 101.282 38.558C101.139 38.466 100.899 38.3849 100.564 38.3146C100.229 38.2443 99.9489 38.155 99.7244 38.0468C99.2322 37.8089 98.9861 37.4641 98.9861 37.0124C98.9861 36.6338 99.1457 36.3174 99.4648 36.0632C99.7839 35.809 100.19 35.6819 100.682 35.6819C101.206 35.6819 101.63 35.8117 101.951 36.0713C102.276 36.3309 102.438 36.6676 102.438 37.0814H101.452C101.452 36.8921 101.382 36.7352 101.242 36.6108C101.101 36.4837 100.914 36.4202 100.682 36.4202C100.465 36.4202 100.288 36.4702 100.15 36.5703C100.015 36.6703 99.9475 36.8042 99.9475 36.9719C99.9475 37.1233 100.011 37.241 100.138 37.3248C100.265 37.4086 100.522 37.4938 100.909 37.5803C101.296 37.6642 101.599 37.7656 101.818 37.8846C102.039 38.0009 102.203 38.1415 102.308 38.3065C102.417 38.4714 102.471 38.6715 102.471 38.9068C102.471 39.3016 102.307 39.6221 101.98 39.8682C101.653 40.1116 101.224 40.2333 100.694 40.2333C100.334 40.2333 100.014 40.1684 99.7325 40.0386C99.4513 39.9088 99.2322 39.7303 99.0754 39.5031C98.9185 39.276 98.8401 39.0312 98.8401 38.7689H99.7974C99.811 39.0015 99.8988 39.1813 100.061 39.3084C100.223 39.4328 100.438 39.495 100.706 39.495C100.966 39.495 101.163 39.4463 101.298 39.349C101.434 39.2489 101.501 39.1191 101.501 38.9596Z" fill="black" fill-opacity="0.7"/>
</g>
<path fill-rule="evenodd" clip-rule="evenodd" d="M148.615 14.9999C148.615 14.745 148.409 14.5384 148.154 14.5384H144.462C144.207 14.5384 144 14.745 144 14.9999V18.6922C144 18.9471 144.207 19.1538 144.462 19.1538H148.154C148.409 19.1538 148.615 18.9471 148.615 18.6922V14.9999ZM152.308 16.8461C152.308 15.5716 153.341 14.5384 154.615 14.5384C155.89 14.5384 156.923 15.5716 156.923 16.8461C156.923 18.1206 155.89 19.1538 154.615 19.1538C153.341 19.1538 152.308 18.1206 152.308 16.8461ZM162.066 18.4942C162.245 18.793 162.678 18.793 162.857 18.4942L164.811 15.2374C164.996 14.9298 164.774 14.5384 164.416 14.5384H160.508C160.149 14.5384 159.927 14.9298 160.112 15.2374L162.066 18.4942Z" fill="black" fill-opacity="0.5"/>
<path fill-rule="evenodd" clip-rule="evenodd" d="M30.231 16.8461C30.231 16.2089 30.7476 15.6923 31.3848 15.6923H40.6156C41.2528 15.6923 41.7694 16.2089 41.7694 16.8461V16.8461C41.7694 17.4834 41.2528 18 40.6156 18H31.3848C30.7476 18 30.231 17.4834 30.231 16.8461V16.8461Z" fill="black" fill-opacity="0.5"/>
<rect width="166.154" height="22.6089" transform="translate(6.92334 48.4614)" fill="#2AA8DE"/>
<g clip-path="url(#clip3)">
<path fill-rule="evenodd" clip-rule="evenodd" d="M36.231 59.7658C36.231 58.8737 36.9542 58.1505 37.8463 58.1505H48.4617C49.3539 58.1505 50.0771 58.8737 50.0771 59.7658V59.7658C50.0771 60.658 49.3539 61.3812 48.4617 61.3812H37.8463C36.9542 61.3812 36.231 60.658 36.231 59.7658V59.7658Z" fill="white"/>
<rect x="154.154" y="56.7682" width="12.913" height="5.99531" rx="2.99766" fill="#DEDEDE"/>
<circle cx="162.917" cy="59.7659" r="4.1506" fill="white"/>
</g>
<g clip-path="url(#clip4)">
<path fill-rule="evenodd" clip-rule="evenodd" d="M36.4619 83.7627C36.4619 82.8706 37.1851 82.1473 38.0773 82.1473H90.2311C91.1233 82.1473 91.8465 82.8706 91.8465 83.7627V83.7627C91.8465 84.6549 91.1233 85.3781 90.2311 85.3781H38.0773C37.1851 85.3781 36.4619 84.6549 36.4619 83.7627V83.7627Z" fill="black" fill-opacity="0.5"/>
<path fill-rule="evenodd" clip-rule="evenodd" d="M36.4619 92.3012C36.4619 91.6639 36.9785 91.1473 37.6158 91.1473H110.77C111.407 91.1473 111.923 91.6639 111.923 92.3012V92.3012C111.923 92.9384 111.407 93.455 110.77 93.455H37.6158C36.9785 93.455 36.4619 92.9384 36.4619 92.3012V92.3012Z" fill="black" fill-opacity="0.5"/>
<rect x="154.385" y="84.8034" width="12.913" height="5.99531" rx="2.99766" fill="#DEDEDE"/>
<circle cx="163.148" cy="87.801" r="4.1506" fill="#9F9F9F"/>
</g>
<g clip-path="url(#clip5)">
<path fill-rule="evenodd" clip-rule="evenodd" d="M36.4619 114.455C36.4619 113.563 37.1851 112.84 38.0773 112.84H68.0773C68.9695 112.84 69.6927 113.563 69.6927 114.455V114.455C69.6927 115.347 68.9695 116.07 68.0773 116.07H38.0773C37.1851 116.07 36.4619 115.347 36.4619 114.455V114.455Z" fill="black" fill-opacity="0.5"/>
<path fill-rule="evenodd" clip-rule="evenodd" d="M36.4619 122.994C36.4619 122.356 36.9785 121.84 37.6158 121.84H124.616C125.253 121.84 125.77 122.356 125.77 122.994V122.994C125.77 123.631 125.253 124.147 124.616 124.147H37.6158C36.9785 124.147 36.4619 123.631 36.4619 122.994V122.994Z" fill="black" fill-opacity="0.5"/>
</g>
<g clip-path="url(#clip6)">
<path fill-rule="evenodd" clip-rule="evenodd" d="M36.4619 145.147C36.4619 144.255 37.1851 143.532 38.0773 143.532H82.1542C83.0464 143.532 83.7696 144.255 83.7696 145.147V145.147C83.7696 146.04 83.0464 146.763 82.1542 146.763H38.0773C37.1851 146.763 36.4619 146.04 36.4619 145.147V145.147Z" fill="black" fill-opacity="0.5"/>
<path fill-rule="evenodd" clip-rule="evenodd" d="M36.4619 153.686C36.4619 153.049 36.9785 152.532 37.6158 152.532H99.2311C99.8684 152.532 100.385 153.049 100.385 153.686V153.686C100.385 154.323 99.8684 154.84 99.2311 154.84H37.6158C36.9785 154.84 36.4619 154.323 36.4619 153.686V153.686Z" fill="black" fill-opacity="0.5"/>
</g>
<g clip-path="url(#clip7)">
<path fill-rule="evenodd" clip-rule="evenodd" d="M36.4619 175.84C36.4619 174.947 37.1851 174.224 38.0773 174.224H90.2311C91.1233 174.224 91.8465 174.947 91.8465 175.84V175.84C91.8465 176.732 91.1233 177.455 90.2311 177.455H38.0773C37.1851 177.455 36.4619 176.732 36.4619 175.84V175.84Z" fill="black" fill-opacity="0.5"/>
<path fill-rule="evenodd" clip-rule="evenodd" d="M36.4619 184.378C36.4619 183.741 36.9785 183.224 37.6158 183.224H110.77C111.407 183.224 111.923 183.741 111.923 184.378V184.378C111.923 185.015 111.407 185.532 110.77 185.532H37.6158C36.9785 185.532 36.4619 185.015 36.4619 184.378V184.378Z" fill="black" fill-opacity="0.5"/>
<rect x="154.385" y="176.88" width="12.913" height="5.99531" rx="2.99766" fill="#DEDEDE"/>
<circle cx="163.148" cy="179.878" r="4.1506" fill="#9F9F9F"/>
</g>
<g clip-path="url(#clip8)">
<path fill-rule="evenodd" clip-rule="evenodd" d="M36.4619 206.532C36.4619 205.64 37.1851 204.917 38.0773 204.917H82.1542C83.0464 204.917 83.7696 205.64 83.7696 206.532V206.532C83.7696 207.424 83.0464 208.147 82.1542 208.147H38.0773C37.1851 208.147 36.4619 207.424 36.4619 206.532V206.532Z" fill="black" fill-opacity="0.5"/>
<path fill-rule="evenodd" clip-rule="evenodd" d="M36.4619 215.07C36.4619 214.433 36.9785 213.917 37.6158 213.917H110.77C111.407 213.917 111.923 214.433 111.923 215.07V215.07C111.923 215.708 111.407 216.224 110.77 216.224H37.6158C36.9785 216.224 36.4619 215.708 36.4619 215.07V215.07Z" fill="black" fill-opacity="0.5"/>
</g>
<g clip-path="url(#clip9)">
<path fill-rule="evenodd" clip-rule="evenodd" d="M36.4619 237.224C36.4619 236.332 37.1851 235.609 38.0773 235.609H82.1542C83.0464 235.609 83.7696 236.332 83.7696 237.224V237.224C83.7696 238.116 83.0464 238.84 82.1542 238.84H38.0773C37.1851 238.84 36.4619 238.116 36.4619 237.224V237.224Z" fill="black" fill-opacity="0.5"/>
</g>
<g clip-path="url(#clip10)">
<path fill-rule="evenodd" clip-rule="evenodd" d="M36.4619 259.84C36.4619 258.947 37.1851 258.224 38.0773 258.224H82.1542C83.0464 258.224 83.7696 258.947 83.7696 259.84V259.84C83.7696 260.732 83.0464 261.455 82.1542 261.455H38.0773C37.1851 261.455 36.4619 260.732 36.4619 259.84V259.84Z" fill="black" fill-opacity="0.5"/>
</g>
<line opacity="0.2" x1="6.92236" y1="274.147" x2="173.076" y2="274.147" stroke="black" stroke-width="0.461538"/>
<path fill-rule="evenodd" clip-rule="evenodd" d="M17.999 288.455C17.999 287.818 18.5156 287.301 19.1529 287.301H55.3836C56.0209 287.301 56.5375 287.818 56.5375 288.455V288.455C56.5375 289.092 56.0209 289.609 55.3836 289.609H19.1529C18.5156 289.609 17.999 289.092 17.999 288.455V288.455Z" fill="black" fill-opacity="0.5"/>
<rect x="154.384" y="305.188" width="12.913" height="5.99531" rx="2.99766" fill="#DEDEDE"/>
<circle cx="163.147" cy="308.186" r="4.1506" fill="#9F9F9F"/>
<path d="M39.3438 301.302V304.649C39.3416 305.113 39.1951 305.493 38.9044 305.788C38.6159 306.083 38.2238 306.249 37.728 306.285L37.5556 306.292C37.017 306.292 36.5877 306.146 36.2677 305.856C35.9476 305.565 35.7854 305.165 35.7809 304.656V301.302H36.4232V304.635C36.4232 304.991 36.5212 305.269 36.7172 305.467C36.9133 305.663 37.1928 305.761 37.5556 305.761C37.9229 305.761 38.2035 305.663 38.3973 305.467C38.5934 305.271 38.6914 304.995 38.6914 304.639V301.302H39.3438ZM41.8183 304.03C41.2616 303.87 40.856 303.674 40.6013 303.442C40.3489 303.208 40.2227 302.919 40.2227 302.577C40.2227 302.189 40.3771 301.869 40.6858 301.617C40.9968 301.362 41.4002 301.235 41.896 301.235C42.2341 301.235 42.5349 301.3 42.7986 301.431C43.0645 301.561 43.2696 301.742 43.4138 301.972C43.5603 302.201 43.6336 302.453 43.6336 302.725H42.9811C42.9811 302.428 42.8865 302.195 42.6972 302.026C42.5079 301.854 42.2408 301.769 41.896 301.769C41.576 301.769 41.3259 301.84 41.1456 301.982C40.9675 302.121 40.8785 302.316 40.8785 302.567C40.8785 302.767 40.963 302.937 41.1321 303.077C41.3033 303.214 41.5929 303.341 42.0008 303.456C42.411 303.571 42.731 303.698 42.9609 303.838C43.193 303.975 43.3643 304.136 43.4747 304.321C43.5874 304.506 43.6437 304.723 43.6437 304.973C43.6437 305.372 43.4882 305.692 43.1772 305.933C42.8662 306.172 42.4504 306.292 41.9298 306.292C41.5918 306.292 41.2763 306.228 40.9833 306.099C40.6904 305.968 40.4639 305.79 40.3039 305.565C40.1461 305.34 40.0672 305.084 40.0672 304.798H40.7197C40.7197 305.095 40.829 305.331 41.0476 305.504C41.2684 305.675 41.5625 305.761 41.9298 305.761C42.2724 305.761 42.5349 305.691 42.7175 305.551C42.9 305.412 42.9913 305.221 42.9913 304.98C42.9913 304.739 42.9068 304.553 42.7378 304.422C42.5687 304.289 42.2622 304.159 41.8183 304.03ZM44.4787 306.224V301.302H46.0877C46.6218 301.302 47.023 301.413 47.2912 301.634C47.5616 301.854 47.6968 302.181 47.6968 302.614C47.6968 302.844 47.6315 303.048 47.5008 303.226C47.37 303.402 47.192 303.538 46.9666 303.635C47.2326 303.709 47.4422 303.851 47.5954 304.061C47.7509 304.268 47.8287 304.516 47.8287 304.804C47.8287 305.246 47.6855 305.593 47.3993 305.846C47.1131 306.098 46.7086 306.224 46.1858 306.224H44.4787ZM45.1277 303.922V305.693H46.1993C46.5013 305.693 46.739 305.616 46.9126 305.46C47.0883 305.302 47.1762 305.086 47.1762 304.811C47.1762 304.218 46.854 303.922 46.2094 303.922H45.1277ZM45.1277 303.402H46.108C46.392 303.402 46.6185 303.331 46.7875 303.189C46.9588 303.047 47.0444 302.854 47.0444 302.611C47.0444 302.34 46.9655 302.144 46.8078 302.022C46.65 301.898 46.41 301.836 46.0877 301.836H45.1277V303.402ZM50.2592 304.365C50.2592 303.804 50.3921 303.353 50.6581 303.013C50.924 302.67 51.2722 302.499 51.7026 302.499C52.1308 302.499 52.47 302.645 52.7201 302.938V301.032H53.3455V306.224H52.7708L52.7404 305.832C52.4902 306.139 52.1421 306.292 51.6958 306.292C51.2722 306.292 50.9262 306.118 50.6581 305.771C50.3921 305.424 50.2592 304.971 50.2592 304.412V304.365ZM50.8845 304.436C50.8845 304.851 50.9702 305.175 51.1414 305.41C51.3127 305.644 51.5494 305.761 51.8513 305.761C52.248 305.761 52.5376 305.583 52.7201 305.227V303.547C52.5331 303.202 52.2457 303.03 51.8581 303.03C51.5516 303.03 51.3127 303.148 51.1414 303.385C50.9702 303.621 50.8845 303.972 50.8845 304.436ZM55.8368 306.292C55.341 306.292 54.9376 306.13 54.6267 305.805C54.3157 305.478 54.1602 305.042 54.1602 304.497V304.382C54.1602 304.019 54.2289 303.696 54.3664 303.412C54.5061 303.125 54.6999 302.902 54.9478 302.742C55.1979 302.58 55.4684 302.499 55.7591 302.499C56.2346 302.499 56.6042 302.656 56.8679 302.969C57.1315 303.282 57.2634 303.731 57.2634 304.314V304.575H54.7855C54.7945 304.935 54.8993 305.227 55.0999 305.45C55.3027 305.671 55.5596 305.781 55.8706 305.781C56.0915 305.781 56.2785 305.736 56.4318 305.646C56.585 305.556 56.7191 305.437 56.8341 305.288L57.216 305.585C56.9096 306.056 56.4498 306.292 55.8368 306.292ZM55.7591 303.013C55.5067 303.013 55.2948 303.105 55.1236 303.29C54.9523 303.473 54.8464 303.729 54.8058 304.061H56.638V304.013C56.62 303.696 56.5343 303.45 56.3811 303.276C56.2278 303.101 56.0205 303.013 55.7591 303.013ZM61.0866 304.436C61.0866 304.995 60.9582 305.444 60.7012 305.785C60.4443 306.123 60.0995 306.292 59.6668 306.292C59.2049 306.292 58.8477 306.128 58.5953 305.802L58.5648 306.224H57.9902V301.032H58.6155V302.969C58.8679 302.656 59.2161 302.499 59.6601 302.499C60.104 302.499 60.4522 302.667 60.7046 303.003C60.9593 303.338 61.0866 303.798 61.0866 304.382V304.436ZM60.4612 304.365C60.4612 303.939 60.379 303.61 60.2145 303.378C60.05 303.146 59.8133 303.03 59.5046 303.03C59.0922 303.03 58.7958 303.221 58.6155 303.604V305.186C58.8071 305.57 59.1057 305.761 59.5113 305.761C59.8111 305.761 60.0443 305.645 60.2111 305.413C60.3779 305.181 60.4612 304.831 60.4612 304.365ZM64.1357 305.862C63.8924 306.149 63.5352 306.292 63.0642 306.292C62.6743 306.292 62.3768 306.179 62.1717 305.954C61.9689 305.726 61.8664 305.39 61.8641 304.946V302.567H62.4895V304.929C62.4895 305.484 62.7148 305.761 63.1656 305.761C63.6433 305.761 63.9611 305.583 64.1188 305.227V302.567H64.7442V306.224H64.1493L64.1357 305.862ZM65.5488 304.365C65.5488 303.795 65.6806 303.342 65.9443 303.006C66.2079 302.668 66.5572 302.499 66.9922 302.499C67.4384 302.499 67.7866 302.657 68.0367 302.972L68.0672 302.567H68.6384V306.136C68.6384 306.61 68.4976 306.983 68.2159 307.255C67.9364 307.528 67.5601 307.664 67.0868 307.664C66.8232 307.664 66.5651 307.608 66.3127 307.495C66.0603 307.383 65.8676 307.228 65.7347 307.032L66.0592 306.657C66.3274 306.988 66.6553 307.154 67.0429 307.154C67.3471 307.154 67.5838 307.068 67.7528 306.897C67.9241 306.726 68.0097 306.484 68.0097 306.173V305.859C67.7595 306.148 67.4181 306.292 66.9854 306.292C66.5572 306.292 66.2102 306.119 65.9443 305.775C65.6806 305.43 65.5488 304.96 65.5488 304.365ZM66.1775 304.436C66.1775 304.848 66.262 305.173 66.431 305.41C66.6001 305.644 66.8367 305.761 67.1409 305.761C67.5353 305.761 67.8249 305.582 68.0097 305.224V303.554C67.8181 303.204 67.5308 303.03 67.1477 303.03C66.8434 303.03 66.6057 303.148 66.4344 303.385C66.2631 303.621 66.1775 303.972 66.1775 304.436ZM69.4362 304.365C69.4362 303.795 69.5681 303.342 69.8317 303.006C70.0954 302.668 70.4447 302.499 70.8797 302.499C71.3259 302.499 71.6741 302.657 71.9242 302.972L71.9546 302.567H72.5259V306.136C72.5259 306.61 72.3851 306.983 72.1034 307.255C71.8239 307.528 71.4476 307.664 70.9743 307.664C70.7106 307.664 70.4526 307.608 70.2002 307.495C69.9478 307.383 69.7551 307.228 69.6221 307.032L69.9467 306.657C70.2148 306.988 70.5427 307.154 70.9304 307.154C71.2346 307.154 71.4712 307.068 71.6402 306.897C71.8115 306.726 71.8972 306.484 71.8972 306.173V305.859C71.647 306.148 71.3056 306.292 70.8729 306.292C70.4447 306.292 70.0977 306.119 69.8317 305.775C69.5681 305.43 69.4362 304.96 69.4362 304.365ZM70.065 304.436C70.065 304.848 70.1495 305.173 70.3185 305.41C70.4875 305.644 70.7242 305.761 71.0284 305.761C71.4228 305.761 71.7124 305.582 71.8972 305.224V303.554C71.7056 303.204 71.4183 303.03 71.0352 303.03C70.7309 303.03 70.4932 303.148 70.3219 303.385C70.1506 303.621 70.065 303.972 70.065 304.436ZM74.1519 306.224H73.5265V302.567H74.1519V306.224ZM73.4758 301.596C73.4758 301.495 73.5062 301.409 73.5671 301.339C73.6302 301.27 73.7226 301.235 73.8443 301.235C73.966 301.235 74.0584 301.27 74.1215 301.339C74.1846 301.409 74.2161 301.495 74.2161 301.596C74.2161 301.698 74.1846 301.782 74.1215 301.85C74.0584 301.918 73.966 301.951 73.8443 301.951C73.7226 301.951 73.6302 301.918 73.5671 301.85C73.5062 301.782 73.4758 301.698 73.4758 301.596ZM75.7474 302.567L75.7677 303.026C76.0472 302.675 76.4123 302.499 76.863 302.499C77.636 302.499 78.0258 302.935 78.0326 303.807V306.224H77.4072V303.804C77.405 303.54 77.3441 303.345 77.2247 303.219C77.1075 303.093 76.9238 303.03 76.6737 303.03C76.4709 303.03 76.2928 303.084 76.1396 303.192C75.9863 303.3 75.8669 303.442 75.7812 303.618V306.224H75.1559V302.567H75.7474ZM78.827 304.365C78.827 303.795 78.9588 303.342 79.2225 303.006C79.4862 302.668 79.8355 302.499 80.2704 302.499C80.7166 302.499 81.0648 302.657 81.315 302.972L81.3454 302.567H81.9167V306.136C81.9167 306.61 81.7758 306.983 81.4941 307.255C81.2147 307.528 80.8383 307.664 80.3651 307.664C80.1014 307.664 79.8434 307.608 79.591 307.495C79.3386 307.383 79.1459 307.228 79.0129 307.032L79.3374 306.657C79.6056 306.988 79.9335 307.154 80.3211 307.154C80.6254 307.154 80.862 307.068 81.031 306.897C81.2023 306.726 81.2879 306.484 81.2879 306.173V305.859C81.0378 306.148 80.6964 306.292 80.2637 306.292C79.8355 306.292 79.4884 306.119 79.2225 305.775C78.9588 305.43 78.827 304.96 78.827 304.365ZM79.4558 304.436C79.4558 304.848 79.5403 305.173 79.7093 305.41C79.8783 305.644 80.1149 305.761 80.4192 305.761C80.8135 305.761 81.1031 305.582 81.2879 305.224V303.554C81.0964 303.204 80.809 303.03 80.4259 303.03C80.1217 303.03 79.8839 303.148 79.7127 303.385C79.5414 303.621 79.4558 303.972 79.4558 304.436Z" fill="black" fill-opacity="0.8"/>
<path d="M38.1582 314.342H36.3711L35.9697 315.455H35.3896L37.0186 311.189H37.5107L39.1426 315.455H38.5654L38.1582 314.342ZM36.541 313.879H37.9912L37.2646 311.884L36.541 313.879ZM40.2207 315.455H39.6787V310.955H40.2207V315.455ZM41.6797 315.455H41.1377V310.955H41.6797V315.455ZM42.4062 313.841C42.4062 313.53 42.4668 313.251 42.5879 313.003C42.7109 312.755 42.8809 312.563 43.0977 312.429C43.3164 312.294 43.5654 312.226 43.8447 312.226C44.2764 312.226 44.625 312.376 44.8906 312.675C45.1582 312.974 45.292 313.371 45.292 313.867V313.905C45.292 314.214 45.2324 314.491 45.1133 314.737C44.9961 314.981 44.8271 315.172 44.6064 315.308C44.3877 315.445 44.1357 315.514 43.8506 315.514C43.4209 315.514 43.0723 315.364 42.8047 315.065C42.5391 314.766 42.4062 314.371 42.4062 313.879V313.841ZM42.9512 313.905C42.9512 314.257 43.0322 314.539 43.1943 314.752C43.3584 314.965 43.5771 315.071 43.8506 315.071C44.126 315.071 44.3447 314.964 44.5068 314.749C44.6689 314.532 44.75 314.229 44.75 313.841C44.75 313.493 44.667 313.212 44.501 312.997C44.3369 312.78 44.1182 312.672 43.8447 312.672C43.5771 312.672 43.3613 312.778 43.1973 312.991C43.0332 313.204 42.9512 313.509 42.9512 313.905ZM48.7783 314.708L49.3877 312.285H49.9297L49.0068 315.455H48.5674L47.7969 313.053L47.0469 315.455H46.6074L45.6875 312.285H46.2266L46.8506 314.658L47.5889 312.285H48.0254L48.7783 314.708ZM52.707 311.517V312.285H53.2988V312.704H52.707V314.67C52.707 314.797 52.7334 314.892 52.7861 314.957C52.8389 315.019 52.9287 315.051 53.0557 315.051C53.1182 315.051 53.2041 315.039 53.3135 315.016V315.455C53.1709 315.494 53.0322 315.514 52.8975 315.514C52.6553 315.514 52.4727 315.44 52.3496 315.294C52.2266 315.147 52.165 314.939 52.165 314.67V312.704H51.5879V312.285H52.165V311.517H52.707ZM54.4766 312.669C54.7168 312.374 55.0293 312.226 55.4141 312.226C56.084 312.226 56.4219 312.604 56.4277 313.36V315.455H55.8857V313.357C55.8838 313.129 55.8311 312.96 55.7275 312.85C55.626 312.741 55.4668 312.686 55.25 312.686C55.0742 312.686 54.9199 312.733 54.7871 312.827C54.6543 312.921 54.5508 313.044 54.4766 313.196V315.455H53.9346V310.955H54.4766V312.669ZM58.5547 315.514C58.125 315.514 57.7754 315.373 57.5059 315.092C57.2363 314.808 57.1016 314.431 57.1016 313.958V313.858C57.1016 313.544 57.1611 313.264 57.2803 313.017C57.4014 312.769 57.5693 312.576 57.7842 312.437C58.001 312.297 58.2354 312.226 58.4873 312.226C58.8994 312.226 59.2197 312.362 59.4482 312.634C59.6768 312.905 59.791 313.294 59.791 313.8V314.025H57.6436C57.6514 314.338 57.7422 314.591 57.916 314.784C58.0918 314.975 58.3145 315.071 58.584 315.071C58.7754 315.071 58.9375 315.032 59.0703 314.954C59.2031 314.876 59.3193 314.772 59.4189 314.643L59.75 314.901C59.4844 315.309 59.0859 315.514 58.5547 315.514ZM58.4873 312.672C58.2686 312.672 58.085 312.752 57.9365 312.912C57.7881 313.07 57.6963 313.293 57.6611 313.58H59.249V313.539C59.2334 313.264 59.1592 313.051 59.0264 312.9C58.8936 312.748 58.7139 312.672 58.4873 312.672ZM64.5928 313.905C64.5928 314.39 64.4814 314.779 64.2588 315.074C64.0361 315.367 63.7373 315.514 63.3623 315.514C62.9619 315.514 62.6523 315.372 62.4336 315.089L62.4072 315.455H61.9092V310.955H62.4512V312.634C62.6699 312.362 62.9717 312.226 63.3564 312.226C63.7412 312.226 64.043 312.372 64.2617 312.663C64.4824 312.954 64.5928 313.352 64.5928 313.858V313.905ZM64.0508 313.844C64.0508 313.474 63.9795 313.189 63.8369 312.988C63.6943 312.787 63.4893 312.686 63.2217 312.686C62.8643 312.686 62.6074 312.852 62.4512 313.184V314.556C62.6172 314.888 62.876 315.054 63.2275 315.054C63.4873 315.054 63.6895 314.953 63.834 314.752C63.9785 314.551 64.0508 314.248 64.0508 313.844ZM65.1348 313.841C65.1348 313.53 65.1953 313.251 65.3164 313.003C65.4395 312.755 65.6094 312.563 65.8262 312.429C66.0449 312.294 66.2939 312.226 66.5732 312.226C67.0049 312.226 67.3535 312.376 67.6191 312.675C67.8867 312.974 68.0205 313.371 68.0205 313.867V313.905C68.0205 314.214 67.9609 314.491 67.8418 314.737C67.7246 314.981 67.5557 315.172 67.335 315.308C67.1162 315.445 66.8643 315.514 66.5791 315.514C66.1494 315.514 65.8008 315.364 65.5332 315.065C65.2676 314.766 65.1348 314.371 65.1348 313.879V313.841ZM65.6797 313.905C65.6797 314.257 65.7607 314.539 65.9229 314.752C66.0869 314.965 66.3057 315.071 66.5791 315.071C66.8545 315.071 67.0732 314.964 67.2354 314.749C67.3975 314.532 67.4785 314.229 67.4785 313.841C67.4785 313.493 67.3955 313.212 67.2295 312.997C67.0654 312.78 66.8467 312.672 66.5732 312.672C66.3057 312.672 66.0898 312.778 65.9258 312.991C65.7617 313.204 65.6797 313.509 65.6797 313.905ZM68.5566 313.841C68.5566 313.53 68.6172 313.251 68.7383 313.003C68.8613 312.755 69.0312 312.563 69.248 312.429C69.4668 312.294 69.7158 312.226 69.9951 312.226C70.4268 312.226 70.7754 312.376 71.041 312.675C71.3086 312.974 71.4424 313.371 71.4424 313.867V313.905C71.4424 314.214 71.3828 314.491 71.2637 314.737C71.1465 314.981 70.9775 315.172 70.7568 315.308C70.5381 315.445 70.2861 315.514 70.001 315.514C69.5713 315.514 69.2227 315.364 68.9551 315.065C68.6895 314.766 68.5566 314.371 68.5566 313.879V313.841ZM69.1016 313.905C69.1016 314.257 69.1826 314.539 69.3447 314.752C69.5088 314.965 69.7275 315.071 70.001 315.071C70.2764 315.071 70.4951 314.964 70.6572 314.749C70.8193 314.532 70.9004 314.229 70.9004 313.841C70.9004 313.493 70.8174 313.212 70.6514 312.997C70.4873 312.78 70.2686 312.672 69.9951 312.672C69.7275 312.672 69.5117 312.778 69.3477 312.991C69.1836 313.204 69.1016 313.509 69.1016 313.905ZM72.8574 311.517V312.285H73.4492V312.704H72.8574V314.67C72.8574 314.797 72.8838 314.892 72.9365 314.957C72.9893 315.019 73.0791 315.051 73.2061 315.051C73.2686 315.051 73.3545 315.039 73.4639 315.016V315.455C73.3213 315.494 73.1826 315.514 73.0479 315.514C72.8057 315.514 72.623 315.44 72.5 315.294C72.377 315.147 72.3154 314.939 72.3154 314.67V312.704H71.7383V312.285H72.3154V311.517H72.8574ZM74.6738 315.455H74.1318V310.955H74.6738V315.455ZM75.4004 313.841C75.4004 313.53 75.4609 313.251 75.582 313.003C75.7051 312.755 75.875 312.563 76.0918 312.429C76.3105 312.294 76.5596 312.226 76.8389 312.226C77.2705 312.226 77.6191 312.376 77.8848 312.675C78.1523 312.974 78.2861 313.371 78.2861 313.867V313.905C78.2861 314.214 78.2266 314.491 78.1074 314.737C77.9902 314.981 77.8213 315.172 77.6006 315.308C77.3818 315.445 77.1299 315.514 76.8447 315.514C76.415 315.514 76.0664 315.364 75.7988 315.065C75.5332 314.766 75.4004 314.371 75.4004 313.879V313.841ZM75.9453 313.905C75.9453 314.257 76.0264 314.539 76.1885 314.752C76.3525 314.965 76.5713 315.071 76.8447 315.071C77.1201 315.071 77.3389 314.964 77.501 314.749C77.6631 314.532 77.7441 314.229 77.7441 313.841C77.7441 313.493 77.6611 313.212 77.4951 312.997C77.3311 312.78 77.1123 312.672 76.8389 312.672C76.5713 312.672 76.3555 312.778 76.1914 312.991C76.0273 313.204 75.9453 313.509 75.9453 313.905ZM80.9229 315.455C80.8916 315.392 80.8662 315.281 80.8467 315.121C80.5947 315.383 80.2939 315.514 79.9443 315.514C79.6318 315.514 79.375 315.426 79.1738 315.25C78.9746 315.072 78.875 314.848 78.875 314.576C78.875 314.246 79 313.99 79.25 313.808C79.502 313.625 79.8555 313.533 80.3105 313.533H80.8379V313.284C80.8379 313.095 80.7812 312.944 80.668 312.833C80.5547 312.72 80.3877 312.663 80.167 312.663C79.9736 312.663 79.8115 312.712 79.6807 312.809C79.5498 312.907 79.4844 313.025 79.4844 313.164H78.9395C78.9395 313.006 78.9951 312.853 79.1064 312.707C79.2197 312.558 79.3721 312.441 79.5635 312.355C79.7568 312.269 79.9688 312.226 80.1992 312.226C80.5645 312.226 80.8506 312.318 81.0576 312.502C81.2646 312.683 81.3721 312.934 81.3799 313.255V314.714C81.3799 315.005 81.417 315.236 81.4912 315.408V315.455H80.9229ZM80.0234 315.042C80.1934 315.042 80.3545 314.998 80.5068 314.91C80.6592 314.822 80.7695 314.708 80.8379 314.567V313.917H80.4131C79.749 313.917 79.417 314.111 79.417 314.5C79.417 314.67 79.4736 314.803 79.5869 314.898C79.7002 314.994 79.8457 315.042 80.0234 315.042ZM82.0977 313.844C82.0977 313.357 82.2129 312.967 82.4434 312.672C82.6738 312.375 82.9756 312.226 83.3486 312.226C83.7197 312.226 84.0137 312.353 84.2305 312.607V310.955H84.7725V315.455H84.2744L84.248 315.115C84.0312 315.381 83.7295 315.514 83.3428 315.514C82.9756 315.514 82.6758 315.363 82.4434 315.062C82.2129 314.762 82.0977 314.369 82.0977 313.885V313.844ZM82.6396 313.905C82.6396 314.265 82.7139 314.546 82.8623 314.749C83.0107 314.952 83.2158 315.054 83.4775 315.054C83.8213 315.054 84.0723 314.899 84.2305 314.591V313.135C84.0684 312.836 83.8193 312.686 83.4834 312.686C83.2178 312.686 83.0107 312.789 82.8623 312.994C82.7139 313.199 82.6396 313.503 82.6396 313.905ZM86.9316 315.514C86.502 315.514 86.1523 315.373 85.8828 315.092C85.6133 314.808 85.4785 314.431 85.4785 313.958V313.858C85.4785 313.544 85.5381 313.264 85.6572 313.017C85.7783 312.769 85.9463 312.576 86.1611 312.437C86.3779 312.297 86.6123 312.226 86.8643 312.226C87.2764 312.226 87.5967 312.362 87.8252 312.634C88.0537 312.905 88.168 313.294 88.168 313.8V314.025H86.0205C86.0283 314.338 86.1191 314.591 86.293 314.784C86.4688 314.975 86.6914 315.071 86.9609 315.071C87.1523 315.071 87.3145 315.032 87.4473 314.954C87.5801 314.876 87.6963 314.772 87.7959 314.643L88.127 314.901C87.8613 315.309 87.4629 315.514 86.9316 315.514ZM86.8643 312.672C86.6455 312.672 86.4619 312.752 86.3135 312.912C86.165 313.07 86.0732 313.293 86.0381 313.58H87.626V313.539C87.6104 313.264 87.5361 313.051 87.4033 312.9C87.2705 312.748 87.0908 312.672 86.8643 312.672ZM90.3301 312.771C90.248 312.758 90.1592 312.751 90.0635 312.751C89.708 312.751 89.4668 312.902 89.3398 313.205V315.455H88.7979V312.285H89.3252L89.334 312.651C89.5117 312.368 89.7637 312.226 90.0898 312.226C90.1953 312.226 90.2754 312.24 90.3301 312.267V312.771ZM93.0547 311.517V312.285H93.6465V312.704H93.0547V314.67C93.0547 314.797 93.0811 314.892 93.1338 314.957C93.1865 315.019 93.2764 315.051 93.4033 315.051C93.4658 315.051 93.5518 315.039 93.6611 315.016V315.455C93.5186 315.494 93.3799 315.514 93.2451 315.514C93.0029 315.514 92.8203 315.44 92.6973 315.294C92.5742 315.147 92.5127 314.939 92.5127 314.67V312.704H91.9355V312.285H92.5127V311.517H93.0547ZM94.0801 313.841C94.0801 313.53 94.1406 313.251 94.2617 313.003C94.3848 312.755 94.5547 312.563 94.7715 312.429C94.9902 312.294 95.2393 312.226 95.5186 312.226C95.9502 312.226 96.2988 312.376 96.5645 312.675C96.832 312.974 96.9658 313.371 96.9658 313.867V313.905C96.9658 314.214 96.9062 314.491 96.7871 314.737C96.6699 314.981 96.501 315.172 96.2803 315.308C96.0615 315.445 95.8096 315.514 95.5244 315.514C95.0947 315.514 94.7461 315.364 94.4785 315.065C94.2129 314.766 94.0801 314.371 94.0801 313.879V313.841ZM94.625 313.905C94.625 314.257 94.7061 314.539 94.8682 314.752C95.0322 314.965 95.251 315.071 95.5244 315.071C95.7998 315.071 96.0186 314.964 96.1807 314.749C96.3428 314.532 96.4238 314.229 96.4238 313.841C96.4238 313.493 96.3408 313.212 96.1748 312.997C96.0107 312.78 95.792 312.672 95.5186 312.672C95.251 312.672 95.0352 312.778 94.8711 312.991C94.707 313.204 94.625 313.509 94.625 313.905ZM101.817 313.905C101.817 314.39 101.706 314.779 101.483 315.074C101.261 315.367 100.962 315.514 100.587 315.514C100.187 315.514 99.877 315.372 99.6582 315.089L99.6318 315.455H99.1338V310.955H99.6758V312.634C99.8945 312.362 100.196 312.226 100.581 312.226C100.966 312.226 101.268 312.372 101.486 312.663C101.707 312.954 101.817 313.352 101.817 313.858V313.905ZM101.275 313.844C101.275 313.474 101.204 313.189 101.062 312.988C100.919 312.787 100.714 312.686 100.446 312.686C100.089 312.686 99.832 312.852 99.6758 313.184V314.556C99.8418 314.888 100.101 315.054 100.452 315.054C100.712 315.054 100.914 314.953 101.059 314.752C101.203 314.551 101.275 314.248 101.275 313.844ZM103.818 315.514C103.389 315.514 103.039 315.373 102.77 315.092C102.5 314.808 102.365 314.431 102.365 313.958V313.858C102.365 313.544 102.425 313.264 102.544 313.017C102.665 312.769 102.833 312.576 103.048 312.437C103.265 312.297 103.499 312.226 103.751 312.226C104.163 312.226 104.483 312.362 104.712 312.634C104.94 312.905 105.055 313.294 105.055 313.8V314.025H102.907C102.915 314.338 103.006 314.591 103.18 314.784C103.355 314.975 103.578 315.071 103.848 315.071C104.039 315.071 104.201 315.032 104.334 314.954C104.467 314.876 104.583 314.772 104.683 314.643L105.014 314.901C104.748 315.309 104.35 315.514 103.818 315.514ZM103.751 312.672C103.532 312.672 103.349 312.752 103.2 312.912C103.052 313.07 102.96 313.293 102.925 313.58H104.513V313.539C104.497 313.264 104.423 313.051 104.29 312.9C104.157 312.748 103.978 312.672 103.751 312.672ZM109.13 315.141C108.919 315.39 108.609 315.514 108.201 315.514C107.863 315.514 107.605 315.416 107.428 315.221C107.252 315.023 107.163 314.732 107.161 314.348V312.285H107.703V314.333C107.703 314.813 107.898 315.054 108.289 315.054C108.703 315.054 108.979 314.899 109.115 314.591V312.285H109.657V315.455H109.142L109.13 315.141ZM110.996 312.285L111.014 312.683C111.256 312.379 111.572 312.226 111.963 312.226C112.633 312.226 112.971 312.604 112.977 313.36V315.455H112.435V313.357C112.433 313.129 112.38 312.96 112.276 312.85C112.175 312.741 112.016 312.686 111.799 312.686C111.623 312.686 111.469 312.733 111.336 312.827C111.203 312.921 111.1 313.044 111.025 313.196V315.455H110.483V312.285H110.996ZM114.383 315.455H113.841V310.955H114.383V315.455ZM115.109 313.841C115.109 313.53 115.17 313.251 115.291 313.003C115.414 312.755 115.584 312.563 115.801 312.429C116.02 312.294 116.269 312.226 116.548 312.226C116.979 312.226 117.328 312.376 117.594 312.675C117.861 312.974 117.995 313.371 117.995 313.867V313.905C117.995 314.214 117.936 314.491 117.816 314.737C117.699 314.981 117.53 315.172 117.31 315.308C117.091 315.445 116.839 315.514 116.554 315.514C116.124 315.514 115.775 315.364 115.508 315.065C115.242 314.766 115.109 314.371 115.109 313.879V313.841ZM115.654 313.905C115.654 314.257 115.735 314.539 115.897 314.752C116.062 314.965 116.28 315.071 116.554 315.071C116.829 315.071 117.048 314.964 117.21 314.749C117.372 314.532 117.453 314.229 117.453 313.841C117.453 313.493 117.37 313.212 117.204 312.997C117.04 312.78 116.821 312.672 116.548 312.672C116.28 312.672 116.064 312.778 115.9 312.991C115.736 313.204 115.654 313.509 115.654 313.905ZM119.946 315.071C120.14 315.071 120.309 315.013 120.453 314.895C120.598 314.778 120.678 314.632 120.693 314.456H121.206C121.196 314.638 121.134 314.81 121.019 314.974C120.903 315.139 120.749 315.269 120.556 315.367C120.364 315.465 120.161 315.514 119.946 315.514C119.515 315.514 119.171 315.37 118.915 315.083C118.661 314.794 118.534 314.399 118.534 313.899V313.808C118.534 313.5 118.591 313.225 118.704 312.985C118.817 312.745 118.979 312.558 119.19 312.426C119.403 312.293 119.654 312.226 119.943 312.226C120.299 312.226 120.594 312.333 120.828 312.546C121.064 312.759 121.19 313.035 121.206 313.375H120.693C120.678 313.17 120.6 313.002 120.459 312.871C120.32 312.738 120.148 312.672 119.943 312.672C119.668 312.672 119.454 312.771 119.302 312.971C119.151 313.168 119.076 313.454 119.076 313.829V313.932C119.076 314.297 119.151 314.578 119.302 314.775C119.452 314.973 119.667 315.071 119.946 315.071ZM122.7 313.987L122.36 314.342V315.455H121.818V310.955H122.36V313.677L122.65 313.328L123.638 312.285H124.297L123.063 313.609L124.44 315.455H123.805L122.7 313.987ZM126.113 315.514C125.684 315.514 125.334 315.373 125.064 315.092C124.795 314.808 124.66 314.431 124.66 313.958V313.858C124.66 313.544 124.72 313.264 124.839 313.017C124.96 312.769 125.128 312.576 125.343 312.437C125.56 312.297 125.794 312.226 126.046 312.226C126.458 312.226 126.778 312.362 127.007 312.634C127.235 312.905 127.35 313.294 127.35 313.8V314.025H125.202C125.21 314.338 125.301 314.591 125.475 314.784C125.65 314.975 125.873 315.071 126.143 315.071C126.334 315.071 126.496 315.032 126.629 314.954C126.762 314.876 126.878 314.772 126.978 314.643L127.309 314.901C127.043 315.309 126.645 315.514 126.113 315.514ZM126.046 312.672C125.827 312.672 125.644 312.752 125.495 312.912C125.347 313.07 125.255 313.293 125.22 313.58H126.808V313.539C126.792 313.264 126.718 313.051 126.585 312.9C126.452 312.748 126.272 312.672 126.046 312.672ZM127.848 313.844C127.848 313.357 127.963 312.967 128.193 312.672C128.424 312.375 128.726 312.226 129.099 312.226C129.47 312.226 129.764 312.353 129.98 312.607V310.955H130.522V315.455H130.024L129.998 315.115C129.781 315.381 129.479 315.514 129.093 315.514C128.726 315.514 128.426 315.363 128.193 315.062C127.963 314.762 127.848 314.369 127.848 313.885V313.844ZM128.39 313.905C128.39 314.265 128.464 314.546 128.612 314.749C128.761 314.952 128.966 315.054 129.228 315.054C129.571 315.054 129.822 314.899 129.98 314.591V313.135C129.818 312.836 129.569 312.686 129.233 312.686C128.968 312.686 128.761 312.789 128.612 312.994C128.464 313.199 128.39 313.503 128.39 313.905Z" fill="black" fill-opacity="0.8"/>
<g clip-path="url(#clip11)">
<path fill-rule="evenodd" clip-rule="evenodd" d="M36.4609 334.84C36.4609 333.947 37.1842 333.224 38.0763 333.224H82.1532C83.0454 333.224 83.7686 333.947 83.7686 334.84V334.84C83.7686 335.732 83.0454 336.455 82.1532 336.455H38.0763C37.1842 336.455 36.4609 335.732 36.4609 334.84V334.84Z" fill="black" fill-opacity="0.5"/>
</g>
<g clip-path="url(#clip12)">
<path fill-rule="evenodd" clip-rule="evenodd" d="M36.4604 357.454C36.4604 356.562 37.1837 355.839 38.0758 355.839H120.23C121.122 355.839 121.845 356.562 121.845 357.454V357.454C121.845 358.347 121.122 359.07 120.23 359.07H38.0758C37.1837 359.07 36.4604 358.347 36.4604 357.454V357.454Z" fill="black" fill-opacity="0.5"/>
<path fill-rule="evenodd" clip-rule="evenodd" d="M36.4604 365.993C36.4604 365.356 36.977 364.839 37.6143 364.839H117.691C118.328 364.839 118.845 365.356 118.845 365.993V365.993C118.845 366.63 118.328 367.147 117.691 367.147H37.6143C36.977 367.147 36.4604 366.63 36.4604 365.993V365.993Z" fill="black" fill-opacity="0.5"/>
<rect x="154.614" y="358.495" width="12.913" height="5.99531" rx="2.99766" fill="#9F9F9F"/>
<circle cx="158.765" cy="361.493" r="4.1506" fill="#DEDEDE"/>
</g>
<rect x="6.92334" y="6.92303" width="166.154" height="360.08" fill="#252525" fill-opacity="0.6"/>
<rect x="17.3076" y="140.769" width="145.615" height="92.5385" rx="1.38462" fill="white"/>
<path d="M31.2759 157.561H28.5952L27.9932 159.231H27.123L29.5664 152.832H30.3047L32.7524 159.231H31.8867L31.2759 157.561ZM28.8501 156.866H31.0254L29.9355 153.874L28.8501 156.866ZM34.3696 159.231H33.5566V152.481H34.3696V159.231ZM36.5581 159.231H35.7451V152.481H36.5581V159.231ZM37.6479 156.809C37.6479 156.344 37.7388 155.925 37.9204 155.552C38.105 155.18 38.3599 154.893 38.6851 154.691C39.0132 154.489 39.3867 154.388 39.8057 154.388C40.4531 154.388 40.9761 154.612 41.3745 155.06C41.7759 155.509 41.9766 156.105 41.9766 156.849V156.906C41.9766 157.369 41.8872 157.785 41.7085 158.154C41.5327 158.52 41.2793 158.806 40.9482 159.011C40.6201 159.216 40.2422 159.319 39.8145 159.319C39.1699 159.319 38.647 159.094 38.2456 158.646C37.8472 158.198 37.6479 157.605 37.6479 156.866V156.809ZM38.4653 156.906C38.4653 157.433 38.5869 157.857 38.8301 158.176C39.0762 158.495 39.4043 158.655 39.8145 158.655C40.2275 158.655 40.5557 158.494 40.7988 158.172C41.042 157.846 41.1636 157.392 41.1636 156.809C41.1636 156.288 41.0391 155.866 40.79 155.544C40.5439 155.219 40.2158 155.056 39.8057 155.056C39.4043 155.056 39.0806 155.216 38.8345 155.535C38.5884 155.854 38.4653 156.311 38.4653 156.906ZM47.2061 158.11L48.1201 154.476H48.9331L47.5488 159.231H46.8896L45.7339 155.627L44.6089 159.231H43.9497L42.5698 154.476H43.3784L44.3145 158.035L45.4219 154.476H46.0767L47.2061 158.11ZM56.6279 152.832V157.183C56.625 157.786 56.4346 158.28 56.0566 158.664C55.6816 159.048 55.1719 159.263 54.5273 159.31L54.3032 159.319C53.603 159.319 53.0449 159.13 52.6289 158.752C52.2129 158.374 52.002 157.854 51.9961 157.192V152.832H52.8311V157.165C52.8311 157.628 52.9585 157.989 53.2134 158.246C53.4683 158.501 53.8315 158.629 54.3032 158.629C54.7808 158.629 55.1455 158.501 55.3975 158.246C55.6523 157.991 55.7798 157.633 55.7798 157.17V152.832H56.6279ZM59.8447 156.379C59.1211 156.171 58.5938 155.916 58.2627 155.614C57.9346 155.309 57.7705 154.934 57.7705 154.489C57.7705 153.985 57.9712 153.569 58.3726 153.241C58.7769 152.91 59.3013 152.744 59.9458 152.744C60.3853 152.744 60.7764 152.829 61.1191 152.999C61.4648 153.169 61.7314 153.404 61.9189 153.702C62.1094 154.001 62.2046 154.328 62.2046 154.682H61.3564C61.3564 154.296 61.2334 153.992 60.9873 153.773C60.7412 153.55 60.394 153.439 59.9458 153.439C59.5298 153.439 59.2046 153.531 58.9702 153.716C58.7388 153.897 58.623 154.151 58.623 154.476C58.623 154.737 58.7329 154.958 58.9526 155.139C59.1753 155.318 59.5518 155.482 60.082 155.632C60.6152 155.781 61.0312 155.947 61.3301 156.128C61.6318 156.307 61.8545 156.516 61.998 156.757C62.1445 156.997 62.2178 157.28 62.2178 157.605C62.2178 158.123 62.0156 158.539 61.6113 158.853C61.207 159.163 60.6665 159.319 59.9897 159.319C59.5503 159.319 59.1401 159.235 58.7593 159.068C58.3784 158.898 58.084 158.667 57.876 158.374C57.6709 158.081 57.5684 157.748 57.5684 157.376H58.4165C58.4165 157.763 58.5586 158.069 58.8428 158.295C59.1299 158.517 59.5122 158.629 59.9897 158.629C60.4351 158.629 60.7764 158.538 61.0137 158.356C61.251 158.175 61.3696 157.927 61.3696 157.614C61.3696 157.3 61.2598 157.058 61.04 156.888C60.8203 156.716 60.4219 156.546 59.8447 156.379ZM63.3032 159.231V152.832H65.395C66.0894 152.832 66.6108 152.976 66.9595 153.263C67.311 153.55 67.4868 153.975 67.4868 154.537C67.4868 154.836 67.4019 155.101 67.2319 155.333C67.062 155.561 66.8306 155.739 66.5376 155.865C66.8833 155.961 67.1558 156.146 67.355 156.418C67.5571 156.688 67.6582 157.01 67.6582 157.385C67.6582 157.959 67.4722 158.41 67.1001 158.739C66.728 159.067 66.2021 159.231 65.5225 159.231H63.3032ZM64.147 156.238V158.541H65.54C65.9326 158.541 66.2417 158.44 66.4673 158.238C66.6958 158.032 66.8101 157.751 66.8101 157.394C66.8101 156.623 66.3911 156.238 65.5532 156.238H64.147ZM64.147 155.561H65.4214C65.7905 155.561 66.085 155.469 66.3047 155.284C66.5273 155.1 66.6387 154.849 66.6387 154.533C66.6387 154.181 66.5361 153.927 66.3311 153.768C66.126 153.607 65.814 153.527 65.395 153.527H64.147V155.561ZM70.8179 156.814C70.8179 156.084 70.9907 155.498 71.3364 155.056C71.6821 154.611 72.1348 154.388 72.6943 154.388C73.251 154.388 73.6919 154.578 74.0171 154.959V152.481H74.8301V159.231H74.083L74.0435 158.721C73.7183 159.119 73.2656 159.319 72.6855 159.319C72.1348 159.319 71.6851 159.093 71.3364 158.642C70.9907 158.191 70.8179 157.602 70.8179 156.875V156.814ZM71.6309 156.906C71.6309 157.445 71.7422 157.867 71.9648 158.172C72.1875 158.476 72.4951 158.629 72.8877 158.629C73.4033 158.629 73.7798 158.397 74.0171 157.934V155.75C73.7739 155.302 73.4004 155.078 72.8965 155.078C72.498 155.078 72.1875 155.232 71.9648 155.539C71.7422 155.847 71.6309 156.302 71.6309 156.906ZM78.0688 159.319C77.4243 159.319 76.8999 159.108 76.4956 158.686C76.0913 158.261 75.8892 157.694 75.8892 156.985V156.836C75.8892 156.364 75.9785 155.944 76.1572 155.574C76.3389 155.202 76.5908 154.912 76.9131 154.704C77.2383 154.493 77.5898 154.388 77.9678 154.388C78.5859 154.388 79.0664 154.592 79.4092 154.999C79.752 155.406 79.9233 155.989 79.9233 156.748V157.086H76.7021C76.7139 157.555 76.8501 157.934 77.1108 158.224C77.3745 158.511 77.7085 158.655 78.1128 158.655C78.3999 158.655 78.6431 158.596 78.8423 158.479C79.0415 158.362 79.2158 158.207 79.3652 158.013L79.8618 158.4C79.4634 159.012 78.8657 159.319 78.0688 159.319ZM77.9678 155.056C77.6396 155.056 77.3643 155.176 77.1416 155.416C76.9189 155.654 76.7812 155.988 76.7285 156.418H79.1104V156.357C79.0869 155.944 78.9756 155.624 78.7764 155.399C78.5771 155.17 78.3076 155.056 77.9678 155.056ZM84.8936 156.906C84.8936 157.633 84.7266 158.217 84.3926 158.659C84.0586 159.099 83.6104 159.319 83.0479 159.319C82.4473 159.319 81.9829 159.106 81.6548 158.681L81.6152 159.231H80.8682V152.481H81.6812V154.999C82.0093 154.592 82.4619 154.388 83.0391 154.388C83.6162 154.388 84.0688 154.606 84.397 155.043C84.728 155.479 84.8936 156.077 84.8936 156.836V156.906ZM84.0806 156.814C84.0806 156.26 83.9736 155.832 83.7598 155.531C83.5459 155.229 83.2383 155.078 82.8369 155.078C82.3008 155.078 81.9155 155.327 81.6812 155.825V157.882C81.9302 158.38 82.3184 158.629 82.8457 158.629C83.2354 158.629 83.5386 158.478 83.7554 158.176C83.9722 157.874 84.0806 157.42 84.0806 156.814ZM88.8574 158.76C88.541 159.133 88.0767 159.319 87.4644 159.319C86.9575 159.319 86.5708 159.172 86.3042 158.879C86.0405 158.583 85.9072 158.147 85.9043 157.57V154.476H86.7173V157.548C86.7173 158.268 87.0103 158.629 87.5962 158.629C88.2173 158.629 88.6304 158.397 88.8354 157.934V154.476H89.6484V159.231H88.875L88.8574 158.76ZM90.6943 156.814C90.6943 156.073 90.8657 155.484 91.2085 155.047C91.5513 154.608 92.0054 154.388 92.5708 154.388C93.1509 154.388 93.6035 154.593 93.9287 155.003L93.9683 154.476H94.7109V159.116C94.7109 159.732 94.5278 160.217 94.1616 160.571C93.7983 160.926 93.3091 161.103 92.6938 161.103C92.3511 161.103 92.0156 161.03 91.6875 160.883C91.3594 160.737 91.1089 160.536 90.936 160.281L91.3579 159.793C91.7065 160.224 92.1328 160.439 92.6367 160.439C93.0322 160.439 93.3398 160.328 93.5596 160.105C93.7822 159.883 93.8936 159.569 93.8936 159.165V158.756C93.5684 159.131 93.1245 159.319 92.562 159.319C92.0054 159.319 91.5542 159.094 91.2085 158.646C90.8657 158.198 90.6943 157.587 90.6943 156.814ZM91.5117 156.906C91.5117 157.442 91.6216 157.864 91.8413 158.172C92.061 158.476 92.3687 158.629 92.7642 158.629C93.2769 158.629 93.6533 158.396 93.8936 157.93V155.759C93.6445 155.305 93.271 155.078 92.7729 155.078C92.3774 155.078 92.0684 155.232 91.8457 155.539C91.623 155.847 91.5117 156.302 91.5117 156.906ZM95.748 156.814C95.748 156.073 95.9194 155.484 96.2622 155.047C96.605 154.608 97.0591 154.388 97.6245 154.388C98.2046 154.388 98.6572 154.593 98.9824 155.003L99.022 154.476H99.7646V159.116C99.7646 159.732 99.5815 160.217 99.2153 160.571C98.8521 160.926 98.3628 161.103 97.7476 161.103C97.4048 161.103 97.0693 161.03 96.7412 160.883C96.4131 160.737 96.1626 160.536 95.9897 160.281L96.4116 159.793C96.7603 160.224 97.1865 160.439 97.6904 160.439C98.0859 160.439 98.3936 160.328 98.6133 160.105C98.8359 159.883 98.9473 159.569 98.9473 159.165V158.756C98.6221 159.131 98.1782 159.319 97.6157 159.319C97.0591 159.319 96.6079 159.094 96.2622 158.646C95.9194 158.198 95.748 157.587 95.748 156.814ZM96.5654 156.906C96.5654 157.442 96.6753 157.864 96.895 158.172C97.1147 158.476 97.4224 158.629 97.8179 158.629C98.3306 158.629 98.707 158.396 98.9473 157.93V155.759C98.6982 155.305 98.3247 155.078 97.8267 155.078C97.4312 155.078 97.1221 155.232 96.8994 155.539C96.6768 155.847 96.5654 156.302 96.5654 156.906ZM101.878 159.231H101.065V154.476H101.878V159.231ZM101 153.215C101 153.083 101.039 152.971 101.118 152.881C101.2 152.79 101.32 152.744 101.479 152.744C101.637 152.744 101.757 152.79 101.839 152.881C101.921 152.971 101.962 153.083 101.962 153.215C101.962 153.346 101.921 153.456 101.839 153.544C101.757 153.632 101.637 153.676 101.479 153.676C101.32 153.676 101.2 153.632 101.118 153.544C101.039 153.456 101 153.346 101 153.215ZM103.953 154.476L103.979 155.073C104.342 154.616 104.817 154.388 105.403 154.388C106.408 154.388 106.915 154.955 106.923 156.089V159.231H106.11V156.084C106.107 155.741 106.028 155.488 105.873 155.324C105.721 155.16 105.482 155.078 105.157 155.078C104.893 155.078 104.662 155.148 104.462 155.289C104.263 155.429 104.108 155.614 103.997 155.843V159.231H103.184V154.476H103.953ZM107.956 156.814C107.956 156.073 108.127 155.484 108.47 155.047C108.813 154.608 109.267 154.388 109.833 154.388C110.413 154.388 110.865 154.593 111.19 155.003L111.23 154.476H111.973V159.116C111.973 159.732 111.79 160.217 111.423 160.571C111.06 160.926 110.571 161.103 109.956 161.103C109.613 161.103 109.277 161.03 108.949 160.883C108.621 160.737 108.371 160.536 108.198 160.281L108.62 159.793C108.968 160.224 109.395 160.439 109.898 160.439C110.294 160.439 110.602 160.328 110.821 160.105C111.044 159.883 111.155 159.569 111.155 159.165V158.756C110.83 159.131 110.386 159.319 109.824 159.319C109.267 159.319 108.816 159.094 108.47 158.646C108.127 158.198 107.956 157.587 107.956 156.814ZM108.773 156.906C108.773 157.442 108.883 157.864 109.103 158.172C109.323 158.476 109.63 158.629 110.026 158.629C110.539 158.629 110.915 158.396 111.155 157.93V155.759C110.906 155.305 110.533 155.078 110.035 155.078C109.639 155.078 109.33 155.232 109.107 155.539C108.885 155.847 108.773 156.302 108.773 156.906ZM114.157 157.429C114.163 157.08 114.202 156.805 114.275 156.603C114.349 156.401 114.498 156.177 114.724 155.93L115.299 155.337C115.545 155.059 115.668 154.76 115.668 154.441C115.668 154.133 115.588 153.893 115.427 153.72C115.266 153.544 115.031 153.456 114.724 153.456C114.425 153.456 114.185 153.535 114.003 153.694C113.821 153.852 113.73 154.064 113.73 154.331H112.917C112.923 153.856 113.092 153.474 113.423 153.184C113.757 152.891 114.19 152.744 114.724 152.744C115.277 152.744 115.708 152.894 116.016 153.193C116.326 153.489 116.481 153.896 116.481 154.414C116.481 154.927 116.244 155.432 115.77 155.93L115.291 156.405C115.077 156.642 114.97 156.984 114.97 157.429H114.157ZM114.122 158.822C114.122 158.69 114.161 158.58 114.24 158.492C114.322 158.402 114.442 158.356 114.601 158.356C114.759 158.356 114.879 158.402 114.961 158.492C115.043 158.58 115.084 158.69 115.084 158.822C115.084 158.954 115.043 159.064 114.961 159.152C114.879 159.237 114.759 159.279 114.601 159.279C114.442 159.279 114.322 159.237 114.24 159.152C114.161 159.064 114.122 158.954 114.122 158.822Z" fill="black"/>
<path fill-rule="evenodd" clip-rule="evenodd" d="M27.0005 167.769C27.0005 167.132 27.5171 166.615 28.1543 166.615H117.462C118.099 166.615 118.616 167.132 118.616 167.769V167.769C118.616 168.406 118.099 168.923 117.462 168.923H28.1543C27.5171 168.923 27.0005 168.406 27.0005 167.769V167.769Z" fill="black" fill-opacity="0.5"/>
<path fill-rule="evenodd" clip-rule="evenodd" d="M27 174.231C27 173.594 27.5166 173.077 28.1538 173.077H108.231C108.868 173.077 109.385 173.594 109.385 174.231V174.231C109.385 174.868 108.868 175.385 108.231 175.385H28.1538C27.5166 175.385 27 174.868 27 174.231V174.231Z" fill="black" fill-opacity="0.5"/>
<path fill-rule="evenodd" clip-rule="evenodd" d="M27 180.692C27 180.055 27.5166 179.538 28.1538 179.538H108.231C108.868 179.538 109.385 180.055 109.385 180.692V180.692C109.385 181.33 108.868 181.846 108.231 181.846H28.1538C27.5166 181.846 27 181.33 27 180.692V180.692Z" fill="black" fill-opacity="0.5"/>
<g clip-path="url(#clip13)">
<path fill-rule="evenodd" clip-rule="evenodd" d="M27 189.462C27 189.079 27.31 188.769 27.6923 188.769H34.6154C34.9977 188.769 35.3077 189.079 35.3077 189.462V196.385C35.3077 196.767 34.9977 197.077 34.6154 197.077H27.6923C27.31 197.077 27 196.767 27 196.385V189.462Z" fill="black" fill-opacity="0.5"/>
<path d="M30.4186 194.327L29.0733 192.982L28.6152 193.437L30.4186 195.24L34.2898 191.369L33.835 190.914L30.4186 194.327Z" fill="white"/>
<path fill-rule="evenodd" clip-rule="evenodd" d="M37.6152 192.923C37.6152 192.286 38.1318 191.769 38.7691 191.769H128.077C128.714 191.769 129.231 192.286 129.231 192.923V192.923C129.231 193.56 128.714 194.077 128.077 194.077H38.7691C38.1318 194.077 37.6152 193.56 37.6152 192.923V192.923Z" fill="black" fill-opacity="0.5"/>
</g>
<path fill-rule="evenodd" clip-rule="evenodd" d="M103.154 221.077C103.154 220.44 103.67 219.923 104.308 219.923H121.846C122.483 219.923 123 220.44 123 221.077V221.077C123 221.714 122.483 222.231 121.846 222.231H104.308C103.67 222.231 103.154 221.714 103.154 221.077V221.077Z" fill="black" fill-opacity="0.5"/>
<path fill-rule="evenodd" clip-rule="evenodd" d="M134.077 221.077C134.077 220.44 134.594 219.923 135.231 219.923H152.769C153.407 219.923 153.923 220.44 153.923 221.077V221.077C153.923 221.714 153.407 222.231 152.769 222.231H135.231C134.594 222.231 134.077 221.714 134.077 221.077V221.077Z" fill="black" fill-opacity="0.5"/>
<circle cx="145.5" cy="221.192" r="10.5" fill="#FF00E5" fill-opacity="0.5"/>
</g>
</g>
<defs>
<filter id="filter0_d" x="1.38488" y="1.84611" width="177.231" height="371.077" filterUnits="userSpaceOnUse" color-interpolation-filters="sRGB">
<feFlood flood-opacity="0" result="BackgroundImageFix"/>
<feColorMatrix in="SourceAlpha" type="matrix" values="0 0 0 0 0 0 0 0 0 0 0 0 0 0 0 0 0 0 127 0"/>
<feOffset dy="0.461538"/>
<feGaussianBlur stdDeviation="2.76923"/>
<feColorMatrix type="matrix" values="0 0 0 0 0 0 0 0 0 0 0 0 0 0 0 0 0 0 0.15 0"/>
<feBlend mode="normal" in2="BackgroundImageFix" result="effect1_dropShadow"/>
<feBlend mode="normal" in="SourceGraphic" in2="effect1_dropShadow" result="shape"/>
</filter>
<filter id="filter1_d" x="5.07719" y="5.99996" width="169.846" height="45.2308" filterUnits="userSpaceOnUse" color-interpolation-filters="sRGB">
<feFlood flood-opacity="0" result="BackgroundImageFix"/>
<feColorMatrix in="SourceAlpha" type="matrix" values="0 0 0 0 0 0 0 0 0 0 0 0 0 0 0 0 0 0 127 0"/>
<feOffset dy="0.923077"/>
<feGaussianBlur stdDeviation="0.923077"/>
<feColorMatrix type="matrix" values="0 0 0 0 0 0 0 0 0 0 0 0 0 0 0 0 0 0 0.1 0"/>
<feBlend mode="normal" in2="BackgroundImageFix" result="effect1_dropShadow"/>
<feBlend mode="normal" in="SourceGraphic" in2="effect1_dropShadow" result="shape"/>
</filter>
<clipPath id="clip0">
<rect x="6.92334" y="6.92303" width="166.154" height="360" rx="19.3846" fill="white"/>
</clipPath>
<clipPath id="clip1">
<rect width="11.0769" height="11.0769" fill="white" transform="translate(156.923 31.3845)"/>
</clipPath>
<clipPath id="clip2">
<rect width="90.9231" height="10.6154" fill="white" transform="translate(12 31.6906)"/>
</clipPath>
<clipPath id="clip3">
<rect width="154.605" height="11.532" fill="white" transform="translate(12.4619 53.9999)"/>
</clipPath>
<clipPath id="clip4">
<rect width="130.836" height="11.3077" fill="white" transform="translate(36.4619 82.1473)"/>
</clipPath>
<clipPath id="clip5">
<rect width="89.3077" height="11.3077" fill="white" transform="translate(36.4619 112.84)"/>
</clipPath>
<clipPath id="clip6">
<rect width="63.9231" height="11.3077" fill="white" transform="translate(36.4619 143.532)"/>
</clipPath>
<clipPath id="clip7">
<rect width="130.836" height="11.3077" fill="white" transform="translate(36.4619 174.224)"/>
</clipPath>
<clipPath id="clip8">
<rect width="75.4615" height="11.3077" fill="white" transform="translate(36.4619 204.917)"/>
</clipPath>
<clipPath id="clip9">
<rect width="47.3077" height="3.23077" fill="white" transform="translate(36.4619 235.609)"/>
</clipPath>
<clipPath id="clip10">
<rect width="47.3077" height="3.23077" fill="white" transform="translate(36.4619 258.224)"/>
</clipPath>
<clipPath id="clip11">
<rect width="47.3077" height="3.23077" fill="white" transform="translate(36.4609 333.224)"/>
</clipPath>
<clipPath id="clip12">
<rect width="136.615" height="11.3077" fill="white" transform="translate(36.4604 355.846)"/>
</clipPath>
<clipPath id="clip13">
<rect width="105.692" height="8.30769" fill="white" transform="translate(27 188.769)"/>
</clipPath>
</defs>
</svg>
